<?xml version="1.0" encoding="utf-8"?>
<!-- Generator: Adobe Illustrator 19.2.1, SVG Export Plug-In . SVG Version: 6.00 Build 0)  -->
<svg version="1.1"
	 id="Layer_1" xmlns:cc="http://creativecommons.org/ns#" xmlns:dc="http://purl.org/dc/elements/1.1/" xmlns:inkscape="http://www.inkscape.org/namespaces/inkscape" xmlns:rdf="http://www.w3.org/1999/02/22-rdf-syntax-ns#" xmlns:sodipodi="http://sodipodi.sourceforge.net/DTD/sodipodi-0.dtd" xmlns:svg="http://www.w3.org/2000/svg"
	 xmlns="http://www.w3.org/2000/svg" xmlns:xlink="http://www.w3.org/1999/xlink" x="0px" y="0px" viewBox="0 0 99.2 99.2"
	 style="enable-background:new 0 0 99.2 99.2;" xml:space="preserve">
<style type="text/css">
	.st0{fill:#EEEEEE;}
	.st1{display:none;fill:#555555;}
	.st2{fill:#259DFF;}
</style>
<g>
	<rect x="24.2" y="26.2" class="st0" width="50.8" height="2.6"/>
	<rect x="26.8" y="32.7" class="st0" width="45.6" height="30"/>
	<path class="st0" d="M49.6,0C22.2,0,0,22.2,0,49.6s22.2,49.6,49.6,49.6C77,99.2,99.2,77,99.2,49.6S77,0,49.6,0z M79,30.7
		c0,1-0.9,2-2,2h-0.7v31.9c0,1-0.9,2-2,2H62c0,0,6,11.1,6.2,11.4c0.1,0.3,0.3,0.6,0.3,1c0,1.1-0.8,2-2,2c-0.7,0-1.4-0.4-1.7-1
		c-0.1-0.1-7.3-13.4-7.3-13.4h-6V79c0,1-0.9,2-2,2c-1,0-2-0.9-2-2V66.6h-6c0,0-7.4,13.4-7.4,13.5c-0.3,0.5-1,0.8-1.6,0.8
		c-1.1,0-2-0.8-2-2c0-0.4,0.1-0.7,0.3-1c0.1-0.1,6.2-11.3,6.2-11.3H24.8c-1,0-2-0.9-2-2V32.7h-0.7c-1,0-2-0.9-2-2v-6.5
		c0-0.8,0.9-2,2-2H77c1,0,2,0.9,2,2V30.7z"/>
</g>
<path class="st1" d="M77,22.3H22.2c-1,0-2,1.1-2,2v6.5c0,1,0.9,2,2,2h0.7v31.9c0,1,0.9,2,2,2h12.4c0,0-6.1,11.3-6.2,11.3
	c-0.2,0.3-0.3,0.7-0.3,1c0,1.1,0.8,2,2,2c0.7,0,1.3-0.3,1.6-0.8c0-0.1,7.4-13.5,7.4-13.5h6V79c0,1,0.9,2,2,2c1,0,2-0.9,2-2V66.6h6
	c0,0,7.2,13.2,7.3,13.4c0.3,0.6,1,1,1.7,1c1.1,0,2-0.8,2-2c0-0.4-0.1-0.7-0.3-1C68,77.7,62,66.6,62,66.6h12.4c1,0,2-0.9,2-2V32.7H77
	c1,0,2-0.9,2-2v-6.5C79,23.2,78,22.3,77,22.3z M72.4,62.7H26.8v-30h45.6V62.7z M75,28.8H24.2v-2.6H75V28.8z"/>
<path class="st2" d="M52.2,39.9c0,0.9,0.9,2,2,2h4.5l-9.1,9.6l-5.1-5.1c-0.7-0.7-2-0.7-2.7-0.1l-7.2,6.5c-0.8,0.7-0.8,2-0.1,2.7
	c0.7,0.8,2,0.8,2.7,0.1l5.8-5.3l5.2,5.2c0.7,0.7,2.1,0.7,2.8,0l10.3-10.8V49c0,1,0.9,2,2,2c1,0,2-0.9,2-2v-9.1c0-1-0.9-2-2-2h-9.1
	C53,37.9,52.2,38.9,52.2,39.9L52.2,39.9z"/>
</svg>
