<?xml version="1.0" encoding="utf-8"?>
<!-- Generator: Adobe Illustrator 19.2.1, SVG Export Plug-In . SVG Version: 6.00 Build 0)  -->
<svg version="1.1"
	 id="Layer_1" xmlns:cc="http://creativecommons.org/ns#" xmlns:dc="http://purl.org/dc/elements/1.1/" xmlns:inkscape="http://www.inkscape.org/namespaces/inkscape" xmlns:rdf="http://www.w3.org/1999/02/22-rdf-syntax-ns#" xmlns:sodipodi="http://sodipodi.sourceforge.net/DTD/sodipodi-0.dtd" xmlns:svg="http://www.w3.org/2000/svg"
	 xmlns="http://www.w3.org/2000/svg" xmlns:xlink="http://www.w3.org/1999/xlink" x="0px" y="0px" viewBox="0 0 99.2 99.2"
	 style="enable-background:new 0 0 99.2 99.2;" xml:space="preserve">
<style type="text/css">
	.st0{fill:#EEEEEE;}
</style>
<g transform="translate(0,-952.36218)">
	<path class="st0" d="M7.6,957.4c-1.6,0-3,1.7-3,3v10c0,1.6,1.4,3,3,3h1v49c0,1.6,1.4,3,3,3h19c0,0-9.4,17.3-9.5,17.4
		c-0.3,0.5-0.5,1-0.5,1.6c0,1.7,1.3,3,3,3c1,0,2-0.5,2.5-1.3c0-0.1,11.3-20.7,11.3-20.7h9.2v19c0,1.6,1.4,3,3,3c1.6,0,3-1.4,3-3v-19
		h9.2c0,0,11.1,20.3,11.2,20.5c0.5,0.9,1.5,1.5,2.6,1.5c1.7,0,3-1.3,3-3c0-0.6-0.2-1.1-0.4-1.5c-0.3-0.5-9.5-17.5-9.5-17.5h19
		c1.6,0,3-1.4,3-3v-49h1c1.6,0,3-1.4,3-3v-10c0-1.6-1.4-3-3-3H7.6z M10.6,963.4h78v4h-78L10.6,963.4z M14.6,973.4h70v46h-70
		L14.6,973.4z M53.6,984.4c0,1.4,1.4,3,3,3h6.9l-14,14.7l-7.8-7.8c-1.1-1.1-3-1.1-4.2-0.1l-11,10c-1.2,1.1-1.3,3.1-0.2,4.2
		c1.1,1.2,3.1,1.3,4.2,0.2l8.9-8.1l8,8c1.1,1.1,3.2,1.1,4.3,0l15.8-16.6v6.5c0,1.6,1.4,3,3,3c1.6,0,3-1.4,3-3v-14c0-1.6-1.4-3-3-3
		h-14C54.9,981.4,53.6,982.9,53.6,984.4L53.6,984.4z"/>
</g>
</svg>
