<?xml version="1.0" encoding="utf-8"?>
<!-- Generator: Adobe Illustrator 19.2.1, SVG Export Plug-In . SVG Version: 6.00 Build 0)  -->
<svg version="1.1" id="Layer_1" xmlns="http://www.w3.org/2000/svg" xmlns:xlink="http://www.w3.org/1999/xlink" x="0px" y="0px"
	 viewBox="0 0 901 71.5" style="enable-background:new 0 0 901 71.5;" xml:space="preserve">
<style type="text/css">
	.st0{fill:#FEAC09;}
	.st1{fill:#259DFF;}
	.st2{fill:#555555;}
</style>
<path class="st0" d="M192.3,24.9C192.6,24.9,192.6,24.9,192.3,24.9c0.4,0,0.8-0.2,1.1-0.6c0.2-0.2,0.4-0.6,0.2-1.1l-0.2-8.2
	c0-0.8-0.6-1.5-1.5-1.5s-1.5,0.6-1.5,1.5l0.2,8.2C191.1,24.5,191.7,24.9,192.3,24.9z"/>
<path class="st1" d="M205.2,21.7L205.2,21.7c0.4,0,0.8-0.2,1.1-0.4c0.2-0.2,0.4-0.6,0.4-1.1s-0.2-0.8-0.4-1.1l0,0
	c-0.6-0.4-1.5-0.4-1.9,0l0,0c-0.2,0.2-0.4,0.6-0.4,1.1s0.2,0.8,0.4,1.1C204.3,21.5,204.8,21.7,205.2,21.7z"/>
<path class="st1" d="M201.4,24.3c0.2,0.2,0.6,0.4,1.1,0.4l0,0c0.4,0,0.8-0.2,1.1-0.4c0.2-0.2,0.4-0.6,0.4-1.1s-0.2-0.6-0.4-1.1
	c-0.2-0.2-0.6-0.4-1.1-0.4s-0.8,0.2-1.1,0.4c-0.2,0.2-0.4,0.6-0.4,1.1C200.8,23.6,201,24,201.4,24.3z"/>
<path class="st0" d="M200.6,32.5c-0.2,0.2-0.4,0.6-0.4,1.1c0,0.4,0.2,0.8,0.4,1.1c0.2,0.2,0.6,0.4,1.1,0.4l0,0l8.2-0.2
	c0.4,0,0.8-0.2,1.1-0.4c0.2-0.2,0.4-0.6,0.4-1.1c0-0.4-0.2-0.8-0.4-1.1c-0.2-0.2-0.6-0.4-1.1-0.4l-8.2,0.2
	C201.2,32.1,200.8,32.3,200.6,32.5z"/>
<path class="st1" d="M199.5,27.6L199.5,27.6c0.4,0,0.8-0.2,1.1-0.6c0.2-0.2,0.4-0.6,0.4-1.1s-0.2-0.8-0.4-1.1
	c-0.2-0.2-0.6-0.4-1.1-0.4s-0.6,0.2-0.8,0.4c-0.2,0.2-0.4,0.6-0.4,1.1s0.2,0.8,0.4,1.1C198.9,27.4,199.1,27.6,199.5,27.6z"/>
<path class="st0" d="M175.7,35.6L175.7,35.6l8.2-0.2c0.8,0,1.5-0.6,1.5-1.5c0-0.4-0.2-0.8-0.4-1.1c-0.2-0.2-0.6-0.4-1.1-0.4
	l-8.2,0.2c-0.4,0-0.8,0.2-1.1,0.4c-0.2,0.2-0.4,0.6-0.4,1.1c0,0.4,0.2,0.8,0.4,1.1C175.1,35.6,175.3,35.6,175.7,35.6z"/>
<path class="st1" d="M184.8,27.4L184.8,27.4c0.4,0,0.8-0.2,1.1-0.4c0.2-0.2,0.4-0.6,0.4-1.1s-0.2-0.8-0.4-1.1
	c-0.2-0.2-0.6-0.4-1.1-0.4s-0.6,0.2-0.8,0.4c-0.2,0.2-0.4,0.6-0.4,1.1s0.2,0.6,0.4,1.1C183.9,27.4,184.3,27.4,184.8,27.4z
	 M184.8,26.8L184.8,26.8L184.8,26.8L184.8,26.8z"/>
<path class="st2" d="M211.5,45.3c0-3.2-2.7-5.7-6.1-5.7l-7.8,0.2l-0.2-5.5c0-2.7-1.1-4.6-2.5-5.7c-2.3-1.7-5.5-0.8-6.1-0.6l0,0
	c-0.6,0.2-1.1,0.8-1.1,1.5l0.2,6.5c0.2,4.8-5.7,6.7-5.7,6.7H182c-0.4-0.4-1.1-0.6-1.7-0.6l-5.9,0.2c-0.6,0-1.3,0.2-1.9,0.8
	c-0.4,0.4-0.6,1.3-0.6,1.9l0.6,17.7c0,1.5,1.3,2.5,2.7,2.5l5.9-0.2c0.6,0,1.3-0.4,1.9-0.8c1.1,0.8,2.3,1.3,3.6,1.3h0.2l16.2-0.4
	c3.8-0.2,6.3-2.3,6.7-5.9l1.7-14.1V45.3L211.5,45.3z M183.5,45.7c1.3-0.4,8-2.9,7.8-9.7l-0.2-5.5c0.6,0,1.7,0,2.3,0.4
	c0.8,0.6,1.3,1.7,1.3,3.4l0.2,7c0,0.4,0.2,0.8,0.4,1.1s0.6,0.4,1.1,0.4h0.6v-0.2l8.4-0.2c1.5,0,2.9,1.3,2.9,2.7L206.7,59
	c0,0.8-0.2,3.2-3.8,3.2l-16.2,0.4c-1.7,0-2.9-1.3-2.9-2.7L183.5,45.7C183.3,46,183.3,46,183.5,45.7L183.5,45.7z M175.7,62.8
	l-0.6-17.1l5.3-0.2l0.6,17.1L175.7,62.8z"/>
<path class="st1" d="M178.9,21.9L178.9,21.9h0.2h0.2c0.2,0,0.4-0.2,0.6-0.4l0,0c0.2-0.2,0.4-0.6,0.4-1.1s-0.2-0.8-0.4-1.1
	c-0.2-0.2-0.6-0.4-1.1-0.4s-0.6,0.2-0.8,0.4c-0.2,0.2-0.4,0.6-0.4,1.1s0.2,0.8,0.4,1.1C178,21.7,178.4,21.9,178.9,21.9z"/>
<path class="st1" d="M180.8,24.3c0.2,0.2,0.6,0.4,1.1,0.4l0,0c0.6,0,0.8-0.4,1.1-0.4l0,0c0.2-0.2,0.4-0.6,0.4-1.1s-0.2-0.6-0.4-0.8
	c-0.2-0.2-0.6-0.4-1.1-0.4s-0.6,0.2-0.8,0.4c-0.2,0.2-0.4,0.6-0.4,1.1C180.3,23.8,180.5,24,180.8,24.3z"/>
<polygon class="st0" points="426.8,33.9 424.6,33.9 424.6,38.8 426.8,38.8 "/>
<polygon class="st0" points="430.5,31.4 428.2,31.4 428.2,38.8 430.5,38.8 "/>
<polygon class="st0" points="434.1,28.3 432,28.3 432,38.8 434.1,38.8 "/>
<polygon class="st1" points="437.9,25.3 435.6,25.3 435.6,38.8 437.9,38.8 "/>
<polygon class="st0" points="441.5,23.2 439.2,23.2 439.2,38.8 441.5,38.8 "/>
<path class="st1" d="M457.1,28.9v9.5v2.3h2.3h9.5c-1.1,4.2-4.8,7.4-9.5,7.4c-5.5,0-9.7-4.4-9.7-9.7
	C449.7,33.9,452.9,29.9,457.1,28.9 M459.4,26.4c-6.7,0-12,5.5-12,12c0,6.7,5.5,12,12,12c6.7,0,12-5.5,12-12h-12V26.4L459.4,26.4z"/>
<path class="st0" d="M464,26.8c1.7,0.4,3.4,1.3,4.6,2.5c1.3,1.3,2.1,2.9,2.5,4.6H464V26.8 M461.7,24.3v12.2h12l0,0
	c0-3.4-1.3-6.3-3.6-8.6C468,25.5,465.1,24.3,461.7,24.3L461.7,24.3z"/>
<polygon class="st2" points="424.4,53.5 422.5,52.1 429.7,43.6 435.4,49.7 440,44.3 441.9,45.7 435.6,53.3 429.7,47 "/>
<polygon class="st2" points="443.2,42.6 437.7,44.3 441.7,48.5 "/>
<path class="st2" d="M477.7,18.2v40h-58.6v-40L477.7,18.2 M478.1,15.8h-59.6c-1.1,0-1.9,0.8-1.9,1.9v42.8h63.2V17.7
	C480,16.7,479.2,15.8,478.1,15.8L478.1,15.8z M480,60.5L480,60.5L480,60.5L480,60.5z"/>
<path class="st2" d="M485.5,63.9v-1.3h-31c-0.2,0.6-0.6,1.3-1.5,1.3h-9.7c-0.6,0-1.3-0.4-1.5-1.3h-31v1.3l0,0l3.8,2.3h67L485.5,63.9
	L485.5,63.9z"/>
<path class="st2" d="M382.5,49.5l1.5-9.5c0-0.4,0-0.6-0.2-0.8c-0.2-0.2-0.4-0.4-0.8-0.4l-3.2-0.4l0.2-0.8c0-0.6-0.4-1.3-1.1-1.5
	l-4.6-0.8l0,0l-0.2-0.2l-6.5-9.1c-0.2-0.2-0.4-0.4-0.8-0.4l-23.2-3.8l0.2-1.3c0-0.6-0.4-1.3-1.1-1.5L324,16c-0.4,0-0.6,0-0.8,0.2
	c-0.2,0.2-0.4,0.4-0.4,0.8l-0.8,4.8c-0.2,0.6,0.4,1.3,1.1,1.5l18.7,2.9c0.4,0,0.6,0,0.8-0.2c0.2-0.2,0.4-0.4,0.4-0.8l0.2-1.3
	l1.9,0.2l5.1,7.2l-8.8-1.5c-0.4,0-0.6,0-0.8,0.2S340,30.6,340,31l-1.3,7.4l-8.4-1.3l0,0l-7.8-6.3c-0.4-0.2-0.8-0.4-1.3-0.2
	c-0.4,0.2-0.6,0.4-0.8,0.8L317,52.3c0,0.4,0,0.8,0.4,1.1c0.2,0.2,0.4,0.2,0.6,0.2s0.4,0,0.6,0L328,50l0,0l8.2,1.3l-1.3,7.8
	c0,0.4,0,0.6,0.2,0.8c0.2,0.2,0.4,0.4,0.8,0.4l37.7,5.9c0.6,0,1.3-0.4,1.5-1.1l2.5-15.6l3.2,0.4C381.9,50.8,382.5,50.2,382.5,49.5z
	 M340.8,23.6l-16.2-2.5l0.4-2.3l16.2,2.5L340.8,23.6z M348.6,24.9l17.5,2.7l4.6,6.3l-17.5-2.7L348.6,24.9z M327.3,48.1l-7.2,2.7
	l2.7-16.6L329,39L327.3,48.1z M332.2,48.5l-2.5-0.4l1.3-8.2l2.5,0.4L332.2,48.5z M334.7,48.9l1.3-8.2l2.3,0.4l-1.3,8.2L334.7,48.9z
	 M373.5,64.1l-35.4-5.7l4-25.9l35.4,5.7L373.5,64.1z M380.4,48.1l-1.9-0.2l1.1-7l1.9,0.2L380.4,48.1z"/>
<path class="st0" d="M345.5,39l-1.7,10.5c0,0.4,0,0.6,0.2,0.8c0.2,0.2,0.4,0.4,0.8,0.4l10.5,1.7c0.6,0,1.3-0.4,1.5-1.1l1.7-10.5
	c0-0.6-0.4-1.3-1.1-1.5l-10.5-1.7C346.3,37.7,345.7,38.2,345.5,39z M347.8,40.5l8,1.3l-1.3,8l-8-1.3L347.8,40.5z"/>
<path class="st1" d="M368.8,41.3c-0.2,0-0.4,0-0.6,0c-0.8,0-1.7,0.2-2.3,0.8c-0.8,0.6-1.5,1.5-1.5,2.5c-0.4,2.1,1.1,4,3.2,4.4
	c2.1,0.4,4-1.1,4.4-3.2c0.2-1.1,0-2.1-0.6-2.9C370.7,42.2,369.9,41.5,368.8,41.3z M369.7,45.3c0,0.4-0.2,0.6-0.6,0.8
	c-0.2,0.2-0.6,0.2-0.8,0.2H368c-0.4,0-0.6-0.2-0.8-0.6c-0.2-0.2-0.2-0.6-0.2-1.1c0.2-0.8,0.8-1.3,1.7-1.3
	C369.3,43.8,369.7,44.7,369.7,45.3z"/>
<path class="st1" d="M362.7,54.4c-0.4,2.1,1.1,4,3.2,4.4c1.1,0.2,2.1,0,2.9-0.6s1.5-1.5,1.5-2.5c0.4-2.1-1.1-4-3.2-4.4
	c-1.1-0.2-2.1,0-2.9,0.6C363.6,52.5,362.9,53.3,362.7,54.4z M365.3,54.8c0.2-0.8,0.8-1.3,1.7-1.3c0.8,0.2,1.3,0.8,1.3,1.7
	c-0.2,0.6-0.6,1.3-1.5,1.3h-0.2C365.7,56.3,365,55.6,365.3,54.8z"/>
<path class="st2" d="M663.1,58.6l62.1-5.3c0.6,0,1.1-0.6,1.1-1.3l-3.2-38.8c0-0.6-0.6-1.1-1.3-1.1l-62.1,5.3c-0.6,0-1.1,0.6-1.1,1.3
	l3.2,38.8C661.8,58.2,662.4,58.6,663.1,58.6z M661,19.8l59.8-5.1l2.9,36.4l-59.8,5.1L661,19.8z"/>
<path class="st1" d="M686.4,42.4c0.4,0.2,0.6,0.2,1.1,0.2s0.6-0.2,0.8-0.2l12.2-7.4c0.6-0.4,1.1-1.1,0.8-1.9c0-0.6-0.4-1.3-1.3-1.7
	l-13.3-5.3c-0.6-0.2-1.3-0.2-1.9,0.2c-0.4,0.4-0.8,1.1-0.8,1.7l1.1,12.6C685.4,41.5,685.8,42.2,686.4,42.4z M686.6,28.7l12,4.8
	l-11,6.7L686.6,28.7z"/>
<path class="st2" d="M716.8,46l-40.9,3.4c-0.6-1.1-1.7-1.9-2.9-1.7c-1.3,0.2-2.3,1.1-2.7,2.1H670c-0.6,0-1.1,0.6-1.1,1.3
	s0.6,1.1,1.3,1.1h0.2c0.6,1.1,1.7,1.9,2.9,1.7c1.3-0.2,2.3-1.1,2.7-2.1l40.9-3.4c0.6,0,1.1-0.6,1.1-1.3
	C718,46.4,717.6,45.7,716.8,46z M673.2,51.4c-0.4,0-0.8-0.2-0.8-0.6s0.2-0.8,0.6-0.8c0.4,0,0.8,0.2,0.8,0.6
	C674,51,673.8,51.4,673.2,51.4z"/>
<path class="st2" d="M119.9,17.3c-0.2,0-0.4,0-0.6,0c-0.8,0.2-1.7,0.8-2.3,2.1l0,0c0,0,0,0-0.2,0.2c-2.3,2.9-10.5,12.6-20,15
	l-7.2,1.9l0,0c-2.3,0.6-4.2,2.1-5.5,4c-1.3,2.1-1.7,4.6-1.1,7c0.6,2.3,2.1,4.4,4.2,5.7s4.6,1.7,7,1.1l3.2-0.8l5.9,12.2
	c0.8,1.7,2.5,2.5,4.2,2.5c0.6,0,1.5-0.2,2.1-0.4c2.3-1.1,3.4-4,2.1-6.3l-4.6-9.7c8.6,0,17.5,4,19.2,4.8c1.1,0.8,2.1,1.1,2.9,0.8
	c1.9-0.4,3.2-3.2,3.4-7.6c0.2-4-0.4-8.8-1.7-14.1C128.5,27,124.3,17.3,119.9,17.3z M94,51.9h-0.4c-1.9,0.4-3.6,0.2-5.3-0.8
	c-1.5-1.1-2.7-2.5-3.2-4.2c-0.4-1.9-0.2-3.6,0.8-5.3c1.1-1.5,2.5-2.7,4.2-3.2l0.4-0.2L94,51.9z M116.3,31.8L116.3,31.8L116.3,31.8
	c0.4,2.5,0.8,4.8,1.3,7.2c0.6,2.3,1.3,4.8,2.1,7.2c0,0,0,0,0,0.2s0,0.2,0.2,0.4c0.8,2.5,1.9,4.6,2.9,6.3c-3.8-1.5-9.9-3.4-16-3.4
	c-1.9,0-4,0.2-5.9,0.6l-4.8,1.3l-3.2-13.3l4.4-1.1c7.8-1.9,15-8.6,18.5-12.6c0,0.2,0,0.4,0,0.8C115.9,27,116.1,29.3,116.3,31.8z
	 M122.4,37.9c0.6,2.9,0.2,5.1-0.8,6.1c-0.6-1.9-1.3-3.8-1.7-5.7c-0.4-1.9-0.8-3.8-1.1-5.7C120.1,33.3,121.6,35.2,122.4,37.9z
	 M124.5,37.5c-0.8-4-3.4-6.7-6.1-7c-0.2-2.1-0.2-3.8-0.2-5.5c0.2-3.6,0.8-5.3,1.7-5.5c0,0,0,0,0.2,0c1.5,0,5.7,5.7,8.4,16.8
	c1.3,5.1,1.7,9.7,1.7,13.5c-0.2,3.6-0.8,5.3-1.7,5.5c-0.2,0-0.4,0-0.6-0.2c0-0.2-0.2-0.2-0.4-0.2c0,0-0.2,0-0.2-0.2
	c-1.5-1.3-3.4-4.4-4.8-8.2C124.5,45.1,125.4,41.3,124.5,37.5z M106.6,56.3l-4.4,1.9l-2.7-5.5l2.1-0.4c0.8-0.2,1.9-0.4,2.9-0.4
	L106.6,56.3z M108.5,65.8c-0.6,0.2-1.3,0.4-1.9,0.2c-0.6-0.2-1.1-0.6-1.5-1.3l-2.1-4.2l4.4-1.9l2.1,4.2
	C110.2,63.6,109.8,65.1,108.5,65.8z"/>
<path class="st1" d="M144.3,33.9c0.2,0,0.6-0.2,0.6-0.4c0.2-0.2,0.2-0.6,0.2-0.8s-0.2-0.6-0.4-0.6c-0.2-0.2-0.6-0.2-0.8-0.2
	l-6.3,1.5c-0.2,0-0.6,0.2-0.6,0.4c-0.2,0.2-0.2,0.6-0.2,0.8c0.2,0.4,0.6,0.8,1.1,0.8l0,0h0.2L144.3,33.9z"/>
<path class="st1" d="M139.9,19.2c0-0.2,0-0.6-0.2-0.8c-0.2-0.2-0.4-0.4-0.8-0.4c-0.2,0-0.6,0-0.8,0.2l-5.7,4.8
	c-0.2,0.2-0.4,0.4-0.4,0.8c0,0.2,0,0.6,0.2,0.8c0.2,0.2,0.4,0.4,0.8,0.4l0,0c0.2,0,0.4,0,0.6-0.2l5.7-4.8
	C139.7,19.8,139.9,19.4,139.9,19.2z"/>
<path class="st1" d="M147.1,47c-0.2-0.2-0.4-0.4-0.6-0.4l-7-1.7c-0.2,0-0.6,0-0.8,0.2c-0.2,0.2-0.4,0.4-0.4,0.6c0,0.2,0,0.6,0.2,0.8
	c0.2,0.2,0.4,0.4,0.6,0.4l7,1.7h0.2h0.2l0,0c0.4,0,0.8-0.4,0.8-0.8C147.3,47.6,147.1,47.2,147.1,47z"/>
<path class="st2" d="M537.5,24.7c4,0,7.2-3.2,7.2-7.2s-3.2-7.2-7.2-7.2c-4,0-7.2,3.2-7.2,7.2S533.5,24.7,537.5,24.7z M533.1,17.5
	c0-2.5,2.1-4.4,4.4-4.4c2.5,0,4.4,2.1,4.4,4.4c0,2.5-2.1,4.4-4.4,4.4C535,22.2,533.1,20,533.1,17.5z"/>
<path class="st1" d="M551.6,29.9c4,0,7.2-3.2,7.2-7.2s-3.2-7.2-7.2-7.2c-4,0-7.2,3.2-7.2,7.2C544.7,26.8,547.9,29.9,551.6,29.9z
	 M547.2,22.8c0-2.5,2.1-4.4,4.4-4.4c2.5,0,4.4,2.1,4.4,4.4c0,2.5-2.1,4.4-4.4,4.4C549.3,27.4,547.2,25.3,547.2,22.8z"/>
<path class="st0" d="M559,28.7c-4,0-7.2,3.2-7.2,7.2S555,43,559,43c4,0,7.2-3.2,7.2-7.2C566.2,32.1,563,28.7,559,28.7z M563.7,35.8
	c0,2.5-2.1,4.4-4.4,4.4c-2.5,0-4.4-2.1-4.4-4.4c0-2.5,2.1-4.4,4.4-4.4C561.5,31.4,563.7,33.3,563.7,35.8z"/>
<path class="st2" d="M556.7,43.6c-4,0-7.2,3.2-7.2,7.2s3.2,7.2,7.2,7.2c4,0,7.2-3.2,7.2-7.2S560.7,43.6,556.7,43.6z M561.3,50.8
	c0,2.5-2.1,4.4-4.4,4.4c-2.5,0-4.4-2.1-4.4-4.4c0-2.5,2.1-4.4,4.4-4.4C559.2,46.2,561.3,48.3,561.3,50.8z"/>
<path class="st1" d="M545.1,53.5c-4,0-7.2,3.2-7.2,7.2c0,4,3.2,7.2,7.2,7.2s7.2-3.2,7.2-7.2C552.1,56.7,548.9,53.5,545.1,53.5z
	 M549.5,60.7c0,2.5-2.1,4.4-4.4,4.4c-2.5,0-4.4-2.1-4.4-4.4c0-2.5,2.1-4.4,4.4-4.4C547.4,56.1,549.5,58.2,549.5,60.7z"/>
<path class="st0" d="M530,53.3c-4,0-7.2,3.2-7.2,7.2s3.2,7.2,7.2,7.2c4,0,7.2-3.2,7.2-7.2C536.9,56.5,533.7,53.3,530,53.3z
	 M534.4,60.5c0,2.5-2.1,4.4-4.4,4.4c-2.5,0-4.4-2.1-4.4-4.4c0-2.5,2.1-4.4,4.4-4.4C532.3,56.1,534.4,58,534.4,60.5z"/>
<path class="st2" d="M525.3,50.8c0-4-3.2-7.2-7.2-7.2s-7.2,3.2-7.2,7.2s3.2,7.2,7.2,7.2S525.3,54.8,525.3,50.8z M522.8,50.8
	c0,2.5-2.1,4.4-4.4,4.4c-2.5,0-4.4-2.1-4.4-4.4c0-2.5,2.1-4.4,4.4-4.4C520.7,46.4,522.8,48.3,522.8,50.8z"/>
<path class="st1" d="M522.8,36.1c0-4-3.2-7.2-7.2-7.2c-4,0-7.2,3.2-7.2,7.2s3.2,7.2,7.2,7.2C519.6,43.2,522.8,40.1,522.8,36.1z
	 M520.1,36.1c0,2.5-2.1,4.4-4.4,4.4c-2.5,0-4.4-2.1-4.4-4.4c0-2.5,2.1-4.4,4.4-4.4C518.2,31.6,520.1,33.5,520.1,36.1z"/>
<path class="st0" d="M523.2,29.9c4,0,7.2-3.2,7.2-7.2s-3.2-7.2-7.2-7.2s-7.2,3.2-7.2,7.2S519.2,29.9,523.2,29.9z M518.6,22.8
	c0-2.5,2.1-4.4,4.4-4.4c2.5,0,4.4,2.1,4.4,4.4c0,2.5-2.1,4.4-4.4,4.4C520.7,27.4,518.6,25.3,518.6,22.8z"/>
<polygon class="st2" points="539.4,30.8 539.4,28.3 540.7,28.3 537.5,25.1 534.4,28.3 535.6,28.3 535.6,30.8 "/>
<polygon class="st1" points="544.5,34.2 546.2,32.3 547.2,33.3 547,28.7 542.6,28.9 543.4,29.7 541.7,31.6 "/>
<polygon class="st0" points="548.1,34.6 548.3,35.8 546,36.5 546.6,40.1 548.9,39.6 549.1,40.9 551.9,37.1 "/>
<polygon class="st2" points="550,47.2 548.9,42.8 548.3,43.8 546.2,42.6 544.1,45.5 546.2,47 545.3,48.1 "/>
<polygon class="st1" points="542.4,53.5 544.3,49.3 543,49.7 542.2,47.6 538.8,48.7 539.6,51 538.4,51.4 "/>
<polygon class="st0" points="533.1,31.6 531.6,29.9 532.5,28.9 527.8,28.7 527.8,33.3 528.9,32.5 530.6,34.2 "/>
<polygon class="st2" points="526.8,43.6 526,42.4 524.9,46.8 529.3,48.1 528.7,46.8 530.6,45.5 528.9,42.4 "/>
<polygon class="st1" points="526.6,34.6 523,37.3 525.7,40.9 526,39.6 528.3,39.8 528.9,36.3 526.4,35.8 "/>
<polygon class="st0" points="532.7,47.4 531.8,49.7 530.6,49.3 532.7,53.3 536.7,51.2 535.4,50.8 536.1,48.5 "/>
<path class="st2" d="M545.1,39.6c0-4.2-3.4-7.6-7.6-7.6c-4.2,0-7.6,3.4-7.6,7.6s3.4,7.6,7.6,7.6C541.7,47.2,545.1,43.8,545.1,39.6z
	 M542,39.6c0,2.3-1.9,4.4-4.4,4.4c-2.3,0-4.4-1.9-4.4-4.4c0-2.3,1.9-4.4,4.4-4.4C539.9,35.2,542,37.3,542,39.6z"/>
<polygon class="st2" points="5.3,66.6 5.3,23.6 3,23.6 3,68.9 62,68.9 62,66.6 "/>
<circle class="st0" cx="12.1" cy="59.9" r="2.3"/>
<circle class="st1" cx="21.1" cy="55.4" r="2.3"/>
<path class="st0" d="M20.1,48.5c1.9,0,3.4-1.5,3.4-3.4s-1.5-3.4-3.4-3.4s-3.4,1.5-3.4,3.4S18.2,48.5,20.1,48.5z M20.1,44.1
	c0.6,0,1.1,0.4,1.1,1.1s-0.4,1.1-1.1,1.1S19,45.7,19,45.1S19.4,44.1,20.1,44.1z"/>
<path class="st0" d="M32.5,55.4c2.5,0,4.6-2.1,4.6-4.6s-2.1-4.6-4.6-4.6s-4.6,2.1-4.6,4.6S30,55.4,32.5,55.4z M32.5,48.5
	c1.3,0,2.3,1.1,2.3,2.3s-1.1,2.3-2.3,2.3c-1.3,0-2.3-1.1-2.3-2.3S31.2,48.5,32.5,48.5z"/>
<circle class="st0" cx="34.8" cy="39.4" r="2.3"/>
<circle class="st0" cx="48.3" cy="25.9" r="2.3"/>
<path class="st0" d="M56.3,36.1c1.9,0,3.4-1.5,3.4-3.4c0-1.9-1.5-3.4-3.4-3.4s-3.4,1.5-3.4,3.4C52.9,34.6,54.4,36.1,56.3,36.1z
	 M56.3,31.6c0.6,0,1.1,0.4,1.1,1.1c0,0.6-0.4,1.1-1.1,1.1s-1.1-0.4-1.1-1.1C55.2,32.1,55.7,31.6,56.3,31.6z"/>
<path class="st1" d="M38.2,32.5c1.7,0,3.2-1.5,3.2-3.2s-1.5-3.2-3.2-3.2S35,27.6,35,29.3S36.5,32.5,38.2,32.5z M38.2,28.5
	c0.4,0,0.8,0.4,0.8,0.8s-0.4,0.8-0.8,0.8c-0.4,0-0.8-0.4-0.8-0.8S37.8,28.5,38.2,28.5z"/>
<path class="st1" d="M48.3,50.8c3.8,0,6.7-2.9,6.7-6.7c0-3.8-2.9-6.7-6.7-6.7c-3.8,0-6.7,2.9-6.7,6.7C41.5,47.8,44.5,50.8,48.3,50.8
	z M48.3,39.4c2.5,0,4.6,2.1,4.6,4.6s-2.1,4.6-4.6,4.6c-2.5,0-4.6-2.1-4.6-4.6C43.9,41.5,45.8,39.4,48.3,39.4z"/>
<path class="st2" d="M627.5,21.7c-2.3-2.5-5.3-4.2-8.2-5.3c-0.2,0-0.2-0.2-0.4-0.2c-0.2,0-0.2,0-0.4,0c-7.4-2.3-15.8-0.6-21.7,5.1
	c-0.2,0.4-0.2,1.1,0,1.3c0.2,0.2,0.4,0.4,0.6,0.4s0.6,0,0.8-0.2c3.6-3.4,8.4-5.5,13.3-5.5h0.2c1.7,0,3.6,0.2,5.3,0.6l-6.1,18.3
	L594,44.9c-1.1-2.3-1.7-5.1-1.7-7.8c0,0,0,0,0-0.2s-0.2-0.6-0.4-0.8c-0.2-0.2-0.4-0.2-0.8-0.2c-0.2,0-0.6,0.2-0.8,0.4
	c-0.2,0.2-0.2,0.4-0.2,0.8c0,9.3,6.1,17.5,15,20.4c2.3,0.6,4.6,1.1,6.7,1.1c3.2,0,6.5-0.8,9.5-2.1h0.2c0.2,0,0.4,0,0.6-0.2
	s0.4-0.2,0.4-0.4c1.7-0.8,3.2-2.1,4.4-3.4C635.5,44.1,635.7,30.4,627.5,21.7z M619.7,54.6c-2.3,1.1-5.1,1.7-7.8,1.7
	c-5.3,0-10.1-1.9-13.9-5.5c-1.3-1.3-2.3-2.5-3.2-4l16.6-8.4L619.7,54.6z M621.6,53.5l-8.6-17.1l5.9-17.9c2.3,0.8,4.4,2.3,6.3,4.2
	c3.8,3.6,5.9,8.6,5.9,13.7c0,5.3-1.9,10.1-5.5,13.9C624.5,51.6,623,52.7,621.6,53.5z"/>
<path class="st0" d="M612.5,35.6l-16.6-16.8c-0.4-0.4-1.1-0.4-1.5,0c-4.8,4.6-7.4,11-7.6,17.5c0,0.4,0.4,0.8,0.8,1.1
	c0.2,0,0.2,0,0.4,0l23.8,0.2l0,0c0.2,0,0.6-0.2,0.8-0.2C612.9,36.9,612.9,36.1,612.5,35.6z M609.1,35.4l-20-0.2
	c0.2-5.3,2.5-10.3,5.9-14.1L609.1,35.4z"/>
<g>
	<path class="st2" d="M885.5,23.4c-2.3,0-4.2,1.9-4.2,4.2c0,0.4,0,1.1,0.2,1.5c-0.2,0.2-0.2,0.2-0.4,0.4c-0.8,0.8-2.3,2.3-2.9,2.3
		c-0.6,0-1.7-1.1-2.3-1.7c-1.3-1.3-2.3-2.3-3.8-2.3c-1.7,0-2.5,2.3-4,7c-0.4,1.5-1.3,4-1.9,5.1c-0.6-1.5-1.1-5.5-1.7-8.4
		c-1.5-9.7-2.5-13.9-4.8-13.9c-2.3,0-3.2,4.6-4.8,16.4c-0.4,3.8-1.3,8.8-1.7,10.3c-0.6-0.4-1.5-1.7-1.9-2.5c-1.3-1.9-2.3-3.6-4-3.6
		s-2.3,2.5-4,10.1c-0.6,2.7-1.5,7-2.3,8.2c-0.6-0.8-1.5-2.9-2.1-4.2c-1.3-3.4-2.3-5.9-4-5.9c-1.5,0-2.7,1.3-3.8,2.3
		c-0.8,0.8-1.7,1.7-2.3,1.7v2.1c1.5,0,2.7-1.3,3.8-2.3c0.8-0.8,1.7-1.7,2.3-1.7c0.6,0.4,1.7,2.9,2.3,4.4c1.3,3.4,2.3,5.9,4,5.9
		s2.3-2.5,4-10.1c0.6-2.9,1.7-7.4,2.3-8.4c0.6,0.4,1.5,1.9,2.1,2.5c1.3,1.9,2.3,3.6,4,3.6s2.1-2.1,3.4-12.2
		c0.6-4.8,1.7-12.6,2.7-14.3c1.1,1.5,2.1,8,2.7,12c1.3,8,1.7,10.5,3.4,10.5s2.5-2.3,4-7c0.6-1.9,1.7-4.8,2.3-5.5
		c0.6,0.2,1.5,1.1,2.3,1.7c1.3,1.3,2.3,2.3,3.8,2.3s2.9-1.5,4.4-2.9l0.2-0.2c0.6,0.6,1.7,1.1,2.7,1.1c2.3,0,4.2-1.9,4.2-4.2
		S887.6,23.4,885.5,23.4z"/>
</g>
<circle class="st1" cx="885.7" cy="27.6" r="4.4"/>
<path class="st0" d="M252.2,20.8c-2,0-3.6,1.6-3.6,3.6c0,2,1.6,3.6,3.6,3.6c2,0,3.6-1.6,3.6-3.6C255.8,22.5,254.2,20.8,252.2,20.8z
	 M254,24.5c0,1-0.8,1.8-1.8,1.8c-1,0-1.8-0.8-1.8-1.8c0-1,0.8-1.8,1.8-1.8C253.2,22.7,254,23.5,254,24.5z"/>
<circle class="st1" cx="282.9" cy="23.3" r="0.9"/>
<circle class="st1" cx="279.8" cy="23.3" r="0.9"/>
<circle class="st1" cx="284.4" cy="25.6" r="0.9"/>
<circle class="st1" cx="281.3" cy="25.6" r="0.9"/>
<circle class="st1" cx="276.7" cy="23.3" r="0.9"/>
<circle class="st1" cx="278.2" cy="25.6" r="0.9"/>
<circle class="st1" cx="273.5" cy="23.3" r="0.9"/>
<circle class="st1" cx="275.1" cy="25.6" r="0.9"/>
<circle class="st1" cx="270.4" cy="23.3" r="0.9"/>
<circle class="st1" cx="272" cy="25.6" r="0.9"/>
<path class="st0" d="M252.2,42.9c2,0,3.6-1.6,3.6-3.6s-1.6-3.6-3.6-3.6c-2,0-3.6,1.6-3.6,3.6S250.2,42.9,252.2,42.9z M250.4,39.2
	c0-1,0.8-1.8,1.8-1.8c1,0,1.8,0.8,1.8,1.8s-0.8,1.8-1.8,1.8C251.2,41,250.4,40.2,250.4,39.2z"/>
<path class="st0" d="M252.2,57.6c2,0,3.6-1.6,3.6-3.6c0-2-1.6-3.6-3.6-3.6c-2,0-3.6,1.6-3.6,3.6C248.5,56,250.2,57.6,252.2,57.6z
	 M250.4,54c0-1,0.8-1.8,1.8-1.8c1,0,1.8,0.8,1.8,1.8s-0.8,1.8-1.8,1.8C251.2,55.8,250.4,55,250.4,54z"/>
<path class="st2" d="M290.7,35.4c-0.2-1.1-1.1-2-2.5-2.8c1.5-0.5,2.6-1.9,2.6-3.6v-9.2c0-2.1-1.7-3.7-3.7-3.7h-39.5
	c-2.1,0-3.7,1.7-3.7,3.7v9.2c0,1.1,0.5,2.1,1.3,2.8c-0.8,0.7-1.3,1.7-1.3,2.8v9.2c0,1.1,0.5,2.1,1.3,2.8c-0.8,0.7-1.3,1.7-1.3,2.8
	v9.2c0,2.1,1.7,3.7,3.7,3.7l21.6,0c2.1,0.4,4.4,0.6,6.6,0.6c9.3,0,14.2-2.7,14.8-5.2c0.1-0.1,0.1-0.3,0.1-0.4V35.7
	C290.8,35.6,290.8,35.5,290.7,35.4z M247.6,32.8h15.7c-1.2,0.8-2,1.6-2.2,2.6c-0.1,0.1-0.1,0.3-0.1,0.4v10h-13.4
	c-1,0-1.9-0.8-1.9-1.9v-9.2C245.7,33.6,246.6,32.8,247.6,32.8z M288.9,49.8C288.9,49.9,288.9,49.9,288.9,49.8c0,0.1,0,0.2,0,0.2
	c0,0.1,0,0.1,0,0.2c0,0.1,0,0.1-0.1,0.2c0,0,0,0.1-0.1,0.2c0,0,0,0.1-0.1,0.1l-0.1,0.1c0,0.1-0.1,0.1-0.1,0.2c0,0,0,0,0,0.1l0,0
	c-1.5,1.4-6,3-12.5,3c-6.5,0-11-1.5-12.5-3l0,0c0,0,0,0,0-0.1c-0.1-0.1-0.1-0.1-0.2-0.2c0-0.1-0.1-0.1-0.1-0.2c0,0-0.1-0.1-0.1-0.1
	c0-0.1,0-0.1-0.1-0.2l0,0c0,0,0-0.1,0-0.1V50c0,0,0,0,0,0c0,0,0,0,0,0c0,0,0-0.1,0-0.1c0,0,0,0,0,0l0-3.7c0,0,0,0,0,0
	c0.1,0,0.1,0.1,0.2,0.1l0.1,0.1c0.1,0,0.1,0.1,0.2,0.1c0.1,0.1,0.3,0.2,0.4,0.3l0,0c1.6,0.8,3.7,1.5,6.3,1.9l0,0
	c0.8,0.1,1.6,0.2,2.4,0.3l0.5,0c0.2,0,0.4,0,0.5,0c0.2,0,0.5,0,0.7,0c0.1,0,0.1,0,0.2,0c0.1,0,0.1,0,0.2,0c0.7,0,1.5,0,2.3,0
	c0.1,0,0.1,0,0.2,0c0.1,0,0.1,0,0.2,0c0.1,0,0.2,0,0.4,0c0.1,0,0.2,0,0.3,0c0.1,0,0.2,0,0.3,0c0.1,0,0.2,0,0.3,0c0.2,0,0.3,0,0.5,0
	c0.8-0.1,1.6-0.2,2.5-0.3c0,0,0,0,0.1,0c2.9-0.4,5.2-1.2,6.8-2.2c0.1,0,0.2-0.1,0.2-0.1l0.1-0.1c0,0,0.1-0.1,0.1-0.1v3.6
	C288.9,49.7,288.9,49.8,288.9,49.8z M270.1,48.3L270.1,48.3L270.1,48.3L270.1,48.3z M270.1,55.3L270.1,55.3L270.1,55.3L270.1,55.3z
	 M288.9,42.9c0,0,0,0.1,0,0.1l0,0.1c0,0.1,0,0.1,0,0.2c0,0.1,0,0.1,0,0.1l0,0c0,0.1,0,0.1-0.1,0.2c0,0,0,0.1-0.1,0.1l-0.1,0.1
	c0,0.1-0.1,0.1-0.1,0.2c0,0,0,0-0.1,0.1l0,0c-1.5,1.4-6,3-12.5,3c-6.5,0-11-1.5-12.5-3c0,0,0,0,0,0c0,0,0,0,0-0.1
	c-0.1-0.1-0.1-0.1-0.2-0.2c0-0.1-0.1-0.1-0.1-0.2c0,0-0.1-0.1-0.1-0.1c0-0.1,0-0.1-0.1-0.2c0-0.1,0-0.2,0-0.2c0,0,0-0.1,0-0.1
	c0-0.1,0-0.2,0-0.2l0-3.7c0.1,0.1,0.2,0.1,0.3,0.2l0.1,0.1c0.1,0.1,0.3,0.2,0.4,0.2l0.2,0.1c0.2,0.1,0.3,0.2,0.5,0.2l0.1,0
	c0.2,0.1,0.4,0.2,0.5,0.2c0.1,0,0.1,0.1,0.2,0.1c0.2,0.1,0.4,0.2,0.7,0.2c0,0,0,0,0.1,0c0.2,0.1,0.5,0.2,0.7,0.2c0,0,0.1,0,0.1,0
	c0,0,0.1,0,0.1,0l0.2,0.1c0.2,0,0.3,0.1,0.4,0.1c0,0,0,0,0.1,0c0.3,0.1,0.5,0.1,0.8,0.2l0.4,0.1c0.1,0,0.3,0.1,0.5,0.1
	c0,0,0.1,0,0.1,0c0.3,0,0.5,0.1,0.8,0.1c0,0,0.1,0,0.1,0c0,0,0.1,0,0.1,0c0.1,0,0.2,0,0.3,0c0.1,0,0.2,0,0.4,0.1l0.2,0
	c0.3,0,0.6,0.1,0.8,0.1c0,0,0.1,0,0.1,0c0,0,0,0,0.1,0l0.1,0c0.2,0,0.4,0,0.7,0.1c0,0,0.1,0,0.1,0c0,0,0.1,0,0.1,0
	c0.3,0,0.6,0,0.9,0.1c0,0,0.1,0,0.1,0c0.3,0,0.5,0,0.8,0c0,0,0.1,0,0.1,0c0,0,0.1,0,0.1,0h0c0.4,0,0.9,0,1.3,0c0.2,0,0.5,0,0.7,0
	c0.3,0,0.5,0,0.8,0c0,0,0.1,0,0.1,0c0.3,0,0.6,0,0.9-0.1c0,0,0.1,0,0.1,0c0,0,0.1,0,0.1,0c0.2,0,0.4,0,0.7-0.1l0.1,0c0,0,0,0,0.1,0
	c0,0,0.1,0,0.1,0l1-0.1c0.2,0,0.5-0.1,0.7-0.1c0,0,0.1,0,0.1,0c0,0,0.1,0,0.1,0c0.3,0,0.5-0.1,0.8-0.1c0,0,0.1,0,0.1,0l0.2,0
	c0.2,0,0.3-0.1,0.5-0.1l0.2,0c0.3-0.1,0.5-0.1,0.8-0.2l0,0c0.2-0.1,0.5-0.1,0.7-0.2c0,0,0.1,0,0.1,0c0,0,0.1,0,0.1,0l0.1,0
	c0.2-0.1,0.4-0.1,0.5-0.2l0,0c0.1,0,0.3-0.1,0.4-0.1c0.1,0,0.2-0.1,0.3-0.1c0,0,0.1,0,0.2-0.1c0.2-0.1,0.4-0.1,0.5-0.2l0.1,0
	c0.2-0.1,0.4-0.2,0.6-0.3c0,0,0.1,0,0.1-0.1l0.1-0.1c0.1-0.1,0.2-0.1,0.3-0.2l0.1-0.1c0.1-0.1,0.2-0.1,0.3-0.2l0,3.6
	C288.9,42.7,288.9,42.7,288.9,42.9z M285.3,38.7c-2.6,0.9-5.9,1.3-9.4,1.3c-7.4,0-13.1-2.2-13.1-4c0-0.1,0-0.2,0-0.3
	c0-0.1,0.1-0.2,0.1-0.3l0,0v0c0.3-0.4,0.8-0.8,1.5-1.3l0.1-0.1c0.1-0.1,0.3-0.1,0.4-0.2c0.2-0.1,0.4-0.2,0.6-0.2l0.1,0
	c0.9-0.4,2-0.7,3.2-0.9c0.4-0.1,0.8-0.2,1.2-0.2c0.1,0,0.1,0,0.2,0c0.1,0,0.1,0,0.2,0c3.5-0.5,7.5-0.5,11,0c0.1,0,0.1,0,0.2,0
	c0.1,0,0.1,0,0.2,0c0.4,0.1,0.7,0.1,1.2,0.2c3.6,0.8,6.1,2.1,6.1,3.3C288.9,36.9,287.6,37.9,285.3,38.7z M288.9,29.1
	c0,1-0.8,1.9-1.9,1.9l-3.6,0l-0.1,0c-0.6-0.1-1.1-0.2-1.6-0.3l-0.2,0c-1.8-0.3-3.8-0.4-5.7-0.4c-1.9,0-3.9,0.2-5.7,0.4l-0.2,0
	c-0.5,0.1-1,0.2-1.6,0.3l-0.1,0h-20.7c-1,0-1.9-0.8-1.9-1.9v-9.2c0-1,0.8-1.9,1.9-1.9h39.5c1,0,1.9,0.8,1.9,1.9V29.1z M245.7,49.4
	c0-1,0.8-1.9,1.9-1.9H261v9.8l0,0.9h0.3c0,0.1,0.1,0.1,0.1,0.2c0.1,0.1,0.1,0.2,0.2,0.4c0.1,0.1,0.2,0.2,0.3,0.3
	c0,0.1,0.1,0.1,0.2,0.2c0.3,0.3,0.7,0.6,1.1,0.9l0,0c0.1,0.1,0.3,0.2,0.5,0.3h-15.8l-0.1,0c-1,0-1.9-0.8-1.9-1.9V49.4z M262.8,53
	C262.8,53,262.8,53,262.8,53c0.1,0,0.1,0.1,0.2,0.1l0.1,0.1c0.1,0,0.1,0.1,0.2,0.1c0.1,0.1,0.3,0.2,0.4,0.2l0,0
	c1.6,0.8,3.7,1.5,6.3,1.9l0,0c0.8,0.1,1.6,0.2,2.4,0.3l0.5,0c0.2,0,0.3,0,0.5,0c0.2,0,0.5,0,0.7,0c0.1,0,0.1,0,0.2,0
	c0.1,0,0.1,0,0.2,0c0.7,0,1.5,0,2.3,0c0.1,0,0.1,0,0.2,0c0.1,0,0.1,0,0.2,0c0.1,0,0.2,0,0.3,0c0.1,0,0.2,0,0.4,0c0.1,0,0.2,0,0.3,0
	c0.1,0,0.2,0,0.3,0c0.2,0,0.3,0,0.5,0c0.8-0.1,1.6-0.2,2.5-0.3c0,0,0,0,0.1,0c2.9-0.4,5.2-1.2,6.8-2.2c0.1,0,0.2-0.1,0.2-0.1
	l0.1-0.1c0,0,0.1-0.1,0.1-0.1v4.1l0,0c0,0,0,0,0,0.1c-0.4,2.3-7.2,3.9-13,3.9c-2.2,0-4.3-0.2-6.3-0.5l-0.1,0c-4-0.8-6-2-6.5-2.9
	c0,0,0,0,0-0.1l0,0c0-0.1-0.1-0.2-0.1-0.2L262.8,53z"/>
<g>
	<path class="st2" d="M800.6,31.8c-0.1-0.7-0.4-1.3-0.9-1.8l-10.5-8.7c-0.7-0.6-1.7-0.8-2.6-0.4c-0.4,0.2-0.8,0.4-1.1,0.8l-17.4,21
		c-0.4,0.5-0.7,1.2-0.6,1.9c0.1,0.7,0.4,1.3,0.9,1.8l10.5,8.7c0.5,0.4,1.1,0.6,1.7,0.6c0.3,0,0.6-0.1,0.9-0.2
		c0.4-0.2,0.8-0.4,1.1-0.8l17.4-21C800.4,33.2,800.6,32.5,800.6,31.8z M798.3,32.3l-17.4,21c-0.1,0.1-0.1,0.1-0.2,0.1
		c-0.1,0.1-0.3,0-0.4-0.1l-10.5-8.7c-0.2-0.2-0.2-0.4-0.1-0.6l17.4-21c0-0.1,0.1-0.1,0.2-0.1c0.1,0,0.1,0,0.2,0c0.1,0,0.2,0,0.3,0.1
		l10.5,8.7C798.4,31.9,798.5,32.2,798.3,32.3z"/>
	<path class="st0" d="M788.3,34.2l-3.5,0.7c-0.1,0-0.2,0-0.2-0.1l-2-2.9c-0.2-0.2-0.5-0.3-0.7-0.2c-0.1,0-0.2,0.1-0.3,0.2
		c-0.1,0.1-0.1,0.2-0.1,0.3l-0.4,3.5c0,0,0,0.1-0.1,0.1c0,0-0.1,0.1-0.1,0.1l-3.4,1c-0.1,0-0.2,0.1-0.2,0.2
		c-0.1,0.1-0.2,0.3-0.1,0.5c0,0.2,0.1,0.3,0.3,0.4l3.2,1.4c0.1,0,0.1,0.1,0.1,0.2l-0.1,3.6c0,0.2,0.1,0.4,0.3,0.5
		c0.1,0.1,0.2,0.1,0.3,0.1c0.1,0,0.1,0,0.2,0c0.1,0,0.1-0.1,0.2-0.1l2.3-2.6c0,0,0.1,0,0.1-0.1c0,0,0.1,0,0.1,0l3.4,1.2
		c0.1,0,0.2,0,0.4,0c0.1,0,0.2-0.1,0.3-0.2c0.2-0.2,0.2-0.4,0.1-0.7l-1.8-3c0-0.1,0-0.2,0-0.2l2.2-2.8c0.1-0.2,0.1-0.5,0-0.7
		C788.8,34.3,788.6,34.2,788.3,34.2z"/>
	<path class="st2" d="M806.1,31c-0.7-0.6-1.1-1.3-1.2-2.2c-0.1-0.9,0.2-1.7,0.7-2.4c0.4-0.5,0.6-1.1,0.5-1.7s-0.4-1.2-0.8-1.6
		l-4.3-3.6l-4.1-7.6c-0.4-0.7-1.2-1.2-2-1.2c-0.4,0-0.8,0.1-1.2,0.3c-0.5,0.3-1.1,0.4-1.6,0.4c-1.2,0-2.2-0.7-2.8-1.7
		c-0.4-0.7-1.2-1.2-2-1.2c-0.4,0-0.8,0.1-1.2,0.3l-30.6,16.5c-1.1,0.6-1.6,2-0.9,3.2c0.4,0.8,0.5,1.6,0.3,2.5
		c-0.3,0.8-0.8,1.5-1.6,1.9c-0.5,0.3-0.9,0.8-1.1,1.4c-0.2,0.6-0.1,1.2,0.2,1.8l6.5,12c0.4,0.7,1.2,1.2,2,1.2c0.4,0,0.8-0.1,1.2-0.3
		c0.3-0.2,0.7-0.3,1.1-0.4c-0.1,0.5-0.3,1-0.7,1.4c-0.8,1-0.7,2.5,0.3,3.3l10.5,8.7c0.4,0.3,1,0.5,1.5,0.5c0.3,0,0.5,0,0.8-0.1
		c0.4-0.1,0.7-0.4,1-0.7c0.4-0.4,0.8-0.8,1.4-1c1.1-0.4,2.3-0.2,3.2,0.5c0.6,0.5,1.5,0.7,2.3,0.4c0.4-0.1,0.7-0.4,1-0.7l22.1-26.7
		C807.2,33.2,807.1,31.8,806.1,31z M782.4,59.5c-1.5-1.2-3.5-1.6-5.3-0.9c-0.9,0.3-1.7,0.9-2.3,1.6c-0.1,0.1-0.1,0.1-0.2,0
		l-10.5-8.7c-0.1-0.1-0.1-0.1,0-0.2c0.9-1.1,1.4-2.5,1.2-4c-0.1-1.4-0.8-2.7-1.9-3.7c0,0,0-0.1-0.1-0.1c0,0,0-0.1,0-0.1l22.1-26.7
		c0,0,0.1,0,0.1-0.1c0,0,0,0,0,0c0,0,0.1,0,0.1,0c1.5,1.2,3.5,1.6,5.3,0.9c0.9-0.3,1.7-0.9,2.3-1.6c0,0,0.1,0,0.1-0.1
		c0,0,0.1,0,0.1,0l10.5,8.7c0.1,0.1,0.1,0.1,0,0.2c-0.9,1.1-1.4,2.5-1.2,4c0.1,1.4,0.8,2.7,1.9,3.7c0,0,0,0.1,0.1,0.1s0,0.1,0,0.1
		l-22.1,26.7C782.6,59.6,782.5,59.6,782.4,59.5z M756.5,27.4c0,0,0-0.1,0-0.1c0,0,0-0.1,0.1-0.1l30.6-16.5c0,0,0.1,0,0.1,0
		c0,0,0.1,0,0.1,0.1c0.9,1.7,2.7,2.8,4.6,2.9c1,0,1.9-0.2,2.7-0.6c0,0,0.1,0,0.1,0c0,0,0.1,0,0.1,0.1l1.5,2.8l-1.7-1.4
		c-0.6-0.5-1.5-0.7-2.3-0.4c-0.4,0.1-0.7,0.4-1,0.7c-0.4,0.4-0.8,0.8-1.4,1c-1.1,0.4-2.3,0.2-3.2-0.5c-0.6-0.5-1.5-0.7-2.3-0.4
		c-0.4,0.1-0.7,0.4-1,0.7l-0.8,1l-21.6,11.6c-0.6,0.3-1.1,0.9-1.3,1.6c-0.2,0.7-0.1,1.4,0.2,2l4,7.4l-2.6,3.1
		c-0.8,1-0.7,2.5,0.3,3.3c0.3,0.3,0.6,0.6,0.8,1c-0.7,0.1-1.3,0.3-1.8,0.6c-0.1,0-0.2,0-0.2-0.1l-6.5-12c0-0.1,0-0.2,0.1-0.2
		c1.3-0.7,2.2-1.8,2.6-3.2C757.4,30.1,757.2,28.6,756.5,27.4z M779.2,21l-13.5,16.3l-3.6-6.6c-0.1-0.2,0-0.5,0.2-0.6L779.2,21z"/>
</g>
</svg>
