<?xml version="1.0" encoding="utf-8"?>
<!-- Generator: Adobe Illustrator 19.2.1, SVG Export Plug-In . SVG Version: 6.00 Build 0)  -->
<svg version="1.1" id="Layer_1" xmlns="http://www.w3.org/2000/svg" xmlns:xlink="http://www.w3.org/1999/xlink" x="0px" y="0px"
	 viewBox="0 0 428.5 34.4" style="enable-background:new 0 0 428.5 34.4;" xml:space="preserve">
<style type="text/css">
	.st0{fill:#FEAC09;}
	.st1{fill:#259DFF;}
	.st2{fill:#555555;}
</style>
<path class="st0" d="M120.2,9.9c-1,0-1.8,0.8-1.8,1.8s0.8,1.8,1.8,1.8s1.8-0.8,1.8-1.8S121.2,9.9,120.2,9.9z M121.1,11.7
	c0,0.5-0.4,0.9-0.9,0.9s-0.9-0.4-0.9-0.9s0.4-0.9,0.9-0.9C120.7,10.8,121.1,11.2,121.1,11.7z"/>
<circle class="st1" cx="135.4" cy="11.2" r="0.5"/>
<circle class="st1" cx="133.8" cy="11.2" r="0.5"/>
<circle class="st1" cx="136.1" cy="12.3" r="0.5"/>
<circle class="st1" cx="134.6" cy="12.3" r="0.5"/>
<circle class="st1" cx="132.3" cy="11.2" r="0.5"/>
<circle class="st1" cx="133.1" cy="12.3" r="0.5"/>
<circle class="st1" cx="130.8" cy="11.2" r="0.5"/>
<circle class="st1" cx="131.5" cy="12.3" r="0.5"/>
<circle class="st1" cx="129.2" cy="11.2" r="0.5"/>
<circle class="st1" cx="130" cy="12.3" r="0.5"/>
<path class="st0" d="M120.2,20.8c1,0,1.8-0.8,1.8-1.8s-0.8-1.8-1.8-1.8s-1.8,0.8-1.8,1.8S119.3,20.8,120.2,20.8z M119.4,19
	c0-0.5,0.4-0.9,0.9-0.9s0.9,0.4,0.9,0.9s-0.4,0.9-0.9,0.9C119.8,19.9,119.4,19.5,119.4,19z"/>
<path class="st0" d="M120.2,28.1c1,0,1.8-0.8,1.8-1.8s-0.8-1.8-1.8-1.8s-1.8,0.8-1.8,1.8C118.4,27.3,119.3,28.1,120.2,28.1z
	 M119.4,26.3c0-0.5,0.4-0.9,0.9-0.9s0.9,0.4,0.9,0.9s-0.4,0.9-0.9,0.9C119.8,27.2,119.4,26.8,119.4,26.3z"/>
<path class="st2" d="M139.2,17.1c-0.1-0.5-0.5-1-1.2-1.4c0.7-0.2,1.3-0.9,1.3-1.7V9.5c0-1-0.8-1.8-1.8-1.8H118c-1,0-1.8,0.8-1.8,1.8
	V14c0,0.5,0.2,1,0.6,1.4c-0.4,0.3-0.6,0.8-0.6,1.4v4.5c0,0.5,0.2,1,0.6,1.4c-0.4,0.3-0.6,0.8-0.6,1.4v4.5c0,1,0.8,1.8,1.8,1.8h10.7
	c1,0.2,2.2,0.3,3.3,0.3c4.6,0,7-1.3,7.3-2.5c0-0.1,0.1-0.1,0.1-0.2V17.3C139.3,17.2,139.2,17.2,139.2,17.1z M118,15.8h7.7
	c-0.6,0.4-1,0.8-1.1,1.3c0,0.1,0,0.1,0,0.2v4.9H118c-0.5,0-0.9-0.4-0.9-0.9v-4.5C117.1,16.2,117.5,15.8,118,15.8z M138.3,24.2
	C138.3,24.2,138.3,24.3,138.3,24.2C138.3,24.3,138.3,24.3,138.3,24.2c0,0.1,0,0.2,0,0.2v0.1c0,0,0,0,0,0.1c0,0,0,0,0,0.1l0,0
	c0,0,0,0.1-0.1,0.1l0,0l0,0c-0.7,0.7-3,1.5-6.2,1.5s-5.4-0.8-6.2-1.5l0,0l0,0l-0.1-0.1c0,0,0-0.1-0.1-0.1c0,0,0,0,0-0.1v-0.1l0,0
	c0,0,0,0,0-0.1l0,0l0,0l0,0c0,0,0,0,0-0.1l0,0v-1.8l0,0c0,0,0.1,0,0.1,0.1l0,0c0,0,0.1,0,0.1,0.1c0.1,0,0.1,0.1,0.2,0.1l0,0
	c0.8,0.4,1.8,0.7,3.1,0.9l0,0c0.4,0.1,0.8,0.1,1.2,0.1h0.3c0.1,0,0.2,0,0.3,0s0.2,0,0.3,0h0.1h0.1c0.4,0,0.7,0,1.1,0h0.1h0.1
	c0.1,0,0.1,0,0.2,0c0.1,0,0.1,0,0.2,0h0.1h0.1c0.1,0,0.2,0,0.3,0c0.4,0,0.8-0.1,1.2-0.1l0,0c1.4-0.2,2.6-0.6,3.3-1.1
	c0,0,0.1,0,0.1-0.1h0.1c0,0,0,0,0.1,0v1.8C138.3,24.1,138.3,24.2,138.3,24.2z M129.1,23.5L129.1,23.5L129.1,23.5L129.1,23.5z
	 M129.1,26.9L129.1,26.9L129.1,26.9L129.1,26.9z M138.3,20.8L138.3,20.8L138.3,20.8c0,0.1,0,0.2,0,0.2s0,0,0,0.1l0,0c0,0,0,0,0,0.1
	c0,0,0,0,0,0.1l0,0c0,0,0,0.1-0.1,0.1l0,0l0,0c-0.7,0.7-3,1.5-6.2,1.5s-5.4-0.8-6.2-1.5l0,0l0,0l-0.1-0.1c0,0,0-0.1-0.1-0.1
	c0,0,0,0,0-0.1V21v-0.1c0,0,0,0,0-0.1v-0.1v-1.8l0.1,0.1h0.1c0.1,0,0.1,0.1,0.2,0.1l0.1,0.1c0.1,0,0.2,0.1,0.2,0.1l0,0
	c0.1,0,0.2,0.1,0.3,0.1h0.1c0.1,0,0.2,0.1,0.3,0.1l0,0c0.1,0,0.2,0.1,0.3,0.1l0,0l0,0h0.1c0.1,0,0.2,0,0.2,0.1l0,0
	c0.1,0,0.3,0.1,0.4,0.1h0.2c0.1,0,0.1,0,0.2,0c0,0,0,0,0.1,0s0.3,0,0.4,0.1l0,0c0,0,0,0,0.1,0s0.1,0,0.2,0c0.1,0,0.1,0,0.2,0h0.1
	c0.1,0,0.3,0,0.4,0l0,0l0,0l0,0c0.1,0,0.2,0,0.3,0c0,0,0,0,0.1,0c0,0,0,0,0.1,0s0.3,0,0.4,0c0,0,0,0,0.1,0s0.3,0,0.4,0
	c0,0,0,0,0.1,0c0,0,0,0,0.1,0l0,0c0.2,0,0.4,0,0.6,0c0.1,0,0.2,0,0.3,0s0.3,0,0.4,0c0,0,0,0,0.1,0s0.3,0,0.4,0l0,0c0,0,0,0,0.1,0
	s0.2,0,0.3,0l0,0l0,0l0,0l0.5-0.1c0.1,0,0.2,0,0.3,0c0,0,0,0,0.1,0c0,0,0,0,0.1,0s0.3,0,0.4-0.1c0,0,0,0,0.1,0h0.1
	c0.1,0,0.2,0,0.2,0h0.1c0.1,0,0.3-0.1,0.4-0.1l0,0c0.1,0,0.2-0.1,0.3-0.1l0,0l0,0h0.1c0.1,0,0.2-0.1,0.3-0.1l0,0
	c0.1,0,0.1,0,0.2-0.1c0,0,0.1,0,0.1-0.1c0,0,0,0,0.1,0s0.2-0.1,0.3-0.1l0,0c0.1,0,0.2-0.1,0.3-0.1c0,0,0,0,0.1,0h0.1l0.1-0.1h0.1
	l0.1-0.1v1.8C138.3,20.7,138.3,20.7,138.3,20.8z M136.5,18.7c-1.3,0.4-2.9,0.7-4.6,0.7c-3.6,0-6.4-1.1-6.4-2v-0.1
	c0-0.1,0-0.1,0.1-0.1l0,0l0,0c0.1-0.2,0.4-0.4,0.7-0.6h0.1c0.1,0,0.1-0.1,0.2-0.1c0.1,0,0.2-0.1,0.3-0.1h0.1c0.4-0.2,1-0.3,1.6-0.5
	c0.2,0,0.4-0.1,0.6-0.1h0.1c0,0,0,0,0.1,0c1.7-0.3,3.7-0.3,5.4,0h0.1h0.1c0.2,0,0.4,0.1,0.6,0.1c1.8,0.4,3,1,3,1.6
	C138.3,17.9,137.7,18.4,136.5,18.7z M138.3,14c0,0.5-0.4,0.9-0.9,0.9h-1.8h-0.1c-0.3-0.1-0.5-0.1-0.8-0.1h-0.1
	c-0.9-0.1-1.9-0.2-2.8-0.2s-1.9,0.1-2.8,0.2h-0.1c-0.2,0-0.5,0.1-0.8,0.1H128h-10c-0.5,0-0.9-0.4-0.9-0.9V9.5c0-0.5,0.4-0.9,0.9-0.9
	h19.4c0.5,0,0.9,0.4,0.9,0.9L138.3,14L138.3,14z M117.1,24c0-0.5,0.4-0.9,0.9-0.9h6.6v4.8v0.5h0.1v0.1c0,0.1,0.1,0.1,0.1,0.2
	s0.1,0.1,0.1,0.2c0,0,0,0.1,0.1,0.1c0.1,0.2,0.3,0.3,0.5,0.4l0,0c0.1,0,0.1,0.1,0.2,0.1h-7.8h-0.1c-0.5,0-0.9-0.4-0.9-0.9V24H117.1z
	 M125.5,25.8L125.5,25.8L125.5,25.8l0.1,0.1c0,0,0.1,0,0.1,0.1c0.1,0,0.1,0.1,0.2,0.1l0,0c0.8,0.4,1.8,0.7,3.1,0.9l0,0
	c0.4,0.1,0.8,0.1,1.2,0.1h0.3c0.1,0,0.2,0,0.3,0s0.2,0,0.3,0h0.1h0.1c0.4,0,0.7,0,1.1,0h0.1h0.1c0.1,0,0.1,0,0.2,0
	c0.1,0,0.1,0,0.2,0h0.1h0.1c0.1,0,0.2,0,0.3,0c0.4,0,0.8-0.1,1.2-0.1l0,0c1.4-0.2,2.6-0.6,3.3-1.1c0,0,0.1,0,0.1-0.1h0.1
	c0,0,0,0,0.1,0v2l0,0l0,0c-0.2,1.1-3.5,1.9-6.4,1.9c-1.1,0-2.1-0.1-3.1-0.3h-0.1c-2-0.4-2.9-1-3.2-1.4l0,0l0,0v-0.1L125.5,25.8z"/>
<path class="st0" d="M92.9,10.9C93,10.9,93,10.9,92.9,10.9c0.2,0,0.4-0.1,0.5-0.3c0.1-0.1,0.2-0.3,0.1-0.5l-0.1-3.9
	c0-0.4-0.3-0.7-0.7-0.7S92,5.8,92,6.2l0.1,3.9C92.3,10.7,92.6,10.9,92.9,10.9z"/>
<path class="st1" d="M99,9.4L99,9.4c0.2,0,0.4-0.1,0.5-0.2c0.1-0.1,0.2-0.3,0.2-0.5s-0.1-0.4-0.2-0.5l0,0c-0.3-0.2-0.7-0.2-0.9,0
	l0,0c-0.1,0.1-0.2,0.3-0.2,0.5s0.1,0.4,0.2,0.5C98.6,9.3,98.8,9.4,99,9.4z"/>
<path class="st1" d="M97.2,10.6c0.1,0.1,0.3,0.2,0.5,0.2l0,0c0.2,0,0.4-0.1,0.5-0.2c0.1-0.1,0.2-0.3,0.2-0.5s-0.1-0.3-0.2-0.5
	c-0.1-0.1-0.3-0.2-0.5-0.2s-0.4,0.1-0.5,0.2C97.1,9.7,97,9.9,97,10.1C96.9,10.3,97,10.5,97.2,10.6z"/>
<path class="st0" d="M96.8,14.5c-0.1,0.1-0.2,0.3-0.2,0.5s0.1,0.4,0.2,0.5c0.1,0.1,0.3,0.2,0.5,0.2l0,0l3.9-0.1
	c0.2,0,0.4-0.1,0.5-0.2c0.1-0.1,0.2-0.3,0.2-0.5s-0.1-0.4-0.2-0.5c-0.1-0.1-0.3-0.2-0.5-0.2l-3.9,0.1C97.1,14.3,96.9,14.4,96.8,14.5
	z"/>
<path class="st1" d="M96.3,12.2L96.3,12.2c0.2,0,0.4-0.1,0.5-0.3c0.1-0.1,0.2-0.3,0.2-0.5s-0.1-0.4-0.2-0.5
	c-0.1-0.1-0.3-0.2-0.5-0.2s-0.3,0.1-0.4,0.2c-0.1,0.1-0.2,0.3-0.2,0.5s0.1,0.4,0.2,0.5C96,12.1,96.1,12.2,96.3,12.2z"/>
<path class="st0" d="M85,16L85,16l3.9-0.1c0.4,0,0.7-0.3,0.7-0.7c0-0.2-0.1-0.4-0.2-0.5c-0.1-0.1-0.3-0.2-0.5-0.2L85,14.6
	c-0.2,0-0.4,0.1-0.5,0.2c-0.1,0.1-0.2,0.3-0.2,0.5s0.1,0.4,0.2,0.5C84.7,16,84.8,16,85,16z"/>
<path class="st1" d="M89.3,12.1L89.3,12.1c0.2,0,0.4-0.1,0.5-0.2c0.1-0.1,0.2-0.3,0.2-0.5s-0.1-0.4-0.2-0.5
	c-0.1-0.1-0.3-0.2-0.5-0.2s-0.3,0.1-0.4,0.2c-0.1,0.1-0.2,0.3-0.2,0.5s0.1,0.3,0.2,0.5C88.9,12.1,89.1,12.1,89.3,12.1z M89.3,11.8
	L89.3,11.8L89.3,11.8L89.3,11.8z"/>
<path class="st2" d="M102,20.6c0-1.5-1.3-2.7-2.9-2.7L95.4,18l-0.1-2.6c0-1.3-0.5-2.2-1.2-2.7c-1.1-0.8-2.6-0.4-2.9-0.3l0,0
	c-0.3,0.1-0.5,0.4-0.5,0.7l0.1,3.1c0.1,2.3-2.7,3.2-2.7,3.2H88c-0.2-0.2-0.5-0.3-0.8-0.3l-2.8,0.1c-0.3,0-0.6,0.1-0.9,0.4
	c-0.2,0.2-0.3,0.6-0.3,0.9l0.3,8.4c0,0.7,0.6,1.2,1.3,1.2l2.8-0.1c0.3,0,0.6-0.2,0.9-0.4c0.5,0.4,1.1,0.6,1.7,0.6h0.1L98,30
	c1.8-0.1,3-1.1,3.2-2.8l0.8-6.7L102,20.6L102,20.6z M88.7,20.8c0.6-0.2,3.8-1.4,3.7-4.6l-0.1-2.6c0.3,0,0.8,0,1.1,0.2
	c0.4,0.3,0.6,0.8,0.6,1.6l0.1,3.3c0,0.2,0.1,0.4,0.2,0.5c0.1,0.1,0.3,0.2,0.5,0.2h0.3v-0.1l4-0.1c0.7,0,1.4,0.6,1.4,1.3l-0.8,6.6
	c0,0.4-0.1,1.5-1.8,1.5l-7.7,0.2c-0.8,0-1.4-0.6-1.4-1.3L88.7,20.8C88.6,20.9,88.6,20.9,88.7,20.8L88.7,20.8z M85,28.9l-0.3-8.1
	l2.5-0.1l0.3,8.1L85,28.9z"/>
<path class="st1" d="M86.5,9.5L86.5,9.5h0.1h0.1c0.1,0,0.2-0.1,0.3-0.2l0,0c0.1-0.1,0.2-0.3,0.2-0.5S87.1,8.4,87,8.3
	c-0.1-0.1-0.3-0.2-0.5-0.2s-0.3,0.1-0.4,0.2c-0.1,0.1-0.2,0.3-0.2,0.5s0.1,0.4,0.2,0.5C86.1,9.4,86.3,9.5,86.5,9.5z"/>
<path class="st1" d="M87.4,10.6c0.1,0.1,0.3,0.2,0.5,0.2l0,0c0.3,0,0.4-0.2,0.5-0.2l0,0c0.1-0.1,0.2-0.3,0.2-0.5s-0.1-0.3-0.2-0.4
	c-0.1-0.1-0.3-0.2-0.5-0.2s-0.3,0.1-0.4,0.2c-0.1,0.1-0.2,0.3-0.2,0.5C87.2,10.4,87.3,10.5,87.4,10.6z"/>
<polygon class="st0" points="204.2,15.2 203.2,15.2 203.2,17.5 204.2,17.5 "/>
<polygon class="st0" points="206,14 204.9,14 204.9,17.5 206,17.5 "/>
<polygon class="st0" points="207.7,12.5 206.7,12.5 206.7,17.5 207.7,17.5 "/>
<polygon class="st1" points="209.5,11.1 208.4,11.1 208.4,17.5 209.5,17.5 "/>
<polygon class="st0" points="211.2,10.1 210.1,10.1 210.1,17.5 211.2,17.5 "/>
<path class="st1" d="M218.6,12.8v4.5v1.1h1.1h4.5c-0.5,2-2.3,3.5-4.5,3.5c-2.6,0-4.6-2.1-4.6-4.6C215.1,15.2,216.6,13.3,218.6,12.8
	 M219.7,11.6c-3.2,0-5.7,2.6-5.7,5.7c0,3.2,2.6,5.7,5.7,5.7c3.2,0,5.7-2.6,5.7-5.7h-5.7V11.6L219.7,11.6z"/>
<path class="st0" d="M221.9,11.8c0.8,0.2,1.6,0.6,2.2,1.2c0.6,0.6,1,1.4,1.2,2.2h-3.4L221.9,11.8 M220.8,10.6v5.8h5.7l0,0
	c0-1.6-0.6-3-1.7-4.1C223.8,11.2,222.4,10.6,220.8,10.6L220.8,10.6z"/>
<polygon class="st2" points="203.1,24.5 202.2,23.8 205.6,19.8 208.3,22.7 210.5,20.1 211.4,20.8 208.4,24.4 205.6,21.4 "/>
<polygon class="st2" points="212,19.3 209.4,20.1 211.3,22.1 "/>
<path class="st2" d="M228.4,7.7v19h-27.8v-19L228.4,7.7 M228.6,6.6h-28.3c-0.5,0-0.9,0.4-0.9,0.9v20.3h30V7.5
	C229.5,7,229.1,6.6,228.6,6.6L228.6,6.6z M229.5,27.8L229.5,27.8L229.5,27.8L229.5,27.8z"/>
<path class="st2" d="M232.1,29.4v-0.6h-14.7c-0.1,0.3-0.3,0.6-0.7,0.6h-4.6c-0.3,0-0.6-0.2-0.7-0.6h-14.7v0.6l0,0l1.8,1.1h31.8
	L232.1,29.4L232.1,29.4z"/>
<path class="st2" d="M183.2,22.6l0.7-4.5c0-0.2,0-0.3-0.1-0.4s-0.2-0.2-0.4-0.2l-1.5-0.2l0.1-0.4c0-0.3-0.2-0.6-0.5-0.7l-2.2-0.4
	l0,0l-0.1-0.1l-3.1-4.3c-0.1-0.1-0.2-0.2-0.4-0.2l-11-1.8l0.1-0.6c0-0.3-0.2-0.6-0.5-0.7l-8.9-1.4c-0.2,0-0.3,0-0.4,0.1
	s-0.2,0.2-0.2,0.4l-0.4,2.3c-0.1,0.3,0.2,0.6,0.5,0.7l8.9,1.4c0.2,0,0.3,0,0.4-0.1s0.2-0.2,0.2-0.4l0.1-0.6l0.9,0.1l2.4,3.4
	l-4.2-0.7c-0.2,0-0.3,0-0.4,0.1s-0.2,0.2-0.2,0.4l-0.6,3.5l-4-0.6l0,0l-3.7-3c-0.2-0.1-0.4-0.2-0.6-0.1c-0.2,0.1-0.3,0.2-0.4,0.4
	l-1.6,9.9c0,0.2,0,0.4,0.2,0.5c0.1,0.1,0.2,0.1,0.3,0.1c0.1,0,0.2,0,0.3,0l4.4-1.7l0,0l3.9,0.6l-0.6,3.7c0,0.2,0,0.3,0.1,0.4
	s0.2,0.2,0.4,0.2l17.9,2.8c0.3,0,0.6-0.2,0.7-0.5l1.2-7.4l1.5,0.2C182.9,23.2,183.2,22.9,183.2,22.6z M163.4,10.3l-7.7-1.2l0.2-1.1
	l7.7,1.2L163.4,10.3z M167.1,10.9l8.3,1.3l2.2,3l-8.3-1.3L167.1,10.9z M157,21.9l-3.4,1.3l1.3-7.9l2.9,2.3L157,21.9z M159.3,22.1
	l-1.2-0.2l0.6-3.9l1.2,0.2L159.3,22.1z M160.5,22.3l0.6-3.9l1.1,0.2l-0.6,3.9L160.5,22.3z M178.9,29.5l-16.8-2.7l1.9-12.3l16.8,2.7
	L178.9,29.5z M182.2,21.9l-0.9-0.1l0.5-3.3l0.9,0.1L182.2,21.9z"/>
<path class="st0" d="M165.6,17.6l-0.8,5c0,0.2,0,0.3,0.1,0.4s0.2,0.2,0.4,0.2l5,0.8c0.3,0,0.6-0.2,0.7-0.5l0.8-5
	c0-0.3-0.2-0.6-0.5-0.7l-5-0.8C166,17,165.7,17.2,165.6,17.6z M166.7,18.3l3.8,0.6l-0.6,3.8l-3.8-0.6L166.7,18.3z"/>
<path class="st1" d="M176.7,18.7c-0.1,0-0.2,0-0.3,0c-0.4,0-0.8,0.1-1.1,0.4c-0.4,0.3-0.7,0.7-0.7,1.2c-0.2,1,0.5,1.9,1.5,2.1
	s1.9-0.5,2.1-1.5c0.1-0.5,0-1-0.3-1.4C177.6,19.1,177.2,18.8,176.7,18.7z M177.1,20.6c0,0.2-0.1,0.3-0.3,0.4
	c-0.1,0.1-0.3,0.1-0.4,0.1h-0.1c-0.2,0-0.3-0.1-0.4-0.3c-0.1-0.1-0.1-0.3-0.1-0.5c0.1-0.4,0.4-0.6,0.8-0.6
	C176.9,19.9,177.1,20.3,177.1,20.6z"/>
<path class="st1" d="M173.8,24.9c-0.2,1,0.5,1.9,1.5,2.1c0.5,0.1,1,0,1.4-0.3s0.7-0.7,0.7-1.2c0.2-1-0.5-1.9-1.5-2.1
	c-0.5-0.1-1,0-1.4,0.3C174.2,24,173.9,24.4,173.8,24.9z M175,25.1c0.1-0.4,0.4-0.6,0.8-0.6c0.4,0.1,0.6,0.4,0.6,0.8
	c-0.1,0.3-0.3,0.6-0.7,0.6h-0.1C175.2,25.8,174.9,25.5,175,25.1z"/>
<path class="st2" d="M316.4,26.9l29.5-2.5c0.3,0,0.5-0.3,0.5-0.6l-1.5-18.4c0-0.3-0.3-0.5-0.6-0.5l-29.5,2.5c-0.3,0-0.5,0.3-0.5,0.6
	l1.5,18.4C315.8,26.7,316.1,26.9,316.4,26.9z M315.4,8.5l28.4-2.4l1.4,17.3l-28.4,2.4L315.4,8.5z"/>
<path class="st1" d="M327.5,19.2c0.2,0.1,0.3,0.1,0.5,0.1s0.3-0.1,0.4-0.1l5.8-3.5c0.3-0.2,0.5-0.5,0.4-0.9c0-0.3-0.2-0.6-0.6-0.8
	l-6.3-2.5c-0.3-0.1-0.6-0.1-0.9,0.1c-0.2,0.2-0.4,0.5-0.4,0.8l0.5,6C327,18.8,327.2,19.1,327.5,19.2z M327.6,12.7l5.7,2.3l-5.2,3.2
	L327.6,12.7z"/>
<path class="st2" d="M341.9,20.9l-19.4,1.6c-0.3-0.5-0.8-0.9-1.4-0.8c-0.6,0.1-1.1,0.5-1.3,1h-0.1c-0.3,0-0.5,0.3-0.5,0.6
	s0.3,0.5,0.6,0.5h0.1c0.3,0.5,0.8,0.9,1.4,0.8c0.6-0.1,1.1-0.5,1.3-1L342,22c0.3,0,0.5-0.3,0.5-0.6
	C342.5,21.1,342.3,20.8,341.9,20.9z M321.2,23.5c-0.2,0-0.4-0.1-0.4-0.3s0.1-0.4,0.3-0.4s0.4,0.1,0.4,0.3
	C321.6,23.3,321.5,23.5,321.2,23.5z"/>
<path class="st2" d="M58.5,7.3c-0.1,0-0.2,0-0.3,0c-0.4,0.1-0.8,0.4-1.1,1l0,0c0,0,0,0-0.1,0.1c-1.1,1.4-5,6-9.5,7.1l-3.4,0.9l0,0
	c-1.1,0.3-2,1-2.6,1.9c-0.6,1-0.8,2.2-0.5,3.3c0.3,1.1,1,2.1,2,2.7s2.2,0.8,3.3,0.5l1.5-0.4l2.8,5.8c0.4,0.8,1.2,1.2,2,1.2
	c0.3,0,0.7-0.1,1-0.2c1.1-0.5,1.6-1.9,1-3l-2.2-4.6c4.1,0,8.3,1.9,9.1,2.3c0.5,0.4,1,0.5,1.4,0.4c0.9-0.2,1.5-1.5,1.6-3.6
	c0.1-1.9-0.2-4.2-0.8-6.7C62.6,11.9,60.6,7.3,58.5,7.3z M46.2,23.7H46c-0.9,0.2-1.7,0.1-2.5-0.4c-0.7-0.5-1.3-1.2-1.5-2
	c-0.2-0.9-0.1-1.7,0.4-2.5c0.5-0.7,1.2-1.3,2-1.5l0.2-0.1L46.2,23.7z M56.8,14.2L56.8,14.2L56.8,14.2c0.2,1.2,0.4,2.3,0.6,3.4
	c0.3,1.1,0.6,2.3,1,3.4c0,0,0,0,0,0.1s0,0.1,0.1,0.2c0.4,1.2,0.9,2.2,1.4,3c-1.8-0.7-4.7-1.6-7.6-1.6c-0.9,0-1.9,0.1-2.8,0.3
	l-2.3,0.6l-1.5-6.3l2.1-0.5c3.7-0.9,7.1-4.1,8.8-6c0,0.1,0,0.2,0,0.4C56.6,11.9,56.7,13,56.8,14.2z M59.7,17.1
	c0.3,1.4,0.1,2.4-0.4,2.9c-0.3-0.9-0.6-1.8-0.8-2.7c-0.2-0.9-0.4-1.8-0.5-2.7C58.6,14.9,59.3,15.8,59.7,17.1z M60.7,16.9
	c-0.4-1.9-1.6-3.2-2.9-3.3c-0.1-1-0.1-1.8-0.1-2.6c0.1-1.7,0.4-2.5,0.8-2.6c0,0,0,0,0.1,0c0.7,0,2.7,2.7,4,8
	c0.6,2.4,0.8,4.6,0.8,6.4c-0.1,1.7-0.4,2.5-0.8,2.6c-0.1,0-0.2,0-0.3-0.1c0-0.1-0.1-0.1-0.2-0.1c0,0-0.1,0-0.1-0.1
	c-0.7-0.6-1.6-2.1-2.3-3.9C60.7,20.5,61.1,18.7,60.7,16.9z M52.2,25.8l-2.1,0.9l-1.3-2.6l1-0.2c0.4-0.1,0.9-0.2,1.4-0.2L52.2,25.8z
	 M53.1,30.3c-0.3,0.1-0.6,0.2-0.9,0.1s-0.5-0.3-0.7-0.6l-1-2l2.1-0.9l1,2C53.9,29.3,53.7,30,53.1,30.3z"/>
<path class="st1" d="M70.1,15.2c0.1,0,0.3-0.1,0.3-0.2c0.1-0.1,0.1-0.3,0.1-0.4c0-0.1-0.1-0.3-0.2-0.3c-0.1-0.1-0.3-0.1-0.4-0.1
	l-3,0.7c-0.1,0-0.3,0.1-0.3,0.2c-0.1,0.1-0.1,0.3-0.1,0.4c0.1,0.2,0.3,0.4,0.5,0.4l0,0h0.1L70.1,15.2z"/>
<path class="st1" d="M68,8.2c0-0.1,0-0.3-0.1-0.4s-0.2-0.2-0.4-0.2c-0.1,0-0.3,0-0.4,0.1L64.4,10c-0.1,0.1-0.2,0.2-0.2,0.4
	c0,0.1,0,0.3,0.1,0.4c0.1,0.1,0.2,0.2,0.4,0.2l0,0c0.1,0,0.2,0,0.3-0.1l2.7-2.3C67.9,8.5,68,8.3,68,8.2z"/>
<path class="st1" d="M71.4,21.4c-0.1-0.1-0.2-0.2-0.3-0.2l-3.3-0.8c-0.1,0-0.3,0-0.4,0.1s-0.2,0.2-0.2,0.3c0,0.1,0,0.3,0.1,0.4
	s0.2,0.2,0.3,0.2l3.3,0.8H71h0.1l0,0c0.2,0,0.4-0.2,0.4-0.4C71.5,21.7,71.4,21.5,71.4,21.4z"/>
<path class="st2" d="M256.8,10.8c1.9,0,3.4-1.5,3.4-3.4S258.7,4,256.8,4s-3.4,1.5-3.4,3.4S254.9,10.8,256.8,10.8z M254.7,7.4
	c0-1.2,1-2.1,2.1-2.1c1.2,0,2.1,1,2.1,2.1c0,1.2-1,2.1-2.1,2.1C255.6,9.6,254.7,8.6,254.7,7.4z"/>
<path class="st1" d="M263.5,13.3c1.9,0,3.4-1.5,3.4-3.4s-1.5-3.4-3.4-3.4s-3.4,1.5-3.4,3.4C260.2,11.8,261.7,13.3,263.5,13.3z
	 M261.4,9.9c0-1.2,1-2.1,2.1-2.1c1.2,0,2.1,1,2.1,2.1c0,1.2-1,2.1-2.1,2.1C262.4,12.1,261.4,11.1,261.4,9.9z"/>
<path class="st0" d="M267,12.7c-1.9,0-3.4,1.5-3.4,3.4s1.5,3.4,3.4,3.4s3.4-1.5,3.4-3.4C270.4,14.3,268.9,12.7,267,12.7z
	 M269.2,16.1c0,1.2-1,2.1-2.1,2.1c-1.2,0-2.1-1-2.1-2.1c0-1.2,1-2.1,2.1-2.1S269.2,14.9,269.2,16.1z"/>
<path class="st2" d="M265.9,19.8c-1.9,0-3.4,1.5-3.4,3.4s1.5,3.4,3.4,3.4s3.4-1.5,3.4-3.4S267.8,19.8,265.9,19.8z M268.1,23.2
	c0,1.2-1,2.1-2.1,2.1c-1.2,0-2.1-1-2.1-2.1c0-1.2,1-2.1,2.1-2.1C267.1,21,268.1,22,268.1,23.2z"/>
<path class="st1" d="M260.4,24.5c-1.9,0-3.4,1.5-3.4,3.4s1.5,3.4,3.4,3.4s3.4-1.5,3.4-3.4C263.7,26,262.2,24.5,260.4,24.5z
	 M262.5,27.9c0,1.2-1,2.1-2.1,2.1c-1.2,0-2.1-1-2.1-2.1c0-1.2,1-2.1,2.1-2.1C261.5,25.7,262.5,26.7,262.5,27.9z"/>
<path class="st0" d="M253.2,24.4c-1.9,0-3.4,1.5-3.4,3.4s1.5,3.4,3.4,3.4s3.4-1.5,3.4-3.4C256.5,25.9,255,24.4,253.2,24.4z
	 M255.3,27.8c0,1.2-1,2.1-2.1,2.1c-1.2,0-2.1-1-2.1-2.1c0-1.2,1-2.1,2.1-2.1C254.3,25.7,255.3,26.6,255.3,27.8z"/>
<path class="st2" d="M251,23.2c0-1.9-1.5-3.4-3.4-3.4s-3.4,1.5-3.4,3.4s1.5,3.4,3.4,3.4S251,25.1,251,23.2z M249.8,23.2
	c0,1.2-1,2.1-2.1,2.1c-1.2,0-2.1-1-2.1-2.1c0-1.2,1-2.1,2.1-2.1S249.8,22,249.8,23.2z"/>
<path class="st1" d="M249.8,16.2c0-1.9-1.5-3.4-3.4-3.4s-3.4,1.5-3.4,3.4s1.5,3.4,3.4,3.4S249.8,18.1,249.8,16.2z M248.5,16.2
	c0,1.2-1,2.1-2.1,2.1c-1.2,0-2.1-1-2.1-2.1c0-1.2,1-2.1,2.1-2.1C247.6,14.1,248.5,15,248.5,16.2z"/>
<path class="st0" d="M250,13.3c1.9,0,3.4-1.5,3.4-3.4s-1.5-3.4-3.4-3.4s-3.4,1.5-3.4,3.4S248.1,13.3,250,13.3z M247.8,9.9
	c0-1.2,1-2.1,2.1-2.1c1.2,0,2.1,1,2.1,2.1c0,1.2-1,2.1-2.1,2.1C248.8,12.1,247.8,11.1,247.8,9.9z"/>
<polygon class="st2" points="257.7,13.7 257.7,12.5 258.3,12.5 256.8,11 255.3,12.5 255.9,12.5 255.9,13.7 "/>
<polygon class="st1" points="260.1,15.3 260.9,14.4 261.4,14.9 261.3,12.7 259.2,12.8 259.6,13.2 258.8,14.1 "/>
<polygon class="st0" points="261.8,15.5 261.9,16.1 260.8,16.4 261.1,18.1 262.2,17.9 262.3,18.5 263.6,16.7 "/>
<polygon class="st2" points="262.7,21.5 262.2,19.4 261.9,19.9 260.9,19.3 259.9,20.7 260.9,21.4 260.5,21.9 "/>
<polygon class="st1" points="259.1,24.5 260,22.5 259.4,22.7 259,21.7 257.4,22.2 257.8,23.3 257.2,23.5 "/>
<polygon class="st0" points="254.7,14.1 254,13.3 254.4,12.8 252.2,12.7 252.2,14.9 252.7,14.5 253.5,15.3 "/>
<polygon class="st2" points="251.7,19.8 251.3,19.2 250.8,21.3 252.9,21.9 252.6,21.3 253.5,20.7 252.7,19.2 "/>
<polygon class="st1" points="251.6,15.5 249.9,16.8 251.2,18.5 251.3,17.9 252.4,18 252.7,16.3 251.5,16.1 "/>
<polygon class="st0" points="254.5,21.6 254.1,22.7 253.5,22.5 254.5,24.4 256.4,23.4 255.8,23.2 256.1,22.1 "/>
<path class="st2" d="M260.4,17.9c0-2-1.6-3.6-3.6-3.6s-3.6,1.6-3.6,3.6s1.6,3.6,3.6,3.6S260.4,19.9,260.4,17.9z M258.9,17.9
	c0,1.1-0.9,2.1-2.1,2.1c-1.1,0-2.1-0.9-2.1-2.1c0-1.1,0.9-2.1,2.1-2.1C257.9,15.8,258.9,16.8,258.9,17.9z"/>
<polygon class="st2" points="4.1,30.7 4.1,10.3 3,10.3 3,31.8 31,31.8 31,30.7 "/>
<circle class="st0" cx="7.3" cy="27.5" r="1.1"/>
<circle class="st1" cx="11.6" cy="25.4" r="1.1"/>
<path class="st0" d="M11.1,22.1c0.9,0,1.6-0.7,1.6-1.6s-0.7-1.6-1.6-1.6s-1.6,0.7-1.6,1.6S10.2,22.1,11.1,22.1z M11.1,20
	c0.3,0,0.5,0.2,0.5,0.5S11.4,21,11.1,21s-0.5-0.2-0.5-0.5S10.8,20,11.1,20z"/>
<path class="st0" d="M17,25.4c1.2,0,2.2-1,2.2-2.2S18.2,21,17,21s-2.2,1-2.2,2.2S15.8,25.4,17,25.4z M17,22.1c0.6,0,1.1,0.5,1.1,1.1
	s-0.5,1.1-1.1,1.1s-1.1-0.5-1.1-1.1S16.4,22.1,17,22.1z"/>
<circle class="st0" cx="18.1" cy="17.8" r="1.1"/>
<circle class="st0" cx="24.5" cy="11.4" r="1.1"/>
<path class="st0" d="M28.3,16.2c0.9,0,1.6-0.7,1.6-1.6c0-0.9-0.7-1.6-1.6-1.6s-1.6,0.7-1.6,1.6C26.7,15.5,27.4,16.2,28.3,16.2z
	 M28.3,14.1c0.3,0,0.5,0.2,0.5,0.5s-0.2,0.5-0.5,0.5s-0.5-0.2-0.5-0.5S28,14.1,28.3,14.1z"/>
<path class="st1" d="M19.7,14.5c0.8,0,1.5-0.7,1.5-1.5s-0.7-1.5-1.5-1.5s-1.5,0.7-1.5,1.5S18.9,14.5,19.7,14.5z M19.7,12.6
	c0.2,0,0.4,0.2,0.4,0.4s-0.2,0.4-0.4,0.4c-0.2,0-0.4-0.2-0.4-0.4S19.5,12.6,19.7,12.6z"/>
<path class="st1" d="M24.5,23.2c1.8,0,3.2-1.4,3.2-3.2c0-1.8-1.4-3.2-3.2-3.2c-1.8,0-3.2,1.4-3.2,3.2C21.3,21.8,22.7,23.2,24.5,23.2
	z M24.5,17.8c1.2,0,2.2,1,2.2,2.2s-1,2.2-2.2,2.2s-2.2-1-2.2-2.2C22.4,18.8,23.3,17.8,24.5,17.8z"/>
<path class="st2" d="M299.5,9.4c-1.1-1.2-2.5-2-3.9-2.5c-0.1,0-0.1-0.1-0.2-0.1c-0.1,0-0.1,0-0.2,0c-3.5-1.1-7.5-0.3-10.3,2.4
	c-0.1,0.2-0.1,0.5,0,0.6s0.2,0.2,0.3,0.2s0.3,0,0.4-0.1c1.7-1.6,4-2.6,6.3-2.6h0.1c0.8,0,1.7,0.1,2.5,0.3l-2.9,8.7l-8,4.1
	c-0.5-1.1-0.8-2.4-0.8-3.7c0,0,0,0,0-0.1s-0.1-0.3-0.2-0.4c-0.1-0.1-0.2-0.1-0.4-0.1c-0.1,0-0.3,0.1-0.4,0.2
	c-0.1,0.1-0.1,0.2-0.1,0.4c0,4.4,2.9,8.3,7.1,9.7c1.1,0.3,2.2,0.5,3.2,0.5c1.5,0,3.1-0.4,4.5-1h0.1c0.1,0,0.2,0,0.3-0.1
	s0.2-0.1,0.2-0.2c0.8-0.4,1.5-1,2.1-1.6C303.3,20,303.4,13.5,299.5,9.4z M295.8,25c-1.1,0.5-2.4,0.8-3.7,0.8c-2.5,0-4.8-0.9-6.6-2.6
	c-0.6-0.6-1.1-1.2-1.5-1.9l7.9-4L295.8,25z M296.7,24.5l-4.1-8.1l2.8-8.5c1.1,0.4,2.1,1.1,3,2c1.8,1.7,2.8,4.1,2.8,6.5
	c0,2.5-0.9,4.8-2.6,6.6C298.1,23.6,297.4,24.1,296.7,24.5z"/>
<path class="st0" d="M292.4,16l-7.9-8c-0.2-0.2-0.5-0.2-0.7,0c-2.3,2.2-3.5,5.2-3.6,8.3c0,0.2,0.2,0.4,0.4,0.5c0.1,0,0.1,0,0.2,0
	l11.3,0.1l0,0c0.1,0,0.3-0.1,0.4-0.1C292.6,16.6,292.6,16.2,292.4,16z M290.8,15.9l-9.5-0.1c0.1-2.5,1.2-4.9,2.8-6.7L290.8,15.9z"/>
<g>
	<path class="st2" d="M374.6,9.2c-0.2,0.1-0.4,0.2-0.5,0.4l-8.6,10.3c-0.2,0.2-0.3,0.6-0.3,0.9s0.2,0.6,0.4,0.8l5.2,4.3
		c0.3,0.3,0.8,0.4,1.2,0.2c0.2-0.1,0.4-0.2,0.5-0.4l8.6-10.3c0.2-0.2,0.3-0.6,0.3-0.9c0-0.3-0.2-0.6-0.4-0.8l-5.2-4.3
		C375.4,9.1,375,9.1,374.6,9.2z M380.4,14.8l-8.6,10.3l-0.1,0.1c-0.1,0-0.2,0-0.3,0l-5.2-4.3c-0.1-0.1-0.1-0.3,0-0.4l8.6-10.3
		l0.1-0.1c0.1,0,0.2,0,0.3,0l5.2,4.3C380.5,14.5,380.5,14.7,380.4,14.8z"/>
	<path class="st2" d="M371.6,26.2c-0.3,0-0.6-0.1-0.8-0.3l-5.2-4.3c-0.3-0.2-0.4-0.5-0.5-0.9c0-0.3,0.1-0.7,0.3-0.9L374,9.5
		c0.1-0.2,0.3-0.3,0.5-0.4c0.4-0.2,0.9-0.1,1.3,0.2l5.2,4.3c0.3,0.2,0.4,0.5,0.5,0.9c0,0.3-0.1,0.7-0.3,0.9l-8.6,10.3
		c-0.1,0.2-0.3,0.3-0.5,0.4S371.8,26.2,371.6,26.2z M375,9.2c-0.1,0-0.3,0-0.4,0.1l0,0c-0.2,0.1-0.4,0.2-0.5,0.3L365.6,20
		c-0.2,0.2-0.3,0.5-0.3,0.8s0.2,0.6,0.4,0.8l5.2,4.3c0.3,0.3,0.7,0.3,1.1,0.2c0.2-0.1,0.4-0.2,0.5-0.3l8.6-10.3
		c0.2-0.2,0.3-0.5,0.3-0.8s-0.2-0.6-0.4-0.8l-5.2-4.3C375.5,9.3,375.3,9.2,375,9.2z M371.6,25.3c-0.1,0-0.2,0-0.2-0.1l-5.2-4.3
		c-0.2-0.1-0.2-0.4,0-0.5l8.6-10.3c0-0.1,0.1-0.1,0.2-0.1c0.1,0,0.3,0,0.4,0.1l5.2,4.3c0.2,0.1,0.2,0.4,0.1,0.5l-8.6,10.3
		c0,0.1-0.1,0.1-0.2,0.1C371.7,25.3,371.7,25.3,371.6,25.3z M375,10.1C375,10.1,374.9,10.1,375,10.1c-0.1,0-0.1,0-0.2,0.1l-8.6,10.3
		c-0.1,0.1-0.1,0.2,0,0.3l5.2,4.3c0.1,0.1,0.1,0.1,0.2,0c0,0,0.1,0,0.1-0.1l8.6-10.3c0.1-0.1,0.1-0.2,0-0.3L375,10.1
		C375.1,10.1,375,10.1,375,10.1z"/>
</g>
<g>
	<path class="st0" d="M375.4,15.7l-1.7,0.4c-0.1,0-0.1,0-0.2-0.1l-1-1.4c-0.1-0.1-0.2-0.1-0.3-0.1c0,0-0.1,0-0.1,0.1v0.1l-0.2,1.7
		v0.1c0,0,0,0-0.1,0.1l-1.6,0.5c0,0-0.1,0-0.1,0.1c-0.1,0.1-0.1,0.3,0.1,0.4l1.6,0.7c0.1,0,0.1,0.1,0.1,0.2v1.7
		c0,0.2,0.2,0.3,0.3,0.2h0.1l1.1-1.3c0,0,0,0,0.1,0h0.1l1.6,0.6h0.1c0,0,0.1,0,0.1-0.1c0.1-0.1,0.1-0.2,0-0.2l-0.9-1.5
		c0-0.1,0-0.1,0-0.2l1.1-1.4C375.8,15.9,375.6,15.7,375.4,15.7z"/>
	<path class="st0" d="M372.1,20.4c-0.1,0-0.1,0-0.2-0.1c-0.1-0.1-0.1-0.1-0.1-0.2v-1.7c0,0,0-0.1-0.1-0.1l-1.6-0.7
		c-0.1-0.1-0.1-0.1-0.2-0.2c0-0.1,0-0.2,0.1-0.3l0.1-0.1l1.7-0.5l0,0c0,0,0,0,0-0.1l0.2-1.7c0-0.1,0-0.1,0.1-0.1l0.1-0.1
		c0.1,0,0.3,0,0.3,0.1l1,1.4h0.1l1.7-0.4c0.1,0,0.2,0,0.3,0.1s0.1,0.2,0,0.3l-1.1,1.4v0.1l0.9,1.5c0.1,0.1,0,0.2,0,0.3l-0.1,0.1
		c-0.1,0-0.1,0-0.2,0l-1.7-0.6c0,0,0,0-0.1,0l0,0l-1.1,1.3l-0.1,0.1C372.1,20.4,372.1,20.4,372.1,20.4z M372.4,14.6L372.4,14.6
		c-0.1,0-0.1,0-0.1,0.1c0,0,0,0,0,0.1l-0.2,1.7c0,0.1,0,0.1-0.1,0.1l-0.1,0.1l-1.7,0.5c0,0,0,0-0.1,0v0.1c0,0,0,0.1,0.1,0.1l1.6,0.7
		c0.1,0.1,0.1,0.1,0.1,0.2v1.8c0,0.1,0,0.1,0.1,0.1h0.1c0,0,0,0,0.1,0l1.1-1.3l0.1-0.1c0.1,0,0.1,0,0.2,0l1.7,0.6h0.1c0,0,0,0,0.1,0
		c0,0,0-0.1,0-0.2l-0.9-1.5c0-0.1,0-0.2,0-0.3l1.1-1.4c0,0,0-0.1,0-0.2c0-0.1-0.1-0.1-0.1-0.1l-1.7,0.4c-0.1,0-0.2,0-0.3-0.1l-1-1.4
		C372.5,14.6,372.4,14.6,372.4,14.6z"/>
</g>
<g>
	<path class="st2" d="M357.8,16.5l3.2,5.9c0.2,0.3,0.5,0.6,0.9,0.6c0.2,0,0.4,0,0.5-0.1c0.2-0.1,0.4-0.2,0.7-0.2
		c0,0.3-0.2,0.6-0.4,0.8c-0.4,0.5-0.3,1.1,0.1,1.5l5.2,4.3c0.3,0.2,0.7,0.3,1.1,0.2c0.2-0.1,0.3-0.2,0.4-0.3
		c0.2-0.2,0.4-0.4,0.7-0.5c0.6-0.2,1.2-0.1,1.7,0.3c0.3,0.2,0.7,0.3,1.1,0.2c0.2-0.1,0.3-0.2,0.4-0.3l10.9-13.1
		c0.4-0.5,0.3-1.1-0.1-1.5c-0.3-0.3-0.6-0.7-0.6-1.1c0-0.4,0.1-0.9,0.4-1.2c0.4-0.5,0.3-1.1-0.1-1.5l-2.1-1.8l-2-3.7
		c-0.2-0.3-0.5-0.6-0.9-0.6c-0.2,0-0.4,0-0.5,0.1c-0.3,0.1-0.6,0.2-0.8,0.2c-0.6,0-1.1-0.4-1.4-0.9c-0.2-0.3-0.5-0.6-0.9-0.6
		c-0.2,0-0.4,0-0.5,0.1l-15.1,8.1c-0.5,0.3-0.7,0.9-0.4,1.5c0.2,0.4,0.3,0.9,0.1,1.3s-0.4,0.8-0.8,1C357.7,15.3,357.5,16,357.8,16.5
		z M383.2,11.2c-0.4,0.5-0.6,1.2-0.6,1.9c0.1,0.7,0.4,1.3,0.9,1.8c0.1,0.1,0.1,0.1,0,0.2l-10.9,13.1c-0.1,0.1-0.2,0.1-0.2,0
		c-0.7-0.6-1.7-0.8-2.6-0.4c-0.4,0.2-0.8,0.4-1.1,0.8c-0.1,0.1-0.2,0.1-0.2,0l-5.2-4.3c-0.1-0.1-0.1-0.1,0-0.2
		c0.4-0.5,0.6-1.2,0.6-1.9c-0.1-0.7-0.4-1.3-0.9-1.8c-0.1-0.1-0.1-0.1,0-0.2l10.9-13.1c0.1-0.1,0.2-0.1,0.2,0
		c0.7,0.6,1.7,0.8,2.6,0.4c0.4-0.2,0.8-0.4,1.1-0.8c0.1-0.1,0.2-0.1,0.2,0l5.2,4.3C383.2,11,383.2,11.1,383.2,11.2z M362.5,14
		c-0.1-0.1,0-0.3,0.1-0.4l8.7-4.7l-7,8.4L362.5,14z M358.6,15.9c0.6-0.3,1.1-0.9,1.3-1.5c0.2-0.7,0.1-1.4-0.2-2c0-0.1,0-0.2,0.1-0.2
		l15-8.2c0.1,0,0.2,0,0.2,0.1c0.4,0.8,1.3,1.3,2.2,1.4c0.5,0,0.9-0.1,1.3-0.3c0.1,0,0.2,0,0.2,0.1l0.9,1.8l-1-1.1
		c-0.3-0.2-0.7-0.3-1.1-0.2c-0.2,0.1-0.3,0.2-0.4,0.3c-0.2,0.2-0.4,0.4-0.7,0.5c-0.6,0.2-1.2,0.1-1.7-0.3c-0.3-0.2-0.7-0.3-1.1-0.2
		c-0.2,0.1-0.3,0.2-0.4,0.3L372.8,7l-10.6,5.7c-0.3,0.2-0.5,0.4-0.6,0.7s-0.1,0.6,0.1,0.9l2,3.7l-1.3,1.6c-0.4,0.5-0.3,1.1,0.1,1.5
		c0.2,0.2,0.4,0.4,0.5,0.6c-0.3,0-0.7,0.1-1,0.3c-0.1,0-0.2,0-0.2-0.1l-3.2-5.9C358.5,16,358.6,15.9,358.6,15.9z"/>
	<path class="st2" d="M368.7,29.6c-0.3,0-0.5-0.1-0.7-0.3l-5.2-4.3c-0.5-0.4-0.6-1.1-0.2-1.6c0.2-0.2,0.3-0.4,0.3-0.7
		c-0.2,0-0.4,0.1-0.5,0.2c-0.2,0.1-0.4,0.1-0.6,0.1c-0.4,0-0.8-0.2-1-0.6l-3.2-5.9c-0.1-0.3-0.2-0.6-0.1-0.9
		c0.1-0.3,0.3-0.5,0.6-0.7c0.4-0.2,0.7-0.5,0.8-1c0.1-0.4,0.1-0.8-0.1-1.2c-0.3-0.6-0.1-1.3,0.5-1.6L374.4,3
		c0.2-0.1,0.4-0.1,0.6-0.1c0.4,0,0.8,0.2,1,0.6c0.3,0.5,0.8,0.8,1.4,0.8c0.3,0,0.6-0.1,0.8-0.2c0.2-0.1,0.4-0.1,0.6-0.1
		c0.4,0,0.8,0.2,1,0.6l2,3.7l2.1,1.8c0.2,0.2,0.4,0.5,0.4,0.8s-0.1,0.6-0.3,0.8c-0.3,0.3-0.4,0.7-0.4,1.2c0,0.4,0.2,0.8,0.6,1.1
		c0.5,0.4,0.6,1.1,0.2,1.6l-10.9,13.1c-0.1,0.2-0.3,0.3-0.5,0.3c-0.4,0.1-0.8,0.1-1.1-0.2c-0.4-0.4-1-0.5-1.6-0.3
		c-0.3,0.1-0.5,0.3-0.7,0.5c-0.1,0.2-0.3,0.3-0.5,0.3C369,29.6,368.8,29.6,368.7,29.6z M363.2,22.6L363.2,22.6
		c-0.1,0.4-0.2,0.7-0.4,1c-0.3,0.4-0.3,1,0.1,1.4l5.2,4.3c0.3,0.2,0.6,0.3,1,0.2c0.2-0.1,0.3-0.2,0.4-0.3c0.2-0.2,0.5-0.4,0.7-0.5
		c0.6-0.2,1.2-0.1,1.7,0.3c0.3,0.2,0.6,0.3,1,0.2c0.2-0.1,0.3-0.2,0.4-0.3l10.9-13.1c0.3-0.4,0.3-1-0.1-1.4
		c-0.4-0.3-0.6-0.7-0.6-1.2s0.1-0.9,0.4-1.3c0.2-0.2,0.2-0.5,0.2-0.7s-0.2-0.5-0.4-0.7l-2.2-1.8l-2-3.7c-0.2-0.3-0.5-0.5-0.8-0.5
		c-0.2,0-0.3,0-0.5,0.1c-0.3,0.1-0.6,0.2-0.9,0.2c-0.6,0-1.2-0.4-1.5-0.9c-0.2-0.3-0.5-0.5-0.8-0.5c-0.2,0-0.3,0-0.5,0.1l-15.1,8.1
		c-0.5,0.3-0.7,0.9-0.4,1.3c0.2,0.4,0.3,0.9,0.1,1.3c-0.1,0.5-0.4,0.8-0.9,1c-0.2,0.1-0.4,0.3-0.5,0.6c-0.1,0.3,0,0.5,0.1,0.8
		l3.2,5.9c0.2,0.3,0.5,0.5,0.8,0.5c0.2,0,0.3,0,0.5-0.1C362.6,22.7,362.8,22.6,363.2,22.6L363.2,22.6z M368.7,28.7
		c-0.1,0-0.1,0-0.1-0.1l-5.2-4.3c-0.1-0.1-0.1-0.2,0-0.3c0.4-0.5,0.6-1.2,0.6-1.8c-0.1-0.7-0.4-1.3-0.9-1.7c0,0-0.1-0.1-0.1-0.2
		s0-0.1,0.1-0.2L373.9,7c0,0,0.1-0.1,0.2-0.1c0.1,0,0.1,0,0.2,0.1c0.7,0.6,1.6,0.7,2.5,0.4c0.4-0.2,0.8-0.4,1.1-0.8
		c0,0,0.1-0.1,0.2-0.1c0.1,0,0.1,0,0.2,0.1l5.2,4.3c0.1,0.1,0.1,0.2,0,0.3c-0.4,0.5-0.6,1.2-0.6,1.8c0.1,0.7,0.4,1.3,0.9,1.7
		c0,0,0.1,0.1,0.1,0.2c0,0.1,0,0.1-0.1,0.2l-10.9,13.1c-0.1,0.1-0.2,0.1-0.3,0c-0.7-0.6-1.6-0.7-2.5-0.4c-0.4,0.2-0.8,0.4-1.1,0.8
		C368.8,28.7,368.8,28.7,368.7,28.7z M374,7.1L374,7.1L374,7.1l-10.9,13.2c0,0,0,0,0,0.1l0,0c0.5,0.5,0.9,1.1,1,1.8
		c0.1,0.7-0.1,1.4-0.6,2v0.1l5.2,4.3h0.1c0.3-0.4,0.7-0.6,1.1-0.8c0.9-0.3,1.9-0.2,2.6,0.4h0.1L383.5,15c0,0,0,0,0-0.1s0,0,0,0
		c-0.5-0.5-0.9-1.1-1-1.8s0.1-1.4,0.6-2l0,0V11L378,6.8c0,0,0,0-0.1,0l0,0c-0.3,0.4-0.7,0.6-1.1,0.8C375.8,7.9,374.8,7.7,374,7.1
		C374.1,7.1,374.1,7.1,374,7.1z M361.9,22.2c-0.1,0-0.2,0-0.2-0.1l-3.2-5.9c-0.1-0.1,0-0.3,0.1-0.3l0,0c0.6-0.3,1-0.9,1.2-1.5
		s0.1-1.3-0.2-1.9c0-0.1,0-0.1,0-0.2c0-0.1,0.1-0.1,0.1-0.1l15.1-8.1c0.1,0,0.1,0,0.2,0c0.1,0,0.1,0.1,0.1,0.1
		c0.4,0.8,1.2,1.3,2.1,1.3c0.4,0,0.9-0.1,1.3-0.3c0.1,0,0.1,0,0.2,0c0.1,0,0.1,0.1,0.1,0.1l1.1,2.1l-1.4-1.2c-0.3-0.2-0.6-0.3-1-0.2
		c-0.2,0.1-0.3,0.2-0.4,0.3c-0.2,0.2-0.5,0.4-0.7,0.5c-0.6,0.2-1.2,0.1-1.7-0.3c-0.3-0.2-0.6-0.3-1-0.2c-0.2,0.1-0.3,0.2-0.4,0.3
		l-0.4,0.5l-10.6,5.7c-0.3,0.1-0.5,0.4-0.6,0.7s-0.1,0.6,0.1,0.9l2,3.7l-1.3,1.6c-0.3,0.4-0.3,1,0.1,1.4c0.2,0.2,0.4,0.4,0.5,0.6
		v0.1H363c-0.3,0-0.7,0.1-1,0.3C362,22.2,361.9,22.2,361.9,22.2z M358.7,15.9c0,0-0.1,0.1,0,0.1l3.2,5.9h0.1
		c0.3-0.2,0.6-0.2,0.9-0.3c-0.1-0.2-0.2-0.4-0.4-0.5c-0.5-0.4-0.6-1.1-0.2-1.6l1.3-1.5l-2-3.6c-0.2-0.3-0.2-0.7-0.1-1
		c0.1-0.3,0.3-0.6,0.6-0.8L372.8,7l0.4-0.5c0.1-0.2,0.3-0.3,0.5-0.3c0.4-0.1,0.8-0.1,1.1,0.2c0.4,0.4,1,0.5,1.6,0.3
		c0.3-0.1,0.5-0.3,0.7-0.5c0.1-0.2,0.3-0.3,0.5-0.3c0.4-0.1,0.8-0.1,1.1,0.2l0.8,0.7l-0.8-1.4l0,0c0,0,0,0-0.1,0
		c-0.4,0.2-0.9,0.3-1.3,0.3c-1,0-1.8-0.6-2.3-1.4l0,0c0,0,0,0-0.1,0l-15.1,8.1l0,0c0,0,0,0,0,0.1c0.3,0.6,0.4,1.4,0.2,2
		C359.8,15,359.3,15.6,358.7,15.9L358.7,15.9z M364.3,17.5l-1.9-3.5c-0.1-0.2,0-0.4,0.2-0.5l9-4.9L364.3,17.5z M362.5,13.9l1.8,3.3
		l6.6-8l-8.3,4.5C362.5,13.7,362.5,13.8,362.5,13.9L362.5,13.9z"/>
</g>
<g>
	<path class="st2" d="M422,10.2c-1.1,0-2,0.9-2,2c0,0.2,0,0.5,0.1,0.7c-0.1,0.1-0.1,0.1-0.2,0.2c-0.4,0.4-1.1,1.1-1.4,1.1
		s-0.8-0.5-1.1-0.8c-0.6-0.6-1.1-1.1-1.8-1.1c-0.8,0-1.2,1.1-1.9,3.3c-0.2,0.7-0.6,1.9-0.9,2.4c-0.3-0.7-0.5-2.6-0.8-4
		c-0.7-4.6-1.2-6.6-2.3-6.6s-1.5,2.2-2.3,7.8c-0.2,1.8-0.6,4.2-0.8,4.9c-0.3-0.2-0.7-0.8-0.9-1.2c-0.6-0.9-1.1-1.7-1.9-1.7
		c-0.8,0-1.1,1.2-1.9,4.8c-0.3,1.3-0.7,3.3-1.1,3.9c-0.3-0.4-0.7-1.4-1-2c-0.6-1.6-1.1-2.8-1.9-2.8c-0.7,0-1.3,0.6-1.8,1.1
		c-0.4,0.4-0.8,0.8-1.1,0.8v1c0.7,0,1.3-0.6,1.8-1.1c0.4-0.4,0.8-0.8,1.1-0.8c0.3,0.2,0.8,1.4,1.1,2.1c0.6,1.6,1.1,2.8,1.9,2.8
		c0.8,0,1.1-1.2,1.9-4.8c0.3-1.4,0.8-3.5,1.1-4c0.3,0.2,0.7,0.9,1,1.2c0.6,0.9,1.1,1.7,1.9,1.7c0.8,0,1-1,1.6-5.8
		c0.3-2.3,0.8-6,1.3-6.8c0.5,0.7,1,3.8,1.3,5.7c0.6,3.8,0.8,5,1.6,5s1.2-1.1,1.9-3.3c0.3-0.9,0.8-2.3,1.1-2.6
		c0.3,0.1,0.7,0.5,1.1,0.8c0.6,0.6,1.1,1.1,1.8,1.1s1.4-0.7,2.1-1.4l0.1-0.1c0.3,0.3,0.8,0.5,1.3,0.5c1.1,0,2-0.9,2-2
		S423,10.2,422,10.2z"/>
</g>
<circle class="st1" cx="422.1" cy="12.2" r="2.1"/>
</svg>
