<?xml version="1.0" encoding="utf-8"?>
<!-- Generator: Adobe Illustrator 19.2.1, SVG Export Plug-In . SVG Version: 6.00 Build 0)  -->
<svg version="1.1" id="Layer_1" xmlns="http://www.w3.org/2000/svg" xmlns:xlink="http://www.w3.org/1999/xlink" x="0px" y="0px"
	 viewBox="0 0 955 377" style="enable-background:new 0 0 955 377;" xml:space="preserve">
<style type="text/css">
	.st0{fill:#EEEEEE;}
	.st1{fill:#259DFF;}
	.st2{fill:#FEAC09;}
</style>
<title>film_data_science</title>
<path class="st0" d="M607.9,243.1c3.4,0.5,4.3,0.7,6.3,1.1l3.2,0.6c0.6,0.1,1.3-0.1,1.8-0.5c0.5-0.4,0.8-1,0.8-1.7V177
	c0-1.2-1-2.2-2.2-2.2c-0.1,0-0.3,0-0.4,0c-44.6,8.4-90.4,8.4-135.1,0c-1.2-0.2-2.3,0.6-2.6,1.8c0,0.1,0,0.3,0,0.4v65.7
	c0,1.2,1,2.2,2.2,2.2c0.1,0,0.3,0,0.4,0l2.8-0.5h0.1c1.6-0.3,2.5-0.5,5.3-0.9c1.2-0.2,2-1.3,1.8-2.5c-0.2-1.2-1.3-2-2.5-1.8
	c0,0,0,0,0,0c-2.3,0.4-3.3,0.5-4.5,0.7l-1.2,0.2v-60.4l1.2,0.2c42.7,7.6,86.4,7.6,129.1,0l1.2-0.2V240l-1.2-0.2
	c-1.6-0.3-2.7-0.5-5.9-1h-0.3c-1.1,0-2,0.8-2.2,1.9C605.9,241.8,606.7,242.9,607.9,243.1C607.9,243.1,607.9,243.1,607.9,243.1z"/>
<path class="st1" d="M602.3,254.4c0-10.1-4.4-19.5-11.1-23.8l-1-0.6l0.8-0.9c4.2-4.4,4.1-11.4-0.3-15.6c-4.4-4.2-11.4-4.1-15.6,0.3
	c-4.1,4.3-4.1,11,0,15.2l0.8,0.9l-1,0.6c-3.5,2.4-6.3,5.7-8,9.6l-0.9,1.9l-0.9-1.9c-1.7-3.9-4.5-7.2-8-9.6l-1-0.6l0.8-0.9
	c4.2-4.4,4.1-11.4-0.3-15.6c-4.4-4.2-11.4-4.1-15.6,0.3c-4.1,4.3-4.1,11,0,15.2l0.8,0.9l-1,0.6c-3.5,2.4-6.3,5.7-8,9.6L532,242
	l-0.9-1.9c-1.7-3.9-4.5-7.2-8-9.6l-1-0.6l0.8-0.9c4.2-4.4,4.1-11.4-0.3-15.6c-4.4-4.2-11.4-4.1-15.6,0.3c-4.1,4.3-4.1,11,0,15.2
	l0.8,0.9l-1,0.6c-6.8,4.3-11.1,13.7-11.1,23.8c0,1.2,1,2.2,2.2,2.2s2.2-1,2.2-2.2c0-11.9,6.8-21.9,14.9-21.9s14.9,10,14.9,21.9
	c0,1.2,1,2.2,2.2,2.2c1.2,0,2.2-1,2.2-2.2c0-11.9,6.8-21.9,14.9-21.9s14.9,10,14.9,21.9c0,1.2,1,2.2,2.2,2.2s2.2-1,2.2-2.2
	c0-11.9,6.8-21.9,14.9-21.9s14.9,10,14.9,21.9c-0.4,1.2,0.2,2.4,1.4,2.8c1.2,0.4,2.4-0.2,2.8-1.4
	C602.5,255.3,602.5,254.8,602.3,254.4z M514.8,228c-3.6,0-6.6-2.9-6.6-6.6s2.9-6.6,6.6-6.6s6.6,2.9,6.6,6.6l0,0
	C521.4,225.1,518.5,228,514.8,228L514.8,228z M549,228c-3.6,0-6.6-2.9-6.6-6.6s2.9-6.6,6.6-6.6s6.6,2.9,6.6,6.6l0,0
	C555.5,225.1,552.6,228,549,228L549,228z M583.1,228c-3.6,0-6.6-2.9-6.6-6.6s2.9-6.6,6.6-6.6s6.6,2.9,6.6,6.6l0,0
	C589.6,225.1,586.7,228,583.1,228L583.1,228z"/>
<path class="st2" d="M113.4,155c-3.4,0-6.2,2.8-6.2,6.2s2.8,6.2,6.2,6.2c3.4,0,6.2-2.8,6.2-6.2C119.7,157.8,116.9,155,113.4,155z
	 M116.5,161.2c0,1.7-1.4,3.1-3.1,3.1s-3.1-1.4-3.1-3.1s1.4-3.1,3.1-3.1C115.2,158.1,116.5,159.5,116.5,161.2
	C116.5,161.2,116.5,161.2,116.5,161.2L116.5,161.2z"/>
<circle class="st1" cx="166" cy="159.2" r="1.6"/>
<circle class="st1" cx="160.7" cy="159.2" r="1.6"/>
<circle class="st1" cx="168.7" cy="163.2" r="1.6"/>
<circle class="st1" cx="163.4" cy="163.2" r="1.6"/>
<circle class="st1" cx="155.4" cy="159.2" r="1.6"/>
<circle class="st1" cx="158.1" cy="163.2" r="1.6"/>
<circle class="st1" cx="150.1" cy="159.2" r="1.6"/>
<circle class="st1" cx="152.7" cy="163.2" r="1.6"/>
<circle class="st1" cx="144.7" cy="159.2" r="1.6"/>
<circle class="st1" cx="147.4" cy="163.2" r="1.6"/>
<path class="st2" d="M113.4,192.7c3.4,0,6.2-2.8,6.2-6.2s-2.8-6.2-6.2-6.2c-3.4,0-6.2,2.8-6.2,6.2
	C107.2,189.9,110,192.7,113.4,192.7z M110.4,186.5c0-1.7,1.4-3.1,3.1-3.1s3.1,1.4,3.1,3.1s-1.4,3.1-3.1,3.1
	C111.8,189.6,110.4,188.2,110.4,186.5L110.4,186.5z"/>
<path class="st2" d="M113.4,218c3.4,0,6.2-2.8,6.2-6.2c0-3.4-2.8-6.2-6.2-6.2s-6.2,2.8-6.2,6.2l0,0C107.2,215.3,110,218,113.4,218z
	 M110.4,211.8c0-1.7,1.4-3.1,3.1-3.1c1.7,0,3.1,1.4,3.1,3.1c0,1.7-1.4,3.1-3.1,3.1h0C111.7,214.9,110.4,213.5,110.4,211.8
	C110.4,211.8,110.4,211.8,110.4,211.8L110.4,211.8z"/>
<path class="st0" d="M179.5,179.9c-0.4-1.8-1.9-3.4-4.3-4.8c2.6-0.9,4.4-3.3,4.4-6.1v-15.7c0-3.5-2.9-6.4-6.4-6.4h-67.6
	c-3.5,0-6.4,2.9-6.4,6.4V169c0,1.9,0.8,3.6,2.2,4.8c-1.4,1.2-2.2,3-2.2,4.8v15.7c0,1.8,0.8,3.6,2.2,4.8c-1.4,1.2-2.2,3-2.2,4.8v15.7
	c0,3.5,2.9,6.4,6.4,6.4h0h37.1c3.8,0.7,7.6,1,11.4,1c15.9,0,24.3-4.6,25.4-8.9c0.1-0.2,0.2-0.5,0.2-0.7v-36.9
	C179.6,180.3,179.6,180.1,179.5,179.9z M105.6,175.4h26.8c-2.1,1.3-3.4,2.8-3.8,4.4c-0.1,0.2-0.2,0.4-0.2,0.7v17.1h-22.9
	c-1.8,0-3.2-1.4-3.2-3.2v-15.7C102.4,176.9,103.8,175.4,105.6,175.4L105.6,175.4z M176.4,204.7c0,0.1,0,0.1,0,0.2s0,0.1,0,0.1
	c0,0.1,0,0.3-0.1,0.4c0,0.1-0.1,0.2-0.1,0.3c0,0.1-0.1,0.2-0.1,0.3c0,0.1-0.1,0.1-0.1,0.2l-0.1,0.2c-0.1,0.1-0.2,0.2-0.2,0.3
	l-0.1,0.1l-0.1,0.1c-2.6,2.5-10.3,5.1-21.4,5.1s-18.9-2.6-21.4-5.1l-0.1-0.1l-0.1-0.1c-0.1-0.1-0.2-0.2-0.3-0.4
	c-0.1-0.1-0.1-0.2-0.2-0.3c0-0.1-0.1-0.2-0.1-0.3c0-0.1-0.1-0.2-0.1-0.3v-0.1c0-0.1,0-0.2,0-0.2V205c0,0,0,0,0-0.1c0,0,0-0.1,0-0.1
	c0-0.1,0-0.1,0-0.2c0,0,0,0,0-0.1v-6.4l0,0l0.3,0.2l0.1,0.1l0.3,0.2c0.2,0.1,0.5,0.3,0.7,0.4h0.1c3.4,1.7,7.1,2.8,10.9,3.3h0.1
	c1.3,0.2,2.7,0.4,4.2,0.5l0.9,0.1l0.9,0.1l1.2,0.1h0.8c1.3,0,2.5,0,3.9,0h0.7h0.6h0.6h0.5h0.4l0.9-0.1c1.4-0.1,2.8-0.3,4.2-0.5
	c0,0,0.1,0,0.1,0c4.1-0.5,8-1.8,11.6-3.7l0.4-0.2l0.2-0.1l0.2-0.1v6.1C176.4,204.5,176.4,204.6,176.4,204.7z M144.2,202.1
	L144.2,202.1z M144.2,214.1L144.2,214.1z M176.4,192.7c0,0.1,0,0.1,0,0.2v0.1c0,0.1,0,0.3-0.1,0.4c0,0.1,0,0.2-0.1,0.2v0.1
	c0,0.1-0.1,0.2-0.1,0.3c0,0.1-0.1,0.1-0.1,0.2l-0.1,0.2c-0.1,0.1-0.2,0.2-0.2,0.3l-0.1,0.1l-0.1,0.1c-2.6,2.5-10.3,5.1-21.4,5.1
	s-18.9-2.6-21.4-5.1l-0.1-0.1l-0.1-0.1c-0.1-0.1-0.2-0.2-0.3-0.4c-0.1-0.1-0.1-0.2-0.2-0.3c0-0.1-0.1-0.2-0.1-0.2
	c0-0.1-0.1-0.2-0.1-0.3c0-0.1-0.1-0.3-0.1-0.4c0-0.1,0-0.2,0-0.2c0-0.1,0-0.2,0-0.4v-6.3l0.5,0.3l0.2,0.1c0.2,0.1,0.5,0.3,0.7,0.4
	l0.3,0.2c0.3,0.1,0.6,0.3,0.9,0.4l0.2,0.1c0.3,0.1,0.6,0.3,0.9,0.4l0.3,0.1c0.4,0.1,0.8,0.3,1.1,0.4h0.1c0.4,0.1,0.8,0.3,1.2,0.4
	h0.1h0.2l0.4,0.1c0.3,0.1,0.5,0.2,0.8,0.2h0.1c0.4,0.1,0.9,0.2,1.3,0.3l0.7,0.2l0.8,0.2h0.2l1.4,0.2h0.1h0.2l0.5,0.1l0.6,0.1h0.3
	c0.5,0.1,1,0.1,1.4,0.2h0.2h0.2l1.1,0.1h0.2h0.2l1.5,0.1h0.2l1.3,0.1h0.4c0.7,0,1.5,0,2.2,0c0.4,0,0.8,0,1.1,0l1.3-0.1
	c0.1,0,0.2,0,0.2,0l1.5-0.1h0.4l1.1-0.1h0.2h0.2l1.8-0.2c0.4-0.1,0.8-0.1,1.2-0.2h0.2h0.2l1.3-0.2h0.2l0.4-0.1l0.8-0.2l0.3-0.1
	c0.4-0.1,0.9-0.2,1.4-0.3h0.1l1.2-0.3h0.2h0.2l0.2-0.1l0.9-0.3h0.1l0.6-0.2l0.5-0.2l0.3-0.1c0.3-0.1,0.6-0.3,0.9-0.4l0.1-0.1l1-0.5
	l0.2-0.1l0.2-0.1l0.5-0.3l0.2-0.1l0.5-0.3v6.1C176.5,192.3,176.4,192.5,176.4,192.7z M170.2,185.6c-5.2,1.6-10.6,2.4-16.1,2.3
	c-12.6,0-22.4-3.7-22.4-6.9c0-0.2,0-0.3,0.1-0.4c0-0.2,0.1-0.3,0.2-0.5l0.1-0.1l0,0c0.7-0.9,1.6-1.7,2.6-2.1l0.2-0.1
	c0.2-0.1,0.5-0.2,0.7-0.4s0.6-0.3,0.9-0.4l0.2-0.1c1.8-0.7,3.6-1.2,5.5-1.6c0.6-0.1,1.3-0.3,2-0.4h0.3h0.3c6.2-0.9,12.6-0.9,18.8,0
	h0.3h0.3c0.6,0.1,1.3,0.2,2,0.4c6.2,1.3,10.4,3.6,10.4,5.7C176.4,182.6,174.1,184.3,170.2,185.6L170.2,185.6z M176.4,169.1
	c0,1.8-1.4,3.2-3.2,3.2h-6.1h-0.2c-1-0.2-1.9-0.4-2.7-0.5h-0.3c-6.5-1-13.2-1-19.7,0H144c-0.8,0.1-1.7,0.3-2.7,0.5h-0.2h-35.5
	c-1.8,0-3.2-1.5-3.2-3.2v-15.7c0-1.8,1.4-3.2,3.2-3.2h67.6c1.8,0,3.2,1.4,3.2,3.2L176.4,169.1L176.4,169.1z M102.4,204
	c0-1.8,1.4-3.2,3.2-3.2h22.9v16.8v1.6h0.5c0,0.1,0.1,0.2,0.1,0.3c0.1,0.2,0.2,0.4,0.4,0.6c0.1,0.2,0.3,0.4,0.5,0.6
	c0.1,0.1,0.2,0.2,0.3,0.3c0.6,0.6,1.2,1.1,1.9,1.5l0.1,0c0.2,0.2,0.5,0.3,0.8,0.5h-27.4c-1.8,0-3.2-1.4-3.2-3.2V204L102.4,204z
	 M131.7,210.1L131.7,210.1l0.3,0.2l0.1,0.1l0.3,0.2c0.2,0.2,0.5,0.3,0.7,0.4h0.1c3.4,1.7,7.1,2.8,10.9,3.3h0.1
	c1.3,0.2,2.7,0.4,4.2,0.5l0.9,0.1l0.9,0l1.2,0h0.8c1.3,0,2.5,0,3.9,0h0.7h0.6h0.6h0.5h0.5l0.9-0.1c1.4-0.1,2.8-0.3,4.2-0.5
	c0,0,0.1,0,0.1,0c4.1-0.5,8-1.8,11.6-3.7l0.4-0.2l0.2-0.1l0.2-0.1v7l0,0c0,0.1,0,0.1,0,0.2c-0.6,3.9-12.3,6.7-22.4,6.7
	c-3.6,0-7.2-0.3-10.8-0.9l-0.2,0c-6.8-1.3-10.2-3.4-11.1-5c0,0,0-0.1-0.1-0.1v-0.1c-0.1-0.1-0.1-0.3-0.1-0.4v-7.2L131.7,210.1z"/>
<path class="st0" d="M158.6,277.8c-2.6-7.7-11-11.9-18.7-9.3c-7.7,2.6-11.9,11-9.3,18.7s11,11.9,18.7,9.3c0,0,0,0,0,0
	C157,293.9,161.2,285.5,158.6,277.8z M148.2,293.2c-5.9,2-12.3-1.2-14.3-7.1s1.2-12.3,7.1-14.3c5.9-2,12.3,1.2,14.3,7.1
	C157.3,284.8,154.1,291.2,148.2,293.2C148.3,293.2,148.2,293.2,148.2,293.2L148.2,293.2z"/>
<path class="st1" d="M141.6,273.5c-0.8,0.4-1.3,1.3-1.1,2.2l0.1,0.3c-1.7,1.2-2.5,3.3-1.9,5.3c0.4,1.2,1.2,2.2,2.4,2.8
	c1.3,0.6,2.8,0.6,4.1,0.1c0.5-0.2,1-0.3,1.5-0.1c0.3,0.2,0.5,0.5,0.6,0.8c0,0.8-0.5,1.5-1.2,1.7c-0.7,0.3-1.5,0.3-2.1-0.2
	c-0.7-0.6-1.8-0.6-2.5,0.1c-0.6,0.7-0.6,1.8,0.1,2.4c1.1,1,2.5,1.4,3.9,1.3l0.1,0.2c0.3,0.9,1.3,1.4,2.2,1.1
	c0.9-0.3,1.4-1.3,1.1-2.2l-0.1-0.2c2.2-1.5,2.7-4.5,1.2-6.6c-0.4-0.6-1-1.2-1.7-1.5c-1.3-0.6-2.8-0.6-4.1-0.1
	c-0.5,0.2-1,0.3-1.5,0.1c-0.3-0.2-0.5-0.5-0.6-0.8c0-0.8,0.5-1.5,1.2-1.7c0.7-0.3,1.5-0.3,2.1,0.1c0.7,0.6,1.8,0.6,2.5-0.1
	c0.6-0.7,0.6-1.8-0.1-2.4c-1-1-2.5-1.4-3.9-1.3l-0.1-0.2C143.4,273.7,142.5,273.2,141.6,273.5z"/>
<path class="st1" d="M127.9,287.2c-0.9-2.7-3.9-4.2-6.6-3.3c-2.7,0.9-4.2,3.9-3.3,6.6c0.9,2.7,3.9,4.2,6.6,3.3
	C127.4,292.9,128.8,290,127.9,287.2z M123.6,290.5c-0.9,0.3-1.9-0.2-2.2-1.1c-0.3-0.9,0.2-1.9,1.1-2.2c0.9-0.3,1.9,0.2,2.2,1.1
	C125,289.2,124.5,290.2,123.6,290.5C123.6,290.5,123.6,290.5,123.6,290.5L123.6,290.5z"/>
<path class="st1" d="M170.6,272.9c-0.9-2.7-3.9-4.2-6.6-3.3c-2.7,0.9-4.2,3.9-3.3,6.6c0.9,2.7,3.9,4.2,6.6,3.3
	C170.1,278.5,171.5,275.6,170.6,272.9z M166.2,276.2c-0.9,0.3-1.9-0.2-2.2-1.1c-0.3-0.9,0.2-1.9,1.1-2.2c0.9-0.3,1.9,0.2,2.2,1.1
	C167.7,274.9,167.2,275.8,166.2,276.2C166.3,276.1,166.3,276.2,166.2,276.2z"/>
<path class="st0" d="M183.5,278.6c0-0.1-0.1-0.3-0.2-0.4l-9-13.4l-3.5-10.3c-0.3-0.9-1.3-1.4-2.2-1.1L167,254l-3.8-5.6
	c-0.4-0.7-1.3-0.9-2-0.7c-0.1,0.1-0.3,0.1-0.4,0.2l-24.3,16.4l-28.6,9.6c-0.9,0.4-1.3,1.3-1.1,2.2l2.2,6.6l-2.6,1.8
	c-0.6,0.5-0.9,1.3-0.7,2c0,0.1,0.1,0.3,0.2,0.4l9,13.4l3.5,10.3c0.3,0.9,1.3,1.4,2.2,1.1l1.6-0.5l3.8,5.6c0.5,0.6,1.3,0.9,2,0.7
	c0.1-0.1,0.3-0.1,0.4-0.2l24.2-16.3l28.7-9.7c0.9-0.3,1.4-1.3,1.1-2.2l-2.2-6.7l2.6-1.8C183.5,280.1,183.7,279.3,183.5,278.6z
	 M161.3,251.7l2.3,3.4l-14.7,5L161.3,251.7z M109.8,286.4l0.4-0.3l0.6,1.7L109.8,286.4z M127.9,313.3l-2.3-3.4l14.6-4.9L127.9,313.3
	z M121.1,307.8l-10.5-31.2l57.5-19.4l10.5,31.2L121.1,307.8z M179.1,278.9l-0.6-1.7l1,1.4L179.1,278.9z"/>
<path class="st2" d="M534.9,160.2c0,1.1,0.9,2,2,2h47.3c1.1,0,2-0.9,2-2s-0.9-2-2-2h-7.5l-3.7-17.3c-0.2-0.9-1-1.6-2-1.6h-4.4v-0.4
	L570,100l3.7-3.3c0.4-0.4,0.7-0.9,0.7-1.4c0.4-8.9,0.2-13.1-0.1-14.1c-0.6-1.7-1.7-3.2-3.1-4.3c-1.7-1.1-3.6-1.8-5.5-2.3l-0.2-0.1
	l-0.2-1.5l0.1-0.1c1.7-1.9,2.7-4.3,2.7-6.8c0-5-3.5-9.1-7.9-9.1s-7.9,4.1-7.9,9.1c0.1,2.5,1,5,2.8,6.9l0.1,0.1l-0.2,1.3h-0.2
	c-0.9,0.2-4,0.9-5.7,2.5c-1.4,1.1-2.4,2.6-3,4.3c-0.4,1.5-0.2,9.9-0.1,14c0,0.5,0.3,1,0.7,1.4l3.5,3.3l3.5,39.3H549
	c-0.9,0-1.8,0.7-2,1.6l-3.7,17.3H537C535.9,158.2,535,159.1,534.9,160.2C534.9,160.2,534.9,160.2,534.9,160.2z M553.5,97.6l-3.5-3.2
	v-0.1c-0.1-5.7-0.2-10.8,0-11.8c0.4-1,1-1.8,1.8-2.4c1-0.9,3.8-1.6,5.4-1.8c0.9-0.1,1.6-0.8,1.7-1.7l0.6-3.9
	c0.1-0.7-0.2-1.4-0.7-1.8c-1.4-1.1-2.3-2.8-2.4-4.7c0-2.8,1.8-5.1,3.9-5.1s3.9,2.3,3.9,5.1c-0.1,1.8-0.9,3.5-2.2,4.8
	c-0.5,0.4-0.8,1-0.7,1.7l0.5,3.9c0.1,0.8,0.7,1.5,1.5,1.7c2,0.4,3.9,1.1,5.7,2.1c0.7,0.6,1.3,1.4,1.6,2.3c0.2,1.1,0.2,6.2,0,11.7
	v0.1l-3.9,3.6c0,0.1-0.1,0.1-0.1,0.1c0,0.1-0.1,0.2-0.2,0.3c0,0.1-0.1,0.1-0.1,0.1v0.3l-3.3,40.4h-5l-3.8-40.4
	C554.1,98.4,553.8,97.9,553.5,97.6L553.5,97.6z M550.7,143.3h18.8l3.2,14.9h-25.2L550.7,143.3z"/>
<path class="st0" d="M439,202.5c6.2,0,11.2-5,11.2-11.2c0-6.2-5-11.2-11.2-11.2c-1.9,0-3.8,0.5-5.5,1.4l-0.7,0.4l-30-30l18.1-18.1
	l0.7,0.4c5.4,3,12.2,1.1,15.2-4.3c3-5.4,1.1-12.2-4.3-15.2c-5.4-3-12.2-1.1-15.2,4.3c-1.9,3.4-1.9,7.6,0,11l0.4,0.7l-35.9,35.9
	l-22.1-22.1c-0.9-0.9-2.3-0.9-3.2,0l-25.7,25.7l-0.7-0.4c-5.4-3-12.2-1.1-15.2,4.3c-3,5.4-1.1,12.2,4.3,15.2
	c5.4,3,12.2,1.1,15.2-4.3c1.9-3.4,1.9-7.6,0-11l-0.4-0.7l24.1-24.1l22.1,22.1c0.4,0.4,1,0.7,1.6,0.7l0,0c0.6,0,1.2-0.2,1.6-0.7
	l16.1-16.1l30,30l-0.4,0.7c-3,5.4-1.1,12.2,4.3,15.2C435.2,202,437.1,202.5,439,202.5z M434.3,186.7c2.6-2.6,6.7-2.6,9.3,0
	s2.6,6.7,0,9.3l0,0c-2.6,2.6-6.7,2.6-9.3,0S431.7,189.3,434.3,186.7z M422.5,119.9c2.6-2.6,6.7-2.6,9.3,0c2.6,2.6,2.6,6.7,0,9.3
	c-2.6,2.6-6.7,2.6-9.3,0l-0.1-0.1C419.9,126.6,419.9,122.4,422.5,119.9C422.5,119.9,422.5,119.8,422.5,119.9L422.5,119.9z
	 M329.5,184.2c-2.6,2.6-6.7,2.6-9.3,0s-2.6-6.7,0-9.3c2.5-2.5,6.6-2.6,9.2-0.1l0.2,0.2C332,177.5,332,181.6,329.5,184.2L329.5,184.2
	z"/>
<path class="st2" d="M341.6,50.2L341.6,50.2c0.7,0,1.2-0.3,1.6-0.8c0.3-0.4,0.5-0.9,0.4-1.4l-0.4-11.3c0-1.1-1-2-2.1-1.9
	c-1.1,0-2,1-1.9,2.1l0.4,11.5C339.6,49.4,340.5,50.2,341.6,50.2z"/>
<path class="st1" d="M359.1,45.7L359.1,45.7c0.6,0,1.1-0.3,1.5-0.7c0.4-0.4,0.6-0.9,0.6-1.5c0-0.6-0.3-1.1-0.7-1.4l-0.1-0.1
	c-0.8-0.6-2-0.6-2.8,0.1l-0.1,0.1c-0.4,0.4-0.6,0.9-0.6,1.5c0,0.6,0.3,1.1,0.7,1.4C358,45.5,358.6,45.7,359.1,45.7z"/>
<path class="st1" d="M353.9,49.2c0.4,0.3,0.9,0.5,1.4,0.5l0,0c1.1,0,2-0.9,2-2c0-0.6-0.2-1.1-0.7-1.5c-0.8-0.8-2.1-0.7-2.9,0.1
	c-0.4,0.4-0.6,1-0.5,1.6C353.2,48.5,353.4,48.9,353.9,49.2z"/>
<path class="st2" d="M352.9,60.6c-0.8,0.8-0.7,2.1,0.1,2.8c0.4,0.4,0.9,0.6,1.4,0.6h0.1l11.4-0.4c1.1,0,2-0.9,2-2
	c0-0.5-0.2-1.1-0.6-1.4c-0.4-0.4-0.9-0.6-1.4-0.5L354.3,60C353.7,60,353.2,60.2,352.9,60.6z"/>
<path class="st1" d="M351.4,53.9L351.4,53.9c0.6,0,1.1-0.3,1.5-0.7c0.7-0.8,0.7-2.1-0.1-2.8c0,0,0,0,0,0c-0.4-0.4-1-0.6-1.6-0.6
	c-0.5,0-1,0.3-1.3,0.7c-0.8,0.9-0.7,2.2,0.2,2.9C350.4,53.7,350.9,53.9,351.4,53.9z"/>
<path class="st2" d="M318.4,65.1L318.4,65.1l11.5-0.4c1.1,0,2-1,1.9-2.1c0-1.1-1-2-2.1-1.9l-11.4,0.4c-1.1,0.1-1.9,1.1-1.8,2.2
	C316.6,64.3,317.4,65,318.4,65.1z"/>
<path class="st1" d="M331,53.7L331,53.7c0.6,0,1.1-0.3,1.4-0.7c0.4-0.4,0.6-0.9,0.6-1.5c0-0.6-0.3-1.1-0.7-1.4
	c-0.4-0.4-1-0.6-1.6-0.6c-0.5,0-1,0.3-1.3,0.7c-0.4,0.4-0.5,0.9-0.5,1.5c0,0.5,0.2,1,0.6,1.4C329.9,53.5,330.5,53.7,331,53.7z
	 M331,52.7L331,52.7z"/>
<path class="st0" d="M368.1,78.3c-0.2-4.4-3.9-7.9-8.3-7.8L349,70.9l-0.2-7.5c-0.1-3.7-1.3-6.3-3.6-7.8c-3.2-2.2-7.4-1.2-8.4-0.8
	l0,0c-0.9,0.3-1.4,1.1-1.4,2l0.3,9.2c0.2,6.8-7.9,9.4-7.9,9.4c-0.1,0-0.3,0.1-0.4,0.2c-0.7-0.5-1.5-0.8-2.3-0.8l-8.1,0.2
	c-2,0.1-3.5,1.7-3.5,3.7l0.8,24.5c0.1,2,1.7,3.5,3.7,3.5l8.1-0.2c1,0,1.9-0.4,2.5-1.1c1.4,1.1,3.1,1.7,4.9,1.6h0.3l22.5-0.7
	c5.3-0.2,8.7-3.2,9.2-8.1l2.5-19.4L368.1,78.3L368.1,78.3z M329.1,79.1c1.6-0.5,11.1-4.2,10.8-13.3l-0.2-7.5c1.2-0.2,2.3,0,3.4,0.6
	c1.1,0.7,1.7,2.3,1.8,4.7l0.3,9.6c0,0.5,0.2,1,0.6,1.4c0.4,0.4,0.9,0.5,1.4,0.5h1v-0.2l11.6-0.4c2.2-0.1,4,1.6,4.1,3.8l-2.4,19.3
	c-0.1,1.1-0.4,4.3-5.3,4.4l-22.5,0.7c-2.2,0.1-4-1.7-4.1-3.9L329.1,79.1L329.1,79.1L329.1,79.1L329.1,79.1z M318.4,102.5l-0.7-23.5
	l7.2-0.2l0.7,23.5L318.4,102.5z"/>
<path class="st1" d="M322.7,46L322.7,46h0.3l0.3-0.1c0.3-0.1,0.6-0.3,0.8-0.5l0,0c0.4-0.4,0.6-0.9,0.6-1.5c0-0.6-0.3-1.1-0.7-1.4
	c-0.4-0.4-1-0.6-1.6-0.6c-0.5,0-1,0.3-1.3,0.7c-0.7,0.9-0.6,2.2,0.2,2.9C321.8,45.8,322.2,46,322.7,46z"/>
<path class="st1" d="M325.5,49.3c0.4,0.4,0.9,0.6,1.4,0.6h0.1c0.5,0,1-0.3,1.4-0.7l0,0c0.4-0.4,0.6-1,0.5-1.6c0-0.5-0.3-1-0.7-1.3
	c-0.4-0.4-1-0.6-1.5-0.5c-0.5,0-1,0.3-1.3,0.7c-0.4,0.4-0.6,1-0.5,1.5C324.8,48.5,325.1,49,325.5,49.3z"/>
<polygon class="st2" points="228.3,224.5 224.9,224.5 224.9,231.7 228.3,231.7 "/>
<polygon class="st2" points="233.8,220.4 230.4,220.4 230.4,231.7 233.8,231.7 "/>
<polygon class="st2" points="239.4,215.8 236,215.8 236,231.7 239.4,231.7 "/>
<polygon class="st1" points="245,211.2 241.5,211.2 241.5,231.7 245,231.7 "/>
<polygon class="st2" points="250.5,208.2 247.1,208.2 247.1,231.7 250.5,231.7 "/>
<path class="st1" d="M274.2,216.9v17.9h17.9c-2,7.9-10,12.8-17.9,10.8c-7.9-2-12.8-10-10.8-17.9
	C264.7,222.4,268.8,218.2,274.2,216.9 M277.7,212.9c-10.1,0-18.3,8.2-18.3,18.3c0,10.1,8.2,18.3,18.3,18.3
	c10.1,0,18.3-8.2,18.3-18.3h-18.3L277.7,212.9L277.7,212.9L277.7,212.9z"/>
<path class="st2" d="M284.5,213.6c5.4,1.3,9.6,5.5,10.9,10.9h-10.9V213.6 M281,209.7V228h18.3C299.3,217.9,291.1,209.7,281,209.7
	C281,209.7,281,209.7,281,209.7L281,209.7z"/>
<polygon class="st0" points="224.5,254.1 221.8,251.8 232.5,239 241.3,248.4 248.4,239.9 251.1,242.2 241.4,253.7 232.7,244.3 "/>
<polygon class="st0" points="253.1,237.6 244.8,239.9 250.9,246.3 "/>
<path class="st0" d="M305.3,200.4V261h-88.8v-60.6H305.3 M306,196.9h-90.2c-1.6,0-2.8,1.3-2.8,2.8v64.8h95.8v-64.8
	C308.8,198.2,307.6,196.9,306,196.9L306,196.9L306,196.9z M308.8,264.5L308.8,264.5z"/>
<path class="st0" d="M317.3,269.8v-1.8h-46.9c-0.2,1-1.1,1.8-2.2,1.8h-14.6c-1.1,0-2-0.7-2.2-1.8h-46.9v1.8l0,0l5.6,3.5h101.5
	L317.3,269.8L317.3,269.8L317.3,269.8z"/>
<path class="st0" d="M399.4,242.6c0.2-4.4-3.3-8.1-7.7-8.3c-4.4-0.2-8.1,3.3-8.3,7.7c-0.2,4.4,3.3,8.1,7.7,8.3c0,0,0.1,0,0.1,0h0.3
	C395.8,250.3,399.3,246.9,399.4,242.6z M394.4,245.5c-1.7,1.6-4.5,1.5-6.1-0.2c-1.6-1.7-1.5-4.5,0.2-6.1c1.7-1.6,4.5-1.5,6.1,0.2
	c0,0,0,0,0,0C396.2,241.2,396.1,243.9,394.4,245.5L394.4,245.5z"/>
<path class="st0" d="M402.6,211.9c-0.9-0.3-2,0.1-2.3,1.1l-6,16.4c-0.2,0.5-0.1,1,0.1,1.4c0.2,0.4,0.6,0.8,1,0.9
	c3.4,1.2,6,4,6.9,7.4c0.1,0.3,0.2,0.5,0.4,0.8l0,0c0.1,0.1,0.3,0.3,0.5,0.4c0.4,0.2,0.9,0.3,1.4,0.2l16.7-4.8c1-0.3,1.5-1.3,1.2-2.2
	C419.7,223.4,412.3,215.4,402.6,211.9z M418.6,232.6l-13.3,3.8c-1.4-3.2-3.8-5.8-6.9-7.4l4.7-13
	C410.3,219.1,415.9,225.2,418.6,232.6L418.6,232.6z"/>
<path class="st0" d="M387.5,253c-3.4-1.2-6-4-7-7.4c-0.3-1-1.3-1.5-2.2-1.2c0,0,0,0,0,0l-16.7,4.8c-1,0.3-1.5,1.3-1.2,2.2
	c2.8,9.9,10.3,17.9,20,21.4c0.9,0.3,2-0.1,2.3-1.1l6-16.4C389,254.4,388.5,253.4,387.5,253C387.5,253,387.5,253,387.5,253z
	 M384.6,255.7l-4.7,13c-7.2-3.2-12.8-9.2-15.5-16.6l13.3-3.8C379,251.5,381.5,254.1,384.6,255.7L384.6,255.7z"/>
<path class="st0" d="M420.8,251.2l-16.4-6c-0.5-0.2-1-0.1-1.4,0.1c-0.4,0.2-0.8,0.6-0.9,1c-0.6,1.7-1.6,3.2-2.9,4.4
	c-1.3,1.2-2.9,2.1-4.6,2.6c-0.5,0.1-0.9,0.4-1.1,0.9c-0.2,0.4-0.3,0.9-0.2,1.4l4.8,16.7c0.1,0.3,0.2,0.5,0.4,0.7
	c0.3,0.4,0.8,0.6,1.3,0.6c0.2,0,0.3,0,0.5-0.1c9.9-2.8,17.9-10.3,21.4-20C422.2,252.5,421.7,251.5,420.8,251.2z M417.8,254
	c-3.2,7.2-9.2,12.8-16.6,15.5l-3.8-13.3c3.2-1.4,5.9-3.8,7.4-6.9L417.8,254z"/>
<path class="st0" d="M362.1,233.5l16.4,6c0.2,0.1,0.4,0.1,0.6,0.1c0.8,0,1.4-0.5,1.7-1.2c1.2-3.4,4-6,7.5-7c0.5-0.1,0.9-0.4,1.1-0.9
	c0.2-0.4,0.3-0.9,0.2-1.4l-4.8-16.7c-0.3-1-1.3-1.5-2.2-1.2c-9.9,2.8-17.9,10.3-21.4,20c-0.2,0.6-0.1,1.4,0.4,1.9
	C361.6,233.3,361.8,233.4,362.1,233.5z M365.1,230.7c3.2-7.2,9.2-12.8,16.6-15.5l3.8,13.3c-3.2,1.4-5.9,3.8-7.4,6.9L365.1,230.7z"/>
<path class="st0" d="M443.7,242.8c-0.3-0.3-0.8-0.5-1.3-0.5l0,0c-0.5,0-0.9,0.2-1.3,0.5c-1.1,1.1-4.5,3.8-7.3,3.1
	c-2-0.5-3.5-2.7-4.6-6.5c-1.6-20.9-19.8-36.6-40.7-35c-20.9,1.6-36.6,19.8-35,40.7c1.6,20.9,19.8,36.6,40.7,35
	c18-1.4,32.6-15.2,34.8-33.2l0.1,0.1c1,1.1,2.3,2,3.8,2.3c0.6,0.1,1.2,0.2,1.8,0.2c4.6,0,8.8-4.1,9-4.3
	C444.4,244.7,444.4,243.5,443.7,242.8z M425.7,243.5c-0.7,18.9-16.5,33.6-35.4,32.9c-18.9-0.7-33.6-16.5-32.9-35.4
	s16.5-33.6,35.4-32.9c9,0.3,17.6,4.2,23.8,10.8C422.7,225.6,426,234.5,425.7,243.5L425.7,243.5z"/>
<path class="st0" d="M293.2,145.7l2.1-13.5c0.2-1-0.5-1.8-1.5-2l-4.4-0.7l0.2-1.2c0.2-1-0.5-1.8-1.5-2l-6.7-1.1l-0.1-0.1
	c-0.1-0.2-0.2-0.3-0.3-0.4l-9.4-13c-0.3-0.4-0.7-0.6-1.1-0.7l-33.4-5.3l0.3-1.7c0.2-1-0.5-1.8-1.5-2L209,97.6c-1-0.2-1.8,0.5-2,1.4
	l-1.1,6.8c-0.2,1,0.5,1.8,1.4,2l26.8,4.3c1,0.2,1.8-0.5,2-1.4l0.3-1.7l2.8,0.4l7.4,10.2l-12.8-2c-1-0.2-1.8,0.5-2,1.4l-1.7,10.8
	l-12-1.9h-0.1l-11.1-9c-0.5-0.4-1.1-0.5-1.7-0.3c-0.6,0.2-1,0.7-1.1,1.4l-4.8,30c-0.1,0.6,0.1,1.2,0.6,1.6c0.5,0.4,1.1,0.5,1.7,0.3
	l13.4-5.1h0.1l11.9,1.9l-1.7,11c-0.2,1,0.5,1.8,1.5,2l54.3,8.6c1,0.2,1.8-0.5,2-1.4l3.5-22.4l4.4,0.7
	C292.1,147.4,293,146.7,293.2,145.7C293.2,145.8,293.2,145.7,293.2,145.7z M233.1,108.5l-23.4-3.7l0.5-3.4l23.4,3.7L233.1,108.5z
	 M244.2,110.3l25.1,4l6.6,9.2l-25.1-4L244.2,110.3z M213.7,143.5l-10.4,4l3.8-24l8.6,7L213.7,143.5z M220.7,144l-3.5-0.6l1.9-11.9
	l3.5,0.6L220.7,144z M224.2,144.6l1.9-11.9l3.5,0.6l-1.9,11.9L224.2,144.6z M280,166.6l-50.9-8.1l5.9-37.1l50.9,8.1L280,166.6z
	 M290,143.5l-2.7-0.4l1.6-10l2.7,0.4L290,143.5z"/>
<path class="st2" d="M239.9,130.3l-2.4,15c-0.2,1,0.5,1.8,1.5,2l15.1,2.4c1,0.2,1.8-0.5,2-1.4l2.4-15c0.2-1-0.5-1.8-1.5-2l-15-2.4
	C241,128.7,240.1,129.3,239.9,130.3C239.9,130.3,239.9,130.3,239.9,130.3z M243,132.6l11.6,1.8l-1.8,11.6l-11.6-1.8L243,132.6z"/>
<path class="st1" d="M273.3,133.9c-0.3,0-0.6-0.1-0.9-0.1c-3.1,0-5.6,2.5-5.6,5.6c0,3.1,2.5,5.6,5.6,5.6s5.6-2.5,5.6-5.6
	C278,136.6,276,134.3,273.3,133.9z M274.5,139.7c-0.2,1-1,1.7-2,1.7h-0.3c-1.1-0.2-1.9-1.2-1.7-2.4c0-1.1,1-2,2.1-2c1.1,0,2,1,2,2.1
	C274.5,139.4,274.5,139.6,274.5,139.7L274.5,139.7z"/>
<path class="st1" d="M264.7,152.6c-0.5,3,1.6,5.9,4.6,6.3s5.9-1.6,6.3-4.6c0.5-3-1.6-5.9-4.6-6.3C268,147.5,265.2,149.6,264.7,152.6
	z M268.2,153.2c0.2-1.1,1.2-1.9,2.4-1.7s1.9,1.2,1.7,2.4c-0.2,1-1,1.8-2.1,1.7h-0.3C268.7,155.4,268,154.3,268.2,153.2z"/>
<path class="st0" d="M504.7,39.3c-0.9-15.9-14-28.6-29.9-28.6c-9.7,0.1-18.8,4.6-24.6,12.4l-0.4-0.2c-0.4-0.2-0.7-0.3-1.1-0.5
	c-0.2-0.1-0.4-0.2-0.6-0.2s-0.7-0.2-1.1-0.3s-0.4-0.2-0.6-0.2c-0.4-0.1-0.8-0.2-1.2-0.2c-0.2,0-0.4-0.1-0.5-0.1
	c-0.6-0.1-1.2-0.1-1.8-0.1c-8.8,0-15.9,7.1-15.9,15.9c0,0.2,0,0.4,0,0.7c-7.5,4.3-12.2,12.2-12.4,20.8c0,12.5,10.2,22.7,22.7,22.7
	h9.1c1,0,1.8-0.8,1.8-1.8c0-1-0.8-1.8-1.8-1.8h-9.1c-10.6,0-19.2-8.6-19.2-19.2c0.2-7.7,4.6-14.6,11.4-18.1l1-0.5V39
	c0-0.2,0-0.4,0-0.7V38v-0.3c0-0.1,0-0.3,0-0.4c0-6.8,5.5-12.4,12.4-12.4c0.5,0,1.1,0,1.6,0.1l0.4,0.1c0.5,0.1,0.9,0.2,1.4,0.3
	l0.2,0.1c0.5,0.2,1,0.4,1.5,0.6l0.4,0.2c0.4,0.2,0.8,0.4,1.2,0.7c3.5,2.3,5.6,6.2,5.7,10.4c0,1,0.8,1.8,1.8,1.8c1,0,1.8-0.8,1.8-1.8
	c0-4.7-2.1-9.1-5.7-12.1c5.2-6.7,13.2-10.7,21.7-10.8c13.7,0,25.1,10.8,26.3,24.5c-2.4-0.2-4.8-0.1-7.2,0.2c-1,0.1-1.6,1-1.5,2
	c0.1,0.9,0.9,1.5,1.8,1.5c0.1,0,0.2,0,0.3,0c2.7-0.4,5.5-0.4,8.3,0c8.4,1.7,14.4,9.1,14.4,17.7c0,9.8-8,17.7-17.7,17.7h-7
	c-1,0-1.8,0.8-1.8,1.8c0,1,0.8,1.8,1.8,1.8h7c11.7,0,21.2-9.5,21.3-21.3C520.6,50.4,514,41.9,504.7,39.3z"/>
<path class="st1" d="M482.2,65c0.7,0.7,1.8,0.7,2.5,0c0.7-0.7,0.7-1.8,0-2.5c0,0,0,0,0,0l-14.1-14.1c-0.2-0.2-0.4-0.3-0.6-0.4
	c-0.7-0.3-1.4-0.1-1.9,0.4L454,62.5c-0.7,0.7-0.7,1.8,0,2.5c0,0,0,0,0,0c0.7,0.7,1.8,0.7,2.5,0l11.1-11.1v44.5l-11.1-11.1
	c-0.6-0.7-1.7-0.8-2.5-0.2s-0.8,1.7-0.2,2.5c0.1,0.1,0.1,0.1,0.2,0.2l14.1,14.1c0.2,0.2,0.4,0.3,0.6,0.4c0.2,0.1,0.4,0.1,0.6,0.1
	c0.5,0,0.9-0.2,1.2-0.5l14.1-14.1c0.7-0.7,0.7-1.8,0-2.5c-0.7-0.7-1.8-0.7-2.5,0l0,0l-11.1,11.1V53.8L482.2,65z"/>
<path class="st0" d="M648,321.7l80-6.7c0.8-0.1,1.4-0.8,1.4-1.6l-4.2-49.8c-0.1-0.8-0.8-1.4-1.6-1.4l-80,6.7
	c-0.8,0.1-1.4,0.8-1.4,1.6l4.2,49.8C646.5,321.2,647.2,321.8,648,321.7z M645.3,271.7l77-6.4l3.9,46.8l-77,6.4L645.3,271.7z"/>
<path class="st1" d="M678.1,301c0.4,0.2,0.9,0.3,1.3,0.3c0.4,0,0.8-0.2,1.1-0.4l15.7-9.5c1.2-0.7,1.6-2.2,0.9-3.3
	c-0.3-0.5-0.7-0.9-1.3-1.1l-17-6.8c-0.8-0.3-1.7-0.2-2.4,0.3c-0.7,0.5-1,1.3-1,2.2l1.4,16.3C676.8,299.9,677.3,300.6,678.1,301z
	 M678.4,283.2l15.4,6.1l-14.1,8.6L678.4,283.2z"/>
<path class="st0" d="M717.4,305.4l-52.7,4.4c-1-2-3.4-2.7-5.4-1.7c-0.9,0.5-1.7,1.3-2,2.3H657c-0.8,0.1-1.4,0.8-1.4,1.6
	s0.8,1.4,1.6,1.4h0.3c1,2,3.4,2.7,5.4,1.7c0.9-0.5,1.7-1.3,2-2.3l52.7-4.4c0.8-0.1,1.4-0.8,1.4-1.6C719,306,718.3,305.4,717.4,305.4
	C717.5,305.4,717.4,305.4,717.4,305.4z M661.2,312.6c-0.6,0-1-0.4-1.1-0.9c0-0.6,0.4-1,0.9-1.1c0.6,0,1,0.4,1.1,0.9c0,0,0,0,0,0
	c0.1,0.5-0.3,1-0.8,1.1C661.3,312.6,661.3,312.6,661.2,312.6L661.2,312.6z"/>
<path class="st0" d="M636.5,139.2h0.2c1,0,1.8-0.8,1.8-1.8c0,0,0,0,0,0v-29.6c0.1-1-0.7-1.8-1.6-1.9c-1-0.1-1.8,0.7-1.9,1.6
	c0,0.1,0,0.2,0,0.3v29.6C634.9,138.4,635.6,139.1,636.5,139.2z"/>
<path class="st0" d="M650,140.4h0.2c0.9,0.1,1.7-0.5,1.9-1.4l5.2-29.2c0.1-1-0.6-1.9-1.6-2c-0.9-0.1-1.7,0.5-1.9,1.3l-5.2,29.2
	C648.4,139.3,649,140.2,650,140.4C650,140.4,650,140.4,650,140.4z"/>
<path class="st2" d="M639.1,95.2c0.2,0.1,0.4,0.1,0.6,0.1c0.7,0.1,1.4-0.3,1.8-1c0.4-0.9,1.3-1.4,2.2-1.3c0.5,0,1,0.3,1.4,0.6
	c0.7,0.7,1.8,0.7,2.5,0c0.7-0.7,0.7-1.8,0-2.5c-1-0.9-2.2-1.4-3.5-1.6c-2.5-0.2-4.8,1.1-5.8,3.4C637.9,93.8,638.3,94.8,639.1,95.2z"
	/>
<path class="st0" d="M680.1,96.1c0.7-8-5.2-15.1-13.3-15.8c-1.3-0.1-2.6-0.1-3.9,0.2c-1.5-6.2-6.9-10.8-13.3-11.4
	c-6.6-0.6-12.7,3.2-15.3,9.2c-1.4-0.6-2.9-1-4.4-1.1c-7.9-0.7-14.8,5.1-15.5,13c-0.4,4,1,8.1,3.8,11v0.1l3,43.8
	c0.1,0.9,0.8,1.6,1.6,1.6l39.6,3.5c0.9,0.1,1.7-0.5,1.9-1.3l10.5-42.6v-0.2C677.9,103.6,679.8,100,680.1,96.1z M617.9,90.5
	c0.5-5.9,5.8-10.3,11.7-9.8c1.3,0.1,2.6,0.5,3.8,1c0,0.3-0.2,0.7-0.2,1c-0.1,1.1-0.1,2.1,0.1,3.2c0.1,0.9,0.8,1.6,1.7,1.7h0.3
	c0.9-0.1,1.6-0.9,1.5-1.8c0-0.1,0-0.1,0-0.2c-0.1-0.8-0.1-1.7,0-2.5c0.6-6.3,6.2-11,12.5-10.4c5,0.5,9.1,4.1,10.3,9
	c-2.4,1.1-4.5,2.8-6,5c-0.5,0.8-0.3,1.9,0.5,2.4s1.9,0.3,2.4-0.5l0,0c3.5-5,10.4-6.3,15.4-2.8c3.2,2.3,5,6.1,4.7,10
	c-0.2,3.1-1.8,5.9-4.2,7.7c-0.1,0.1-0.2,0.2-0.3,0.3l-50.6-4.4l0,0C619,97.2,617.6,93.9,617.9,90.5z M661.4,146.5l-36.6-3.2
	l-2.7-40.2l49,4.3L661.4,146.5z"/>
<path class="st2" d="M540.1,307.8c-0.2-0.1-0.4-0.1-0.6-0.1l-8.3,0.6c-0.9,0.1-1.6,0.8-1.6,1.8c0.1,0.9,0.8,1.6,1.8,1.6
	c0,0,0,0,0.1,0l4.3-0.3l-8.1,9.4c-0.6,0.7-0.5,1.7,0.2,2.3c0,0,0,0,0,0c0.3,0.3,0.8,0.4,1.2,0.4c0.4,0,0.8-0.2,1.1-0.6l8.1-9.5
	l0.3,4.3c0.1,0.9,0.8,1.6,1.8,1.6c0.9-0.1,1.6-0.8,1.6-1.8c0,0,0,0,0-0.1l-0.6-8.3c0-0.2-0.1-0.4-0.2-0.6
	C540.8,308.3,540.5,308,540.1,307.8z"/>
<path class="st0" d="M573.2,288.5l-8.5,0.6l-3.3,0.2l-8,0.6l-40,3.1l5.3,69.6l5-0.4l9.9-0.8l6.7-0.5l1.7-0.1l16.6-1.3l1.7-0.1
	l4.3-0.3l8-0.6l4.3-0.3l1.7-0.1l16.6-1.3l1.7-0.1l8.3-0.6l8.3-0.6l5-0.4l-5.3-69.6L573.2,288.5z M536.6,357.9l-9.9,0.8l-0.4-5
	l9.9-0.8L536.6,357.9z M536,349.7l-9.9,0.8l-0.4-5l9.9-0.8L536,349.7z M554.9,356.5l-9.9,0.8l-0.4-5l9.9-0.8L554.9,356.5z
	 M554.2,348.3l-9.9,0.8l-1.1-14.9l9.9-0.8L554.2,348.3z M573.1,355.1l-9.9,0.8l-0.4-5l9.9-0.8L573.1,355.1z M572.4,346.9l-9.9,0.8
	l-1.9-24.9l9.9-0.8L572.4,346.9z M591.3,353.7l-9.9,0.8l-0.4-5l9.9-0.8L591.3,353.7z M590.6,345.4l-9.9,0.8l-1-13.2l9.9-0.8
	L590.6,345.4z M609.5,352.3l-9.9,0.8l-0.4-5l9.9-0.8L609.5,352.3z M608.9,344l-9.9,0.8l-2.7-34.8l9.9-0.8L608.9,344z M614.5,351.9
	l-1.7,0.1l-0.4-5l-0.2-3.3l-2.9-38l-16.6,1.3l2.9,38.1l0.2,3.3l0.4,5l-1.7,0.1l-0.4-5l-0.2-3.3l-1.3-16.6l-16.6,1.3l1.3,16.6
	l0.2,3.3l0.4,5l-1.7,0.1l-0.4-5l-0.2-3.3l-2.2-28.2l-16.6,1.3l2.2,28.2l0.2,3.3l0.4,5l-1.7,0.1l-0.4-5l-0.2-3.3l-1.4-18.2l-16.6,1.3
	l1.4,18.2l0.2,3.3l0.4,5l-1.7,0.1l-0.4-5l-0.2-3.3l-0.6-8.3l-16.6,1.3l0.6,8.3l0.2,3.3l0.4,5l-1.7,0.1l-4.8-63l92.8-7.1L614.5,351.9
	z"/>
<path class="st0" d="M777.5,70.6c-0.3,0-0.7,0-1,0.1c-1.6,0.5-2.8,1.6-3.4,3.1l0,0c-0.1,0.1-0.2,0.1-0.2,0.2
	c-3.5,4.4-16,19.2-30.3,22.7l-11,2.8h-0.1c-3.4,0.9-6.3,3.1-8.2,6.1c-4,6.5-2,15,4.5,19c0,0,0,0,0.1,0c3.1,1.9,6.9,2.5,10.5,1.6
	l4.8-1.2l9,18.5c1.2,2.4,3.7,4,6.4,4c1.1,0,2.1-0.2,3.1-0.7c3.5-1.7,5-5.9,3.3-9.5l-7.1-14.7c13.1,0,26.5,6.2,29,7.4
	c1.2,1.1,2.9,1.5,4.4,1.2c3-0.7,4.8-4.7,5-11.4c0.1-7.2-0.8-14.4-2.6-21.3C790.4,85.1,783.9,70.6,777.5,70.6z M738.2,122.9l-0.6,0.1
	c-2.7,0.7-5.6,0.2-7.9-1.2c-4.9-3-6.5-9.4-3.5-14.3c0,0,0,0,0-0.1c1.4-2.3,3.7-4,6.4-4.7l0.7-0.2L738.2,122.9z M772.1,92.5
	c0,0.1,0,0.1,0,0.2v0.1c0.5,3.6,1.1,7.1,2,10.6c0.9,3.6,1.9,7.2,3.2,10.7c0,0.1,0,0.1,0,0.2c0.1,0.2,0.1,0.4,0.3,0.6
	c1.2,3.3,2.7,6.5,4.4,9.5c-5.7-2.2-14.9-5.1-24.2-5.1c-3,0-6,0.3-8.9,1l-7.3,1.8l-4.9-20.2l6.7-1.6c11.9-2.9,22.6-13.1,28.2-19.3
	c0,0.4,0,0.8-0.1,1.1C771.4,85.6,771.6,89,772.1,92.5L772.1,92.5z M781.1,101.9c1,4.4,0.2,7.8-1.1,9.4c-1-2.8-1.8-5.7-2.5-8.7
	c-0.7-2.8-1.2-5.7-1.7-8.5C777.7,94.8,780,97.5,781.1,101.9L781.1,101.9z M784.4,101.1c-1.4-5.9-5.2-10.2-9.1-10.6
	c-0.3-2.8-0.4-5.5-0.3-8.3c0.2-5.3,1.4-7.9,2.4-8.2h0.2c2.4,0,8.7,8.5,12.8,25.5c1.7,6.7,2.6,13.5,2.5,20.4
	c-0.2,5.3-1.4,7.9-2.4,8.2c-0.3,0-0.6,0-0.9-0.2c-0.1-0.2-0.3-0.3-0.5-0.4l-0.4-0.2c-2.3-1.9-5.1-6.6-7.4-12.6
	C784.5,112.5,785.8,107,784.4,101.1L784.4,101.1z M757.3,129.5l-6.7,3l-4-8.2l3.1-0.7c1.4-0.3,2.9-0.6,4.4-0.7L757.3,129.5z
	 M760.2,143.8c-1.8,0.9-4,0.1-4.9-1.7l-3.2-6.5l6.7-3l3.1,6.3C762.8,140.8,762,142.9,760.2,143.8L760.2,143.8z"/>
<path class="st1" d="M814.4,95.7c0.9-0.3,1.4-1.2,1.2-2.1c-0.2-0.9-1.1-1.4-2-1.2l-9.5,2.3c-0.9,0.2-1.5,1.1-1.2,2.1
	c0.2,0.7,0.8,1.3,1.6,1.3l0,0c0.1,0,0.3,0,0.4,0L814.4,95.7z"/>
<path class="st1" d="M807.6,73.4c0.1-0.9-0.6-1.8-1.6-1.8c-0.5,0-0.9,0.1-1.2,0.4l-8.5,7.3c-0.7,0.6-0.8,1.7-0.2,2.4c0,0,0,0,0,0
	c0.3,0.4,0.7,0.6,1.2,0.6h0.1c0.4,0,0.8-0.1,1.1-0.4l8.5-7.3C807.4,74.2,807.6,73.8,807.6,73.4z"/>
<path class="st1" d="M818.5,115.5c-0.2-0.4-0.6-0.7-1-0.8l-10.5-2.6c-0.9-0.2-1.8,0.3-2.1,1.2c0,0,0,0,0,0c-0.2,0.9,0.3,1.8,1.2,2.1
	c0,0,0,0,0,0l10.5,2.6c0.1,0,0.3,0.1,0.4,0.1h0.3l0,0c0.9-0.2,1.5-1.1,1.4-2C818.7,115.8,818.6,115.6,818.5,115.5z"/>
<path class="st0" d="M756.5,209.8h-4.1v-8.1c0-2.2-1.8-4.1-4.1-4.1l0,0H732v-2c0-1.5-1.2-2.7-2.7-2.7l0,0h-4.1v-2.7
	c0-2.2-1.8-4.1-4.1-4.1l0,0h-23.7v-5.4h4.1c1.5,0,2.7-1.2,2.7-2.7c0,0,0,0,0,0v-6.1c0-1.5-1.2-2.7-2.7-2.7l0,0h-10.9
	c-1.5,0-2.7,1.2-2.7,2.7c0,0,0,0,0,0v6.1c0,1.5,1.2,2.7,2.7,2.7l0,0h4.1v5.4H671c-2.2,0-4.1,1.8-4.1,4.1v0v2.7h-4.1
	c-1.5,0-2.7,1.2-2.7,2.7c0,0,0,0,0,0v6.1c0,1.5,1.2,2.7,2.7,2.7l0,0h3.4v5.4h-3.4c-1.5,0-2.7,1.2-2.7,2.7v0v6.1
	c0,1.5,1.2,2.7,2.7,2.7h10.8c1.5,0,2.7-1.2,2.7-2.7l0,0v-6.1c0-1.5-1.2-2.7-2.7-2.7l0,0H669v-5.4h4.8c1.5,0,2.7-1.2,2.7-2.7
	c0,0,0,0,0,0v-1.4h16.2c0.8,0,1.4,0.6,1.4,1.4v8.1H690c-1.5,0-2.7,1.2-2.7,2.7v0v6.1c0,1.5,1.2,2.7,2.7,2.7l0,0h10.8
	c1.5,0,2.7-1.2,2.7-2.7l0,0v-6.1c0-1.5-1.2-2.7-2.7-2.7l0,0h-4.1v-8.1c0-2.2-1.8-4.1-4.1-4.1l0,0h-16.3v-2c0-1.5-1.2-2.7-2.7-2.7
	l0,0h-4.1v-2.7c-0.1-0.7,0.5-1.4,1.3-1.5c0,0,0.1,0,0.1,0h50.2c0.8,0,1.4,0.6,1.4,1.4v2.7h-4.1c-1.5,0-2.7,1.2-2.7,2.7c0,0,0,0,0,0
	v6.1c0,1.5,1.2,2.7,2.7,2.7l0,0h4.1v5.4h-4.1c-1.5,0-2.7,1.2-2.7,2.7v0v6.1c0,1.5,1.2,2.7,2.7,2.7l0,0h10.8c1.5,0,2.7-1.2,2.7-2.7
	l0,0v-6.1c0-1.5-1.2-2.7-2.7-2.7l0,0h-4.1v-5.4h4.1c1.5,0,2.7-1.2,2.7-2.7c0,0,0,0,0,0v-1.4h16.3c0.8,0,1.4,0.6,1.4,1.4v8.1h-4.1
	c-1.5,0-2.7,1.2-2.7,2.7v0v6.1c0,1.5,1.2,2.7,2.7,2.7l0,0h10.8c1.5,0,2.7-1.2,2.7-2.7l0,0v-6.1C759.2,211,758,209.8,756.5,209.8z
	 M697.3,213h3.1v5.1h-9.9V213H697.3z M673.3,213v5.1h-9.9V213H673.3z M670.2,196h3.1v1.1l0,0v4.1h-9.9V196L670.2,196L670.2,196z
	 M694.3,177.4h-3.1v-5.1h9.8v5.1H694.3L694.3,177.4z M728.9,212.9v5.1H719v-5.1H728.9L728.9,212.9z M728.9,197v4.1H719V196h9.9
	L728.9,197L728.9,197z M756,218h-9.9v-5.1h9.9L756,218L756,218z"/>
<path class="st0" d="M47,222.5c5.2,0,9.4-4.2,9.4-9.4c0-5.2-4.2-9.4-9.4-9.4c-5.2,0-9.4,4.2-9.4,9.4C37.6,218.3,41.8,222.5,47,222.5
	z M41,213.1c0-3.3,2.7-6,6-6s6,2.7,6,6c0,3.3-2.7,6-6,6S41,216.4,41,213.1z"/>
<path class="st1" d="M65.8,229.5c5.2,0,9.4-4.2,9.4-9.4c0-5.2-4.2-9.4-9.4-9.4s-9.4,4.2-9.4,9.4C56.4,225.3,60.6,229.5,65.8,229.5z
	 M59.8,220.1c0-3.3,2.7-6,6-6s6,2.7,6,6s-2.7,6-6,6C62.5,226.1,59.8,223.4,59.8,220.1L59.8,220.1z"/>
<path class="st2" d="M75.5,227.9c-5.2,0-9.4,4.2-9.4,9.4c0,5.2,4.2,9.4,9.4,9.4s9.4-4.2,9.4-9.4C84.9,232.1,80.7,227.9,75.5,227.9z
	 M81.5,237.3c0,3.3-2.7,6-6,6s-6-2.7-6-6s2.7-6,6-6C78.8,231.3,81.5,234,81.5,237.3L81.5,237.3z"/>
<path class="st0" d="M72.4,247.6c-5.2,0-9.4,4.2-9.4,9.4s4.2,9.4,9.4,9.4s9.4-4.2,9.4-9.4C81.8,251.8,77.6,247.6,72.4,247.6z
	 M78.4,257c0,3.3-2.7,6-6,6s-6-2.7-6-6s2.7-6,6-6C75.7,251,78.4,253.7,78.4,257L78.4,257z"/>
<path class="st1" d="M56.9,260.6c-5.2,0-9.4,4.2-9.4,9.4c0,5.2,4.2,9.4,9.4,9.4s9.4-4.2,9.4-9.4C66.3,264.8,62.1,260.6,56.9,260.6z
	 M62.9,270c0,3.3-2.7,6-6,6s-6-2.7-6-6s2.7-6,6-6C60.2,264,62.9,266.7,62.9,270L62.9,270z"/>
<path class="st2" d="M36.9,260.5c-5.2,0-9.4,4.2-9.4,9.4s4.2,9.4,9.4,9.4s9.4-4.2,9.4-9.4C46.3,264.7,42.1,260.5,36.9,260.5z
	 M42.9,269.9c0,3.3-2.7,6-6,6s-6-2.7-6-6s2.7-6,6-6C40.2,263.9,42.9,266.6,42.9,269.9L42.9,269.9z"/>
<path class="st0" d="M30.9,257.1c0-5.2-4.2-9.4-9.4-9.4s-9.4,4.2-9.4,9.4s4.2,9.4,9.4,9.4C26.7,266.5,30.9,262.3,30.9,257.1z
	 M27.5,257.1c0,3.3-2.7,6-6,6s-6-2.7-6-6s2.7-6,6-6C24.8,251.1,27.5,253.8,27.5,257.1z"/>
<path class="st1" d="M27.5,237.5c0-5.2-4.2-9.4-9.4-9.4s-9.4,4.2-9.4,9.4c0,5.2,4.2,9.4,9.4,9.4C23.2,247,27.4,242.8,27.5,237.5
	C27.5,237.5,27.5,237.5,27.5,237.5z M24,237.5c0,3.3-2.7,6-6,6s-6-2.7-6-6s2.7-6,6-6C21.3,231.6,24,234.2,24,237.5L24,237.5z"/>
<path class="st2" d="M27.9,229.5c5.2,0,9.4-4.2,9.4-9.4s-4.2-9.4-9.4-9.4s-9.4,4.2-9.4,9.4C18.5,225.3,22.7,229.5,27.9,229.5z
	 M21.9,220.1c0-3.3,2.7-6,6-6s6,2.7,6,6s-2.7,6-6,6C24.6,226.1,22,223.4,21.9,220.1L21.9,220.1z"/>
<polygon class="st0" points="49.4,230.5 49.4,227.3 51.2,227.3 47,222.9 42.7,227.3 44.5,227.3 44.5,230.5 "/>
<polygon class="st1" points="56.3,234.9 58.5,232.6 59.8,233.8 59.7,227.7 53.6,228 54.9,229.2 52.7,231.6 "/>
<polygon class="st2" points="60.9,235.6 61.3,237.4 58.1,238 59,242.8 62.1,242.2 62.5,244 65.9,239 "/>
<polygon class="st0" points="63.3,252.4 62.2,246.4 61.1,247.9 58.5,246.1 55.7,250.1 58.4,251.9 57.4,253.5 "/>
<polygon class="st1" points="53.5,260.6 56.1,255.1 54.3,255.7 53.2,252.7 48.7,254.3 49.7,257.4 48,258 "/>
<polygon class="st2" points="41.3,231.7 39.1,229.4 40.4,228.1 34.3,227.9 34.2,234 35.5,232.7 37.7,235.1 "/>
<polygon class="st0" points="32.7,247.6 31.8,246 30.2,251.9 36.1,253.4 35.2,251.8 37.9,250.2 35.5,246 "/>
<polygon class="st1" points="32.7,235.6 27.7,239.1 31.4,244 31.7,242.2 34.8,242.7 35.6,237.8 32.4,237.4 "/>
<polygon class="st2" points="40.6,252.5 39.5,255.5 37.8,255 40.5,260.4 45.9,257.7 44.2,257.1 45.2,254 "/>
<path class="st0" d="M57,242.3c0-5.5-4.5-10-10-10s-10,4.5-10,10s4.5,10,10,10S57,247.8,57,242.3z M52.8,242.3
	c0,3.2-2.6,5.7-5.8,5.7c-3.2,0-5.7-2.6-5.7-5.8c0-3.2,2.6-5.7,5.7-5.7C50.2,236.5,52.8,239.1,52.8,242.3
	C52.8,242.2,52.8,242.3,52.8,242.3L52.8,242.3z"/>
<polygon class="st0" points="799,200.4 799,144.5 796,144.5 796,203.3 872.5,203.3 872.5,200.4 "/>
<circle class="st2" cx="807.8" cy="191.6" r="2.9"/>
<circle class="st1" cx="819.6" cy="185.7" r="2.9"/>
<path class="st2" d="M818.1,176.9c2.4,0,4.4-2,4.4-4.4s-2-4.4-4.4-4.4c-2.4,0-4.4,2-4.4,4.4c0,0,0,0,0,0
	C813.7,174.9,815.7,176.9,818.1,176.9z M818.1,171c0.8,0,1.5,0.7,1.5,1.5s-0.7,1.5-1.5,1.5c-0.8,0-1.5-0.7-1.5-1.5c0,0,0,0,0,0
	C816.6,171.6,817.3,171,818.1,171z"/>
<path class="st2" d="M834.3,185.7c3.2,0,5.9-2.6,5.9-5.9s-2.6-5.9-5.9-5.9c-3.2,0-5.9,2.6-5.9,5.9
	C828.4,183.1,831,185.7,834.3,185.7z M834.3,176.9c1.6,0,2.9,1.3,2.9,2.9s-1.3,2.9-2.9,2.9s-2.9-1.3-2.9-2.9
	C831.3,178.2,832.6,176.9,834.3,176.9C834.3,176.9,834.3,176.9,834.3,176.9L834.3,176.9z"/>
<circle class="st2" cx="837.2" cy="165.1" r="2.9"/>
<circle class="st2" cx="854.9" cy="147.4" r="2.9"/>
<path class="st2" d="M865.2,160.7c2.4,0,4.4-2,4.4-4.4s-2-4.4-4.4-4.4c-2.4,0-4.4,2-4.4,4.4c0,0,0,0,0,0
	C860.7,158.7,862.7,160.7,865.2,160.7z M865.2,154.8c0.8,0,1.5,0.7,1.5,1.5s-0.7,1.5-1.5,1.5c-0.8,0-1.5-0.7-1.5-1.5c0,0,0,0,0,0
	C863.7,155.5,864.3,154.8,865.2,154.8C865.1,154.8,865.1,154.8,865.2,154.8L865.2,154.8z"/>
<path class="st1" d="M841.6,155.9c2.2,0,4-1.8,4-4s-1.8-4-4-4s-4,1.8-4,4S839.4,155.9,841.6,155.9z M841.6,150.8
	c0.6,0,1.1,0.5,1.1,1.1s-0.5,1.1-1.1,1.1c-0.6,0-1.1-0.5-1.1-1.1v0C840.5,151.2,841,150.7,841.6,150.8
	C841.6,150.7,841.6,150.7,841.6,150.8L841.6,150.8z"/>
<path class="st1" d="M854.9,179.8c4.9,0,8.8-3.9,8.8-8.8s-3.9-8.8-8.8-8.8s-8.8,3.9-8.8,8.8l0,0C846,175.8,850,179.8,854.9,179.8z
	 M854.9,165.1c3.2,0,5.9,2.6,5.9,5.9s-2.6,5.9-5.9,5.9c-3.2,0-5.9-2.6-5.9-5.9C849,167.7,851.6,165.1,854.9,165.1z"/>
<path class="st0" d="M821.1,243.4c-3.5-3.6-7.8-6.4-12.6-8.1c-0.3-0.3-0.7-0.4-1.2-0.4c-11.5-3.6-24.1-0.7-32.8,7.7
	c-0.6,0.7-0.4,1.8,0.3,2.3c0.6,0.5,1.5,0.5,2,0c5.4-5.2,12.7-8.2,20.2-8.3h0.3c2.7,0,5.3,0.4,7.9,1.1l-9.3,27.7l-25.7,12.9
	c-1.7-3.7-2.5-7.7-2.6-11.8c0-0.1,0-0.1,0-0.2c0-0.9-0.8-1.6-1.7-1.6c-0.4,0-0.9,0.2-1.2,0.6c-0.3,0.3-0.4,0.7-0.4,1.2
	c0.1,18.2,15,32.7,33.1,32.6c4.9,0,9.6-1.2,14-3.3c0.1,0,0.2,0,0.3,0c0.3,0,0.6-0.1,0.8-0.2c0.3-0.2,0.5-0.4,0.7-0.7
	c15.9-8.9,21.5-28.9,12.7-44.8C824.7,247.7,823,245.4,821.1,243.4z M809.5,293.2c-13.7,6.1-29.9,1-37.5-11.9l25.1-12.7L809.5,293.2z
	 M812.5,291.6l-13.1-25.8l9-27.1c15.2,6.1,22.5,23.4,16.4,38.5C822.4,283.3,818,288.3,812.5,291.6L812.5,291.6z"/>
<path class="st2" d="M798.7,264.7L773.4,239c-0.6-0.6-1.7-0.6-2.3,0c-7.2,7-11.3,16.6-11.4,26.6c0,0.7,0.5,1.4,1.2,1.6
	c0.2,0,0.3,0.1,0.5,0.1l36.1,0.3l0,0c0.9,0,1.7-0.7,1.7-1.6C799.2,265.5,799,265,798.7,264.7z M793.5,264.2l-30.4-0.3
	c0.5-8,3.7-15.5,9.1-21.4L793.5,264.2z"/>
<path class="st0" d="M454.3,303.5c-0.6,0.2-1.2,0.6-1.6,1.2l-27.3,33c-1.4,1.6-1.1,4.1,0.5,5.4l16.5,13.6c1.6,1.4,4.1,1.1,5.4-0.5
	l27.3-33c1.4-1.6,1.1-4.1-0.5-5.4l-16.5-13.7C457,303.2,455.6,303,454.3,303.5z M472.8,321.4l-27.3,33c-0.3,0.4-0.9,0.4-1.3,0.1
	l-16.5-13.7c-0.4-0.3-0.4-0.9-0.1-1.3l27.3-33c0.3-0.4,0.9-0.4,1.3-0.1l16.5,13.7C473.1,320.4,473.2,321,472.8,321.4L472.8,321.4z"
	/>
<path class="st0" d="M444.8,357.9c-1,0-1.9-0.3-2.6-0.9l-16.5-13.7c-1.8-1.4-2-4-0.5-5.8l27.3-33c1.4-1.7,4-2,5.8-0.5l16.5,13.7
	c1.8,1.4,2,4,0.5,5.8l-27.3,33C447.2,357.3,446.1,357.9,444.8,357.9z M455.6,303.5c-0.4,0-0.9,0.1-1.3,0.2l0,0
	c-0.6,0.2-1.1,0.6-1.5,1.1l-27.3,33c-1.3,1.5-1.1,3.8,0.5,5.1l16.5,13.7c1.5,1.3,3.8,1.1,5.1-0.5c0,0,0,0,0,0l27.3-33
	c1.3-1.5,1.1-3.8-0.5-5.1l-16.5-13.7C457.3,303.8,456.5,303.5,455.6,303.5L455.6,303.5z M444.8,355c-0.3,0-0.6-0.1-0.8-0.3
	L427.6,341c-0.5-0.4-0.6-1.2-0.2-1.7c0,0,0,0,0,0l27.3-33c0.1-0.2,0.3-0.3,0.5-0.4c0.4-0.2,0.9-0.1,1.2,0.2l16.5,13.7
	c0.5,0.4,0.6,1.2,0.2,1.7c0,0,0,0,0,0l-27.3,33c-0.1,0.2-0.3,0.3-0.5,0.4C445.1,354.9,445,355,444.8,355L444.8,355z M455.6,306.4
	c-0.2,0-0.4,0.1-0.5,0.2l-27.3,33c-0.3,0.3-0.2,0.7,0.1,1c0,0,0,0,0,0l16.5,13.7c0.3,0.3,0.7,0.2,1-0.1c0,0,0,0,0,0l27.3-33
	c0.3-0.3,0.2-0.7-0.1-1c0,0,0,0,0,0l-16.5-13.7C455.9,306.5,455.8,306.4,455.6,306.4L455.6,306.4z"/>
<path class="st2" d="M457,324.4l-5.4,1.1c-0.2,0-0.4-0.1-0.6-0.2l-3.1-4.6c-0.2-0.2-0.5-0.3-0.8-0.2c-0.1,0-0.2,0.1-0.3,0.2
	c-0.1,0.1-0.1,0.2-0.1,0.3l-0.6,5.5c0,0.1-0.1,0.2-0.1,0.3c-0.1,0.1-0.2,0.1-0.2,0.2l-5.3,1.6c-0.1,0-0.2,0.1-0.3,0.2
	c-0.3,0.3-0.2,0.8,0.1,1.1c0,0,0.1,0.1,0.1,0.1l5,2.2c0.2,0.1,0.3,0.3,0.3,0.5l-0.1,5.6c0,0.4,0.4,0.7,0.8,0.7
	c0.2,0,0.3-0.1,0.4-0.2l3.6-4.2c0.1-0.1,0.1-0.1,0.2-0.1c0.1,0,0.3,0,0.4,0l5.2,1.9c0.1,0,0.3,0,0.4,0c0.1,0,0.2-0.1,0.3-0.2
	c0.2-0.2,0.2-0.5,0.1-0.8l-2.8-4.8c-0.1-0.2-0.1-0.4,0-0.6l3.4-4.4c0.2-0.3,0.2-0.8-0.2-1C457.3,324.4,457.2,324.4,457,324.4z"/>
<path class="st2" d="M446.3,339.2c-0.2,0-0.4-0.1-0.5-0.2c-0.3-0.2-0.4-0.4-0.5-0.8l0.1-5.6c0-0.1-0.1-0.2-0.2-0.3l-5-2.2
	c-0.3-0.1-0.5-0.4-0.5-0.7c-0.1-0.3,0-0.6,0.2-0.8c0.1-0.1,0.2-0.2,0.4-0.3l5.3-1.6c0.1,0,0.1-0.1,0.1-0.1c0,0,0.1-0.1,0.1-0.2
	l0.6-5.4c0-0.2,0.1-0.3,0.2-0.5c0.1-0.1,0.3-0.2,0.4-0.3c0.4-0.1,0.8,0,1.1,0.3l3.1,4.5c0.1,0.1,0.2,0.1,0.3,0.1l5.5-1.1
	c0.5-0.1,1.1,0.3,1.1,0.8c0,0.2,0,0.5-0.1,0.7l-3.4,4.4c-0.1,0.1-0.1,0.2,0,0.4l2.8,4.8c0.2,0.5,0,1.1-0.5,1.3c0,0-0.1,0-0.1,0
	c-0.2,0.1-0.4,0.1-0.6,0l-5.3-1.9c-0.1,0-0.1,0-0.2,0c0,0-0.1,0-0.1,0.1l-3.7,4.2c-0.1,0.1-0.2,0.2-0.4,0.2
	C446.5,339.2,446.4,339.2,446.3,339.2z M447.4,320.7c-0.1,0-0.1,0-0.2,0c-0.1,0-0.2,0.1-0.2,0.1c0,0.1-0.1,0.1-0.1,0.2l-0.6,5.4
	c0,0.2-0.1,0.3-0.2,0.4c-0.1,0.1-0.2,0.2-0.4,0.3l-5.3,1.6c-0.1,0-0.1,0.1-0.2,0.1c-0.1,0.1-0.1,0.3-0.1,0.4c0,0.1,0.1,0.3,0.2,0.3
	l5,2.2c0.3,0.1,0.4,0.4,0.5,0.7l-0.1,5.6c0,0.1,0.1,0.3,0.2,0.4c0.2,0.1,0.4,0.1,0.6,0l3.6-4.1c0.1-0.1,0.2-0.2,0.3-0.2
	c0.2-0.1,0.4-0.1,0.5,0l5.3,1.9c0.1,0,0.2,0,0.3,0c0.1,0,0.2-0.1,0.2-0.1c0.1-0.1,0.2-0.4,0.1-0.5l-2.8-4.8c-0.1-0.3-0.1-0.6,0-0.9
	l3.4-4.4c0.1-0.2,0.1-0.3,0-0.5c-0.1-0.2-0.3-0.2-0.5-0.2l-5.4,1.1c-0.3,0-0.6-0.1-0.8-0.3l-3.1-4.5
	C447.6,320.8,447.5,320.7,447.4,320.7z"/>
<path class="st0" d="M400.6,326.8l10.2,18.9c0.9,1.7,3,2.3,4.6,1.4c0.7-0.4,1.4-0.6,2.2-0.6c-0.1,1-0.5,1.9-1.2,2.6
	c-1.2,1.4-1,3.6,0.5,4.8l16.5,13.6c1.4,1.2,3.6,1,4.8-0.4c0,0,0,0,0,0c1.9-2.3,5.2-2.6,7.5-0.7c0,0,0,0,0,0c1.4,1.2,3.6,1,4.8-0.4
	c0,0,0,0,0,0l34.7-41.9c1.2-1.4,1-3.6-0.5-4.8c-2.3-1.9-2.6-5.2-0.7-7.5c1.2-1.4,1-3.6-0.5-4.8l-6.8-5.7l-6.4-12
	c-0.9-1.7-3-2.3-4.6-1.4c-2.6,1.4-5.9,0.4-7.3-2.2c0,0,0,0,0,0c-0.9-1.7-3-2.3-4.6-1.4l-48.2,25.9c-1.7,0.9-2.3,3-1.4,4.6
	c1.4,2.6,0.4,5.9-2.2,7.3c0,0,0,0,0,0C400.3,323,399.7,325.1,400.6,326.8C400.6,326.8,400.6,326.8,400.6,326.8z M481.8,309.8
	c-2.9,3.5-2.4,8.7,1.1,11.6c0,0,0,0,0,0c0.2,0.2,0.2,0.5,0.1,0.7l-34.7,41.9c-0.2,0.2-0.5,0.2-0.7,0.1c-3.5-2.9-8.7-2.4-11.6,1.1
	c0,0,0,0,0,0c-0.2,0.2-0.5,0.2-0.7,0.1l-16.5-13.6c-0.2-0.2-0.2-0.5-0.1-0.7c2.9-3.5,2.4-8.7-1.1-11.6c0,0,0,0,0,0
	c-0.2-0.2-0.2-0.5-0.1-0.7l34.7-41.9c0.2-0.2,0.5-0.2,0.7-0.1c3.5,2.9,8.7,2.4,11.6-1.1c0,0,0,0,0,0c0.2-0.2,0.5-0.2,0.7-0.1
	l16.5,13.6C481.9,309.4,481.9,309.7,481.8,309.8L481.8,309.8z M415.7,318.7c-0.2-0.5-0.1-1,0.4-1.3l27.6-14.9l-22.2,26.9
	L415.7,318.7z M403.4,324.7c4-2.2,5.5-7.2,3.4-11.2c-0.1-0.2,0-0.5,0.2-0.7l48.2-25.9c0.2-0.1,0.5,0,0.7,0.2c2.2,4,7.2,5.6,11.2,3.4
	c0.2-0.1,0.5,0,0.7,0.2l3,5.6l-3.6-3c-1.4-1.2-3.6-1-4.8,0.4c0,0,0,0,0,0c-1.9,2.3-5.2,2.6-7.5,0.7c0,0,0,0,0,0
	c-1.4-1.2-3.6-1-4.8,0.4c0,0,0,0,0,0l-1.3,1.6l-34,18.3c-1.9,1-2.6,3.4-1.6,5.3l6.3,11.8l-4.1,5c-1.2,1.4-1,3.6,0.5,4.8
	c0.6,0.5,1.1,1.2,1.5,2c-1.1,0.1-2.2,0.4-3.1,0.9c-0.2,0.1-0.5,0-0.7-0.2l-10.1-18.9C403.1,325.2,403.1,324.9,403.4,324.7
	C403.4,324.7,403.4,324.7,403.4,324.7z"/>
<path class="st0" d="M435.5,368.6c-0.9,0-1.7-0.3-2.3-0.8l-16.5-13.6c-1.5-1.3-1.8-3.6-0.5-5.1c0.5-0.6,0.9-1.4,1-2.2
	c-0.6,0.1-1.2,0.3-1.7,0.6c-1.8,1-4,0.3-5-1.5c0,0,0,0,0,0l-10.1-18.9c-1-1.8-0.3-4,1.5-5c0,0,0,0,0,0c2.5-1.3,3.4-4.4,2.1-6.9
	c0,0,0,0,0,0c-1-1.8-0.3-4,1.5-5c0,0,0,0,0,0l48.2-25.9c1.8-1,4-0.3,5,1.5c0,0,0,0,0,0c0.9,1.6,2.5,2.7,4.4,2.8
	c0.9,0,1.8-0.2,2.6-0.6c1.8-1,4-0.3,5,1.5c0,0,0,0,0,0l6.4,11.9l6.8,5.6c1.6,1.3,1.8,3.6,0.5,5.1c0,0,0,0,0,0
	c-1.8,2.2-1.5,5.4,0.7,7.2c0,0,0,0,0,0c1.5,1.3,1.8,3.6,0.5,5.1l-34.7,41.9c-1.3,1.6-3.6,1.8-5.1,0.5c0,0,0,0,0,0
	c-2.2-1.8-5.4-1.5-7.2,0.7c0,0,0,0,0,0C437.7,368.1,436.6,368.6,435.5,368.6z M417.9,346.2v0.3c-0.1,1-0.6,2-1.2,2.8
	c-1.1,1.3-1,3.3,0.3,4.4l16.5,13.6c1.3,1.1,3.3,0.9,4.4-0.4c0,0,0,0,0,0c2-2.4,5.5-2.7,7.9-0.7c0,0,0,0,0,0c1.3,1.1,3.3,0.9,4.4-0.4
	c0,0,0,0,0,0l34.8-41.9c1.1-1.3,0.9-3.3-0.4-4.4c-2.4-2-2.7-5.5-0.7-7.9c0,0,0,0,0,0c1.1-1.3,0.9-3.3-0.4-4.4c0,0,0,0,0,0l-6.9-5.7
	l-6.4-12c-0.8-1.5-2.7-2.1-4.3-1.3c-2.7,1.5-6.1,0.4-7.6-2.3c-0.5-1-1.6-1.6-2.7-1.7c-0.6,0-1.1,0.1-1.6,0.4l-48.2,26
	c-1.5,0.8-2.1,2.7-1.3,4.3c1.5,2.7,0.4,6.1-2.3,7.6c-1.5,0.8-2.1,2.7-1.3,4.3l10.2,18.9c0.5,1,1.6,1.6,2.7,1.7
	c0.6,0,1.1-0.1,1.6-0.4c0.7-0.4,1.5-0.6,2.3-0.6L417.9,346.2z M435.5,365.7c-0.2,0-0.3-0.1-0.5-0.2l-16.5-13.6
	c-0.3-0.3-0.3-0.7-0.1-1c2.8-3.4,2.4-8.4-1-11.3c0,0,0,0,0,0c-0.2-0.1-0.2-0.3-0.3-0.5c0-0.2,0-0.4,0.2-0.5l34.7-42
	c0.1-0.2,0.3-0.2,0.5-0.3c0.2,0,0.4,0,0.5,0.2c3.4,2.8,8.4,2.4,11.3-1c0,0,0,0,0,0c0.1-0.1,0.3-0.2,0.5-0.3c0.2,0,0.4,0,0.5,0.2
	l16.5,13.6c0.3,0.3,0.3,0.7,0.1,1c-2.8,3.4-2.4,8.4,1,11.3c0,0,0,0,0.1,0.1c0.3,0.3,0.3,0.7,0.1,1l-34.7,41.9
	c-0.3,0.3-0.7,0.3-1,0.1c-3.4-2.8-8.4-2.4-11.3,1c0,0,0,0,0,0C436,365.6,435.8,365.7,435.5,365.7z M452.6,296.9L452.6,296.9
	c-0.1,0-0.1,0-0.2,0.1l-34.7,41.9c0,0-0.1,0.1,0,0.2c0,0.1,0,0.1,0.1,0.2c3.6,3,4.1,8.4,1.1,12c0,0,0,0,0,0c-0.1,0.1-0.1,0.2,0,0.3
	l16.5,13.6c0.1,0.1,0.2,0.1,0.3,0c3-3.6,8.4-4.1,12-1.1c0,0,0,0,0,0c0.1,0.1,0.2,0.1,0.3,0l34.7-41.9c0,0,0.1-0.1,0-0.2
	c0-0.1,0-0.1-0.1-0.2c-3.6-3-4.1-8.4-1.1-12c0,0,0,0,0,0l0,0c0.1-0.1,0.1-0.2,0-0.3l-16.5-13.7c-0.1,0-0.1,0-0.2,0
	c-0.1,0-0.1,0-0.2,0.1c-3,3.6-8.3,4.1-12,1.2c0,0,0,0,0,0C452.7,296.9,452.6,296.9,452.6,296.9L452.6,296.9z M413.8,344.9
	c-0.3,0-0.5-0.2-0.6-0.4L403,325.5c-0.2-0.4-0.1-0.8,0.3-1l0,0c3.9-2.1,5.4-7,3.3-10.9c0,0,0,0,0,0c-0.1-0.2-0.1-0.4-0.1-0.6
	c0.1-0.2,0.2-0.3,0.4-0.4l48.1-25.9c0.2-0.1,0.4-0.1,0.6-0.1c0.2,0.1,0.3,0.2,0.4,0.4c2.1,3.9,6.9,5.4,10.8,3.3c0,0,0.1,0,0.1-0.1
	c0.2-0.1,0.4-0.1,0.5-0.1c0.2,0.1,0.4,0.2,0.5,0.4l3.6,6.7l-4.6-3.8c-1.3-1.1-3.3-0.9-4.4,0.4c0,0,0,0,0,0c-2,2.4-5.5,2.7-7.9,0.7
	c0,0,0,0,0,0c-1.3-1.1-3.3-0.9-4.4,0.4c0,0,0,0,0,0l-1.4,1.6l-34,18.3c-1.8,1-2.4,3.2-1.5,4.9l6.4,11.9l-4.2,5.1
	c-1.1,1.3-0.9,3.3,0.4,4.4c0.7,0.6,1.2,1.3,1.5,2.1l0.1,0.3h-0.3c-1.1,0.1-2.1,0.4-3,0.9C414,344.8,413.9,344.8,413.8,344.9
	L413.8,344.9z M403.5,325c-0.1,0.1-0.2,0.2-0.1,0.3l10.2,18.9c0.1,0.1,0.2,0.2,0.3,0.1c0.9-0.5,1.9-0.8,2.9-0.9
	c-0.3-0.6-0.7-1.1-1.2-1.6c-1.5-1.3-1.8-3.6-0.5-5.1l4-4.9l-6.2-11.6c-1.1-2-0.3-4.5,1.7-5.6c0,0,0,0,0,0l33.9-18.3l1.3-1.6
	c1.3-1.6,3.6-1.8,5.1-0.5c0,0,0,0,0,0c2.2,1.8,5.4,1.5,7.2-0.7c0,0,0,0,0,0c1.3-1.6,3.6-1.8,5.1-0.5c0,0,0,0,0,0l2.6,2.2l-2.4-4.5
	c0-0.1-0.1-0.1-0.1-0.1c-0.1,0-0.1,0-0.2,0c-4.2,2.2-9.3,0.7-11.6-3.5c0-0.1-0.1-0.1-0.1-0.1c-0.1,0-0.1,0-0.2,0l-48.2,25.9
	c-0.1,0-0.1,0.1-0.1,0.1c0,0.1,0,0.1,0,0.2C409.2,317.6,407.6,322.8,403.5,325C403.5,325,403.5,325,403.5,325L403.5,325L403.5,325z
	 M421.4,329.9l-5.9-11c-0.3-0.6-0.1-1.3,0.5-1.6l28.7-15.5L421.4,329.9z M415.9,318.6l5.6,10.4l21.2-25.6l-26.5,14.2
	C415.8,317.8,415.7,318.2,415.9,318.6C415.9,318.6,415.9,318.6,415.9,318.6L415.9,318.6L415.9,318.6z"/>
<rect x="293.9" y="309.2" class="st0" width="3.2" height="46.4"/>
<path class="st0" d="M295.5,310.9c-3.4,0-6.1-2.7-6.1-6.1c0-3.4,2.7-6.1,6.1-6.1c3.4,0,6.1,2.7,6.1,6.1S298.8,310.9,295.5,310.9
	L295.5,310.9z M295.5,301.9c-1.6,0-2.9,1.3-2.9,2.9s1.3,2.9,2.9,2.9s2.9-1.3,2.9-2.9C298.4,303.2,297.1,301.9,295.5,301.9
	C295.5,301.9,295.5,301.9,295.5,301.9L295.5,301.9z"/>
<rect x="358.8" y="309.2" class="st0" width="3.2" height="46.4"/>
<path class="st0" d="M360.4,310.9c-3.4,0-6.1-2.7-6.1-6.1c0-3.4,2.7-6.1,6.1-6.1c3.4,0,6.1,2.7,6.1,6.1S363.7,310.9,360.4,310.9
	L360.4,310.9z M360.4,301.9c-1.6,0-2.9,1.3-2.9,2.9s1.3,2.9,2.9,2.9s2.9-1.3,2.9-2.9C363.2,303.2,362,301.9,360.4,301.9
	C360.4,301.9,360.4,301.9,360.4,301.9L360.4,301.9z"/>
<path class="st0" d="M328.2,328.9c-19.8,0-33.7-14.5-33.9-14.6l2.4-2.2c1.1,1.3,29.4,30.4,62.6-0.2l2.2,2.4
	C349.6,325.2,338.2,328.9,328.2,328.9z"/>
<rect x="311.7" y="314.9" class="st0" width="3.2" height="20.9"/>
<path class="st0" d="M313.3,316.5c-2,0-3.7-1.7-3.7-3.7s1.7-3.7,3.7-3.7s3.7,1.7,3.7,3.7c0,2-1.6,3.7-3.6,3.7
	C313.4,316.6,313.3,316.6,313.3,316.5z M313.3,312.4c-0.3,0-0.5,0.2-0.5,0.5s0.2,0.5,0.5,0.5c0.3,0,0.5-0.2,0.5-0.5
	c0-0.2-0.1-0.5-0.4-0.5C313.4,312.4,313.3,312.4,313.3,312.4z"/>
<rect x="340.9" y="314.9" class="st0" width="3.2" height="20.9"/>
<path class="st0" d="M342.5,316.5c-2,0-3.7-1.7-3.7-3.7s1.7-3.7,3.7-3.7s3.7,1.7,3.7,3.7c0,2-1.6,3.7-3.6,3.7
	C342.6,316.6,342.6,316.6,342.5,316.5z M342.5,312.4c-0.3,0-0.5,0.2-0.5,0.5s0.2,0.5,0.5,0.5c0.3,0,0.5-0.2,0.5-0.5
	c0-0.2-0.1-0.5-0.4-0.5C342.6,312.4,342.6,312.4,342.5,312.4z"/>
<path class="st0" d="M327.9,324.6c-9.3,0-15.7-6.8-15.9-6.9l2.4-2.2l-1.1,1.3l1.1-1.1c0.5,0.5,12.7,13,26.8,0l2.2,2.4
	C337.9,323,332.6,324.6,327.9,324.6z"/>
<path class="st1" d="M359.5,353.5h-63.4l26.7-19h11.6L359.5,353.5z M306.1,350.3h43.8l-16.7-12.6h-9.3L306.1,350.3z"/>
<path class="st2" d="M251.5,321.2c-0.2-0.6-0.8-1.1-1.5-1.1h-23.7l-7.4-22.5c-0.2-0.6-0.8-1.1-1.5-1.1l0,0c-0.7,0-1.3,0.4-1.5,1.1
	l-7.4,22.5H185c-0.7,0-1.3,0.4-1.5,1.1c-0.2,0.6,0,1.3,0.5,1.7l19.2,13.8l-7.4,22.5c-0.2,0.6,0,1.3,0.5,1.7c0.6,0.4,1.3,0.4,1.9,0
	l19.2-13.9l19.2,14c0.6,0.4,1.3,0.4,1.9,0c0.5-0.4,0.8-1.1,0.5-1.7l-7.4-22.5l19.2-13.9C251.5,322.5,251.7,321.8,251.5,321.2z
	 M229,335c-0.5,0.4-0.8,1.1-0.5,1.7l6.2,19.1L218.5,344c-0.5-0.4-1.2-0.4-1.8,0l-16.3,11.8l6.2-19.1c0.2-0.6,0-1.3-0.5-1.7
	l-16.3-11.8h20c0.7,0,1.3-0.4,1.5-1.1l6.3-19.1l6.2,19.1c0.2,0.6,0.8,1.1,1.5,1.1h20L229,335z"/>
<path class="st0" d="M939.2,210.8c-3.5,0-6.3,2.8-6.3,6.3c0,0.7,0.1,1.4,0.4,2.1l-0.7,0.7c-1.4,1.4-3.5,3.5-4.4,3.5
	s-2.4-1.5-3.6-2.7c-1.8-1.8-3.6-3.6-5.8-3.6c-2.6,0-3.9,3.6-6.2,10.5c-0.8,2.6-1.8,5.2-3,7.7c-0.8-2.4-1.7-8.2-2.4-12.6
	c-2.3-14.7-3.7-21.1-7.2-21.1s-4.9,7.2-7.2,24.8c-0.8,5.7-1.8,13.3-2.7,15.7c-1.1-1.1-2.1-2.4-2.9-3.8c-1.8-2.8-3.6-5.4-6-5.4
	c-2.6,0-3.7,3.7-6.2,15.3c-1,4.3-2.3,10.5-3.4,12.5c-1.2-2.1-2.2-4.2-3-6.5c-2-5.1-3.5-8.8-6.2-8.8c-2.2,0-4,1.8-5.8,3.6
	c-1.2,1.2-2.7,2.7-3.6,2.7v3.1c2.2,0,4-1.8,5.8-3.6c1.1-1.1,2.5-2.5,3.5-2.7c0.9,0.7,2.4,4.5,3.4,6.8c2,5.1,3.5,8.8,6.2,8.8
	s3.7-3.7,6.2-15.3c1-4.5,2.5-11,3.5-12.7c0.8,0.5,2.3,2.7,3.1,3.9c1.8,2.8,3.6,5.4,6,5.4s3.2-3.3,5.2-18.6c1-7.3,2.6-19.3,4.2-21.8
	c1.6,2.1,3.1,12.1,4.1,18.2c1.9,12.1,2.6,15.9,5.2,15.9s3.9-3.6,6.2-10.5c0.9-2.8,2.5-7.4,3.4-8.3c0.9,0.2,2.3,1.5,3.4,2.6
	c1.8,1.8,3.6,3.6,5.8,3.6s4.3-2.1,6.6-4.4l0.3-0.3c2.6,2.3,6.6,2,8.8-0.6c2.3-2.6,2-6.6-0.6-8.8
	C942.2,211.4,940.7,210.8,939.2,210.8z"/>
<circle class="st1" cx="939.7" cy="217" r="6.8"/>
<path class="st2" d="M427.1,117.9c3.6,0,6.6,2.9,6.6,6.6s-2.9,6.6-6.6,6.6c-3.6,0-6.6-2.9-6.6-6.6c0,0,0,0,0,0
	C420.6,120.9,423.5,117.9,427.1,117.9 M427.1,112.9c-6.4,0-11.6,5.2-11.6,11.6s5.2,11.6,11.6,11.6c6.4,0,11.6-5.2,11.6-11.6v0
	C438.7,118.1,433.5,112.9,427.1,112.9L427.1,112.9z"/>
<path class="st2" d="M438.7,184.7c3.6,0,6.6,2.9,6.6,6.6s-2.9,6.6-6.6,6.6c-3.6,0-6.6-2.9-6.6-6.6c0,0,0,0,0,0
	C432.1,187.7,435.1,184.7,438.7,184.7 M438.7,179.7c-6.4,0-11.6,5.2-11.6,11.6s5.2,11.6,11.6,11.6c6.4,0,11.6-5.2,11.6-11.6v0
	C450.3,184.9,445.1,179.7,438.7,179.7L438.7,179.7z"/>
<path class="st1" d="M324.8,172.9c3.6,0,6.6,2.9,6.6,6.6s-2.9,6.6-6.6,6.6c-3.6,0-6.6-2.9-6.6-6.6c0,0,0,0,0,0
	C318.2,175.9,321.2,172.9,324.8,172.9 M324.8,167.9c-6.4,0-11.6,5.2-11.6,11.6s5.2,11.6,11.6,11.6c6.4,0,11.6-5.2,11.6-11.6v0
	C336.4,173.1,331.2,167.9,324.8,167.9L324.8,167.9z"/>
</svg>
