<?xml version="1.0" encoding="utf-8"?>
<!-- Generator: Adobe Illustrator 19.2.1, SVG Export Plug-In . SVG Version: 6.00 Build 0)  -->
<svg version="1.1" id="Layer_1" xmlns="http://www.w3.org/2000/svg" xmlns:xlink="http://www.w3.org/1999/xlink" x="0px" y="0px"
	 viewBox="0 0 955 377" style="enable-background:new 0 0 955 377;" xml:space="preserve">
<style type="text/css">
	.st0{fill:#EEEEEE;}
	.st1{fill:#259DFF;}
	.st2{fill:#FEAC09;}
</style>
<title>film_data_science</title>
<path class="st0" d="M607.9,242.4c3.4,0.5,4.3,0.7,6.3,1.1c0.8,0.2,1.8,0.3,3.2,0.6c0.6,0.1,1.3-0.1,1.8-0.5c0.5-0.4,0.8-1,0.8-1.7
	v-65.7c0-0.7-0.3-1.3-0.8-1.7c-0.5-0.4-1.2-0.6-1.8-0.5c-45.4,8.4-89.6,8.4-135.1,0c-0.6-0.1-1.3,0.1-1.8,0.5
	c-0.5,0.4-0.8,1-0.8,1.7v65.7c0,0.7,0.3,1.3,0.8,1.7c0.5,0.4,1.2,0.6,1.8,0.5c1.2-0.2,2-0.4,2.7-0.5l0.1,0c1.6-0.3,2.5-0.5,5.3-0.9
	c1.2-0.2,2-1.3,1.8-2.5c-0.1-0.6-0.4-1.1-0.9-1.4c-0.5-0.3-1.1-0.5-1.6-0.4c-2.3,0.4-3.3,0.5-4.5,0.7l-1.2,0.2v-60.4l1.2,0.2
	c43.5,7.6,85.7,7.6,129.1,0l1.2-0.2v60.4l-1.2-0.2c-1.6-0.3-2.7-0.5-5.9-1c-0.1,0-0.2,0-0.3,0c-1.1,0-2,0.8-2.2,1.9
	c-0.1,0.6,0.1,1.2,0.4,1.6C606.8,242,607.4,242.3,607.9,242.4z"/>
<path class="st1" d="M602.3,253.6c0-10.1-4.4-19.5-11.1-23.8l-1-0.7l0.8-0.9c2-2.1,3-4.7,3-7.5c0-6-4.9-11-11-11c-6,0-11,4.9-11,11
	c0,2.8,1.1,5.5,3,7.5l0.8,0.9l-1,0.7c-3.3,2.1-6.1,5.4-8,9.6l-0.9,1.9l-0.9-1.9c-2-4.1-4.7-7.5-8-9.6l-1-0.7l0.8-0.9
	c2-2.1,3-4.7,3-7.5c0-6-4.9-11-11-11s-11,4.9-11,11c0,2.8,1.1,5.5,3,7.5l0.8,0.9l-1,0.7c-3.3,2.1-6.1,5.4-8,9.6l-0.9,1.9l-0.9-1.9
	c-2-4.1-4.7-7.5-8-9.6l-1-0.7l0.8-0.9c1.9-2.1,3-4.7,3-7.5c0-6-4.9-11-11-11c-6,0-11,4.9-11,11c0,2.8,1.1,5.5,3,7.5l0.8,0.9l-1,0.7
	c-6.8,4.3-11.1,13.7-11.1,23.8c0,1.2,1,2.2,2.2,2.2c1.2,0,2.2-1,2.2-2.2c0-11.9,6.8-21.9,14.9-21.9s14.9,10,14.9,21.9
	c0,1.2,1,2.2,2.2,2.2s2.2-1,2.2-2.2c0-11.9,6.8-21.9,14.9-21.9c8.1,0,14.9,10,14.9,21.9c0,1.2,1,2.2,2.2,2.2s2.2-1,2.2-2.2
	c0-11.9,6.8-21.9,14.9-21.9c8.1,0,14.9,10,14.9,21.9c0,1.2,1,2.2,2.2,2.2C601.3,255.8,602.3,254.9,602.3,253.6z M514.8,227.3
	c-3.6,0-6.6-2.9-6.6-6.6c0-3.6,2.9-6.6,6.6-6.6c3.6,0,6.6,2.9,6.6,6.6C521.4,224.4,518.5,227.3,514.8,227.3z M548.9,227.3
	c-3.6,0-6.6-2.9-6.6-6.6c0-3.6,2.9-6.6,6.6-6.6s6.6,2.9,6.6,6.6C555.5,224.4,552.6,227.3,548.9,227.3z M583.1,227.3
	c-3.6,0-6.6-2.9-6.6-6.6c0-3.6,2.9-6.6,6.6-6.6c3.6,0,6.6,2.9,6.6,6.6C589.6,224.4,586.7,227.3,583.1,227.3z"/>
<g>
	<path class="st2" d="M113.5,154.3c-3.4,0-6.2,2.8-6.2,6.2c0,3.4,2.8,6.2,6.2,6.2c3.4,0,6.2-2.8,6.2-6.2
		C119.7,157.1,116.9,154.3,113.5,154.3z M116.5,160.5c0,1.7-1.4,3.1-3.1,3.1c-1.7,0-3.1-1.4-3.1-3.1s1.4-3.1,3.1-3.1
		C115.2,157.4,116.5,158.8,116.5,160.5z"/>
	<circle class="st1" cx="166" cy="158.5" r="1.6"/>
	<circle class="st1" cx="160.7" cy="158.5" r="1.6"/>
	<circle class="st1" cx="168.7" cy="162.5" r="1.6"/>
	<circle class="st1" cx="163.4" cy="162.5" r="1.6"/>
	<circle class="st1" cx="155.4" cy="158.5" r="1.6"/>
	<circle class="st1" cx="158.1" cy="162.5" r="1.6"/>
	<circle class="st1" cx="150.1" cy="158.5" r="1.6"/>
	<circle class="st1" cx="152.7" cy="162.5" r="1.6"/>
	<circle class="st1" cx="144.7" cy="158.5" r="1.6"/>
	<circle class="st1" cx="147.4" cy="162.5" r="1.6"/>
	<path class="st2" d="M113.5,192c3.4,0,6.2-2.8,6.2-6.2s-2.8-6.2-6.2-6.2c-3.4,0-6.2,2.8-6.2,6.2S110,192,113.5,192z M110.4,185.8
		c0-1.7,1.4-3.1,3.1-3.1c1.7,0,3.1,1.4,3.1,3.1s-1.4,3.1-3.1,3.1C111.8,188.9,110.4,187.5,110.4,185.8z"/>
	<path class="st2" d="M113.5,217.3c3.4,0,6.2-2.8,6.2-6.2c0-3.4-2.8-6.2-6.2-6.2c-3.4,0-6.2,2.8-6.2,6.2
		C107.2,214.5,110,217.3,113.5,217.3z M110.4,211.1c0-1.7,1.4-3.1,3.1-3.1c1.7,0,3.1,1.4,3.1,3.1s-1.4,3.1-3.1,3.1
		C111.8,214.2,110.4,212.8,110.4,211.1z"/>
	<path class="st0" d="M179.5,179.2c-0.4-1.8-1.9-3.4-4.3-4.8c2.6-0.8,4.4-3.3,4.4-6.1v-15.7c0-3.5-2.9-6.4-6.4-6.4h-67.6
		c-3.5,0-6.4,2.9-6.4,6.4v15.7c0,1.8,0.8,3.6,2.2,4.8c-1.4,1.2-2.2,2.9-2.2,4.8v15.7c0,1.8,0.8,3.6,2.2,4.8
		c-1.4,1.2-2.2,2.9-2.2,4.8v15.7c0,3.5,2.9,6.4,6.4,6.4l37.1,0c3.6,0.7,7.5,1,11.4,1c15.9,0,24.3-4.6,25.4-8.9
		c0.1-0.2,0.2-0.5,0.2-0.7v-36.9C179.6,179.6,179.6,179.4,179.5,179.2z M105.6,174.7h26.8c-2.1,1.3-3.4,2.8-3.8,4.4
		c-0.1,0.2-0.2,0.4-0.2,0.7v17.1h-22.9c-1.8,0-3.2-1.4-3.2-3.2v-15.7C102.4,176.2,103.8,174.7,105.6,174.7z M176.4,204
		c0,0.1,0,0.1,0,0.2c0,0,0,0.1,0,0.1c0,0.1,0,0.2-0.1,0.4c0,0.1-0.1,0.2-0.1,0.3c0,0.1-0.1,0.2-0.1,0.3c0,0.1-0.1,0.1-0.1,0.2
		l-0.1,0.2c-0.1,0.1-0.2,0.2-0.3,0.3c0,0-0.1,0.1-0.1,0.1l-0.1,0.1c-2.6,2.5-10.3,5.1-21.4,5.1c-11.1,0-18.9-2.6-21.4-5.1l-0.1-0.1
		c0,0-0.1-0.1-0.1-0.1c-0.1-0.1-0.2-0.2-0.3-0.4c-0.1-0.1-0.1-0.2-0.2-0.3c0-0.1-0.1-0.2-0.1-0.3c0-0.1-0.1-0.2-0.1-0.3l0-0.1
		c0-0.1,0-0.2,0-0.2v-0.2c0,0,0,0,0-0.1c0,0,0-0.1,0-0.1c0-0.1,0-0.2,0-0.2c0,0,0,0,0-0.1l0-6.4c0,0,0,0,0,0
		c0.1,0.1,0.2,0.1,0.3,0.2l0.2,0.1c0.1,0.1,0.2,0.1,0.3,0.2c0.2,0.1,0.5,0.3,0.7,0.4l0.1,0c2.7,1.4,6.4,2.6,10.9,3.3l0.1,0
		c1.3,0.2,2.7,0.4,4.2,0.5l0.9,0.1c0.3,0,0.6,0,0.9,0.1c0.4,0,0.8,0,1.2,0.1c0.1,0,0.2,0,0.4,0c0.1,0,0.2,0,0.4,0c1.3,0,2.5,0,3.9,0
		c0.1,0,0.2,0,0.3,0c0.1,0,0.2,0,0.4,0c0.2,0,0.4,0,0.6,0c0.2,0,0.4,0,0.6,0c0.2,0,0.3,0,0.5,0c0.1,0,0.3,0,0.4,0
		c0.3,0,0.6-0.1,0.9-0.1c1.4-0.1,2.8-0.3,4.2-0.5c0,0,0.1,0,0.1,0c4.9-0.8,8.9-2.1,11.6-3.7c0.1-0.1,0.3-0.2,0.4-0.3l0.2-0.1
		c0.1,0,0.1-0.1,0.2-0.1v6.1C176.4,203.6,176.4,203.8,176.4,204z M144.2,201.4L144.2,201.4L144.2,201.4
		C144.2,201.4,144.2,201.4,144.2,201.4z M144.2,213.3L144.2,213.3L144.2,213.3C144.2,213.3,144.2,213.3,144.2,213.3z M176.4,192
		c0,0.1,0,0.1,0,0.2l0,0.1c0,0.1,0,0.2-0.1,0.4c0,0.1,0,0.2-0.1,0.3l0,0.1c0,0.1-0.1,0.2-0.1,0.3c0,0.1-0.1,0.1-0.1,0.2l-0.1,0.2
		c-0.1,0.1-0.2,0.2-0.3,0.3c0,0-0.1,0.1-0.1,0.1l-0.1,0.1c-2.6,2.5-10.3,5.1-21.4,5.1c-11.1,0-18.9-2.6-21.4-5.1c0,0,0,0-0.1-0.1
		c0,0-0.1-0.1-0.1-0.1c-0.1-0.1-0.2-0.2-0.3-0.4c-0.1-0.1-0.1-0.2-0.2-0.3c0-0.1-0.1-0.2-0.1-0.2c0-0.1-0.1-0.2-0.1-0.3
		c0-0.1-0.1-0.3-0.1-0.4c0-0.1,0-0.2,0-0.2c0-0.1,0-0.3,0-0.4l0-6.3c0.1,0.1,0.3,0.2,0.5,0.3l0.2,0.1c0.2,0.1,0.5,0.3,0.7,0.4
		l0.3,0.2c0.3,0.1,0.6,0.3,0.9,0.4l0.2,0.1c0.3,0.1,0.6,0.3,0.9,0.4c0.1,0,0.2,0.1,0.3,0.1c0.4,0.1,0.8,0.3,1.1,0.4c0,0,0,0,0.1,0
		c0.4,0.1,0.8,0.3,1.2,0.4c0,0,0.1,0,0.1,0c0.1,0,0.1,0,0.2,0l0.4,0.1c0.3,0.1,0.5,0.2,0.8,0.2c0,0,0.1,0,0.1,0
		c0.4,0.1,0.9,0.2,1.3,0.3l0.7,0.2c0.3,0.1,0.5,0.1,0.8,0.2c0.1,0,0.2,0,0.2,0c0.5,0.1,0.9,0.2,1.4,0.2c0,0,0.1,0,0.2,0
		c0.1,0,0.1,0,0.2,0c0.2,0,0.4,0.1,0.5,0.1c0.2,0,0.4,0.1,0.6,0.1l0.3,0c0.5,0.1,1,0.1,1.4,0.2c0.1,0,0.1,0,0.2,0c0,0,0.1,0,0.1,0
		l0.1,0c0.4,0,0.8,0.1,1.1,0.1c0.1,0,0.1,0,0.2,0c0.1,0,0.1,0,0.2,0c0.5,0,1,0.1,1.5,0.1c0.1,0,0.1,0,0.2,0c0.4,0,0.9,0,1.3,0.1
		c0.1,0,0.1,0,0.2,0c0.1,0,0.1,0,0.2,0c0,0,0,0,0,0c0.7,0,1.5,0,2.2,0c0.4,0,0.8,0,1.1,0c0.4,0,0.9,0,1.3-0.1c0.1,0,0.2,0,0.2,0
		c0.5,0,1-0.1,1.5-0.1c0.1,0,0.1,0,0.2,0c0.1,0,0.1,0,0.2,0c0.4,0,0.8-0.1,1.1-0.1l0.1,0c0,0,0.1,0,0.1,0c0.1,0,0.1,0,0.2,0l1.8-0.2
		c0.4-0.1,0.8-0.1,1.2-0.2c0.1,0,0.1,0,0.2,0c0.1,0,0.1,0,0.2,0c0.5-0.1,0.9-0.2,1.3-0.2c0.1,0,0.2,0,0.2,0l0.4-0.1
		c0.3-0.1,0.5-0.1,0.8-0.2l0.3-0.1c0.4-0.1,0.9-0.2,1.3-0.3l0.1,0c0.4-0.1,0.8-0.2,1.2-0.3c0.1,0,0.1,0,0.2,0c0,0,0.1,0,0.2,0
		l0.2-0.1c0.3-0.1,0.6-0.2,0.9-0.3l0.1,0c0.2-0.1,0.4-0.2,0.6-0.2c0.2-0.1,0.3-0.1,0.5-0.2c0.1,0,0.2-0.1,0.3-0.1
		c0.3-0.1,0.6-0.3,0.9-0.4l0.2-0.1c0.3-0.2,0.7-0.3,1-0.5c0.1,0,0.2-0.1,0.2-0.1l0.2-0.1c0.2-0.1,0.3-0.2,0.5-0.3l0.2-0.1
		c0.2-0.1,0.3-0.2,0.5-0.3l0,6.1C176.4,191.6,176.4,191.8,176.4,192z M170.2,184.9c-4.4,1.5-10.1,2.3-16.1,2.3
		c-12.6,0-22.4-3.7-22.4-6.9c0-0.1,0-0.3,0.1-0.4c0.1-0.2,0.1-0.3,0.2-0.5l0.1-0.1v0c0.4-0.7,1.3-1.5,2.6-2.1l0.2-0.1
		c0.2-0.1,0.5-0.2,0.7-0.4c0.3-0.1,0.6-0.3,0.9-0.4l0.2-0.1c1.5-0.6,3.4-1.1,5.5-1.6c0.6-0.1,1.3-0.3,2-0.4c0.1,0,0.2,0,0.3,0
		c0.1,0,0.2,0,0.3,0c6-0.9,12.8-0.9,18.8,0c0.1,0,0.2,0,0.3,0c0.1,0,0.2,0,0.3,0c0.6,0.1,1.3,0.2,2,0.4c6.2,1.3,10.4,3.6,10.4,5.7
		C176.4,181.9,174.1,183.6,170.2,184.9z M176.4,168.3c0,1.8-1.4,3.2-3.2,3.2l-6.1,0l-0.2,0c-1-0.2-1.9-0.4-2.7-0.5l-0.3,0
		c-3.1-0.5-6.5-0.7-9.8-0.7s-6.7,0.3-9.8,0.7l-0.3,0c-0.8,0.1-1.7,0.3-2.7,0.5l-0.2,0h-35.4c-1.8,0-3.2-1.4-3.2-3.2v-15.7
		c0-1.8,1.4-3.2,3.2-3.2h67.6c1.8,0,3.2,1.4,3.2,3.2V168.3z M102.4,203.2c0-1.8,1.4-3.2,3.2-3.2h22.9v16.7l0,1.6h0.4
		c0,0.1,0.1,0.2,0.2,0.3c0.1,0.2,0.2,0.4,0.4,0.6c0.1,0.2,0.3,0.4,0.5,0.6c0.1,0.1,0.2,0.2,0.3,0.3c0.5,0.5,1.1,1,1.9,1.5l0.1,0.1
		c0.2,0.2,0.5,0.3,0.8,0.5h-27.1l-0.2,0c-1.8,0-3.2-1.4-3.2-3.2V203.2z M131.7,209.3C131.7,209.3,131.7,209.4,131.7,209.3
		c0.1,0.1,0.2,0.1,0.3,0.2l0.2,0.1c0.1,0.1,0.2,0.1,0.3,0.2c0.2,0.1,0.5,0.3,0.7,0.4l0.1,0c2.7,1.4,6.4,2.6,10.9,3.3l0.1,0
		c1.3,0.2,2.7,0.4,4.2,0.5l0.9,0.1c0.3,0,0.6,0,0.9,0.1c0.4,0,0.8,0,1.2,0.1c0.1,0,0.2,0,0.4,0c0.1,0,0.2,0,0.4,0c1.3,0,2.5,0,3.9,0
		c0.1,0,0.2,0,0.3,0c0.1,0,0.2,0,0.4,0c0.2,0,0.4,0,0.6,0c0.2,0,0.4,0,0.6,0c0.2,0,0.3,0,0.5,0c0.1,0,0.3,0,0.5,0
		c0.3,0,0.6-0.1,0.9-0.1c1.4-0.1,2.8-0.3,4.2-0.5c0,0,0.1,0,0.1,0c4.9-0.8,8.9-2.1,11.6-3.7c0.1-0.1,0.3-0.2,0.4-0.3l0.2-0.1
		c0.1,0,0.1-0.1,0.2-0.1v7l0,0c0,0,0,0.1,0,0.2c-0.6,3.9-12.3,6.7-22.4,6.7c-3.8,0-7.5-0.3-10.8-0.9l-0.2-0.1
		c-6.8-1.3-10.2-3.4-11.1-5c0,0,0-0.1-0.1-0.1l0-0.1c-0.1-0.1-0.1-0.3-0.1-0.4L131.7,209.3z"/>
</g>
<g>
	<path class="st0" d="M158.6,277.1c-2.6-7.7-11-11.8-18.7-9.3c-7.7,2.6-11.8,11-9.3,18.7c2.6,7.7,11,11.8,18.7,9.3
		C157,293.2,161.2,284.8,158.6,277.1z M148.2,292.5c-5.9,2-12.3-1.2-14.3-7.1c-2-5.9,1.2-12.3,7.1-14.3c5.9-2,12.3,1.2,14.3,7.1
		C157.3,284.1,154.1,290.5,148.2,292.5z"/>
	<path class="st1" d="M141.6,272.8c-0.8,0.3-1.4,1.4-1.1,2.2l0.1,0.3c-1.7,1.3-2.5,3.4-1.9,5.3c0.4,1.2,1.2,2.2,2.4,2.8
		c1.2,0.6,2.7,0.6,4.1,0.1c0.9-0.3,1.3-0.2,1.5-0.1s0.4,0.3,0.6,0.8c0.1,0.3-0.1,1.4-1.2,1.7c-1.1,0.4-1.7,0.2-2.1-0.2
		c-0.7-0.6-1.8-0.6-2.5,0.1c-0.6,0.7-0.6,1.8,0.1,2.4c1.1,1,2.5,1.4,3.9,1.3l0.1,0.2c0.3,0.9,1.4,1.3,2.2,1.1s1.4-1.3,1.1-2.2
		l-0.1-0.2c1.7-1.3,2.5-3.4,1.9-5.3c-0.4-1.2-1.2-2.2-2.4-2.8c-1.2-0.6-2.7-0.6-4.1-0.1c-0.9,0.3-1.3,0.2-1.5,0.1
		c-0.2-0.1-0.4-0.3-0.6-0.8c-0.1-0.3,0.1-1.3,1.3-1.7c1.1-0.4,1.7-0.2,2.1,0.1c0.7,0.6,1.8,0.6,2.5-0.1c0.6-0.7,0.6-1.8-0.1-2.4
		c-1.1-1-2.5-1.4-3.9-1.3l-0.1-0.2C143.5,272.9,142.4,272.5,141.6,272.8z"/>
	<path class="st1" d="M127.9,286.5c-0.9-2.7-3.9-4.2-6.6-3.3c-2.7,0.9-4.2,3.9-3.3,6.6c0.9,2.7,3.9,4.2,6.6,3.3
		C127.4,292.2,128.8,289.2,127.9,286.5z M123.6,289.8c-0.9,0.3-1.9-0.2-2.2-1.1c-0.3-0.9,0.2-1.9,1.1-2.2s1.9,0.2,2.2,1.1
		C125,288.6,124.5,289.5,123.6,289.8z"/>
	<path class="st1" d="M170.6,272.1c-0.9-2.7-3.9-4.2-6.6-3.3c-2.7,0.9-4.2,3.9-3.3,6.6c0.9,2.7,3.9,4.2,6.6,3.3
		C170.1,277.8,171.5,274.8,170.6,272.1z M166.2,275.4c-0.9,0.3-1.9-0.2-2.2-1.1c-0.3-0.9,0.2-1.9,1.1-2.2s1.9,0.2,2.2,1.1
		C167.6,274.2,167.2,275.1,166.2,275.4z"/>
	<path class="st0" d="M183.5,277.8c0-0.1-0.1-0.3-0.2-0.4l-9-13.4l-3.5-10.3c-0.3-0.9-1.3-1.4-2.2-1.1l-1.6,0.6l-3.8-5.6
		c-0.5-0.7-1.2-0.9-2-0.7c-0.1,0-0.3,0.1-0.4,0.2l-24.3,16.4l-28.6,9.6c-0.9,0.3-1.3,1.5-1.1,2.2l2.2,6.6l-2.6,1.8
		c-0.6,0.4-0.9,1.3-0.7,2c0,0.1,0.1,0.3,0.2,0.4l9,13.4l3.5,10.3c0.3,0.9,1.3,1.4,2.2,1.1l1.6-0.6l3.8,5.6c0.4,0.6,1.3,0.9,2,0.7
		c0.1,0,0.3-0.1,0.4-0.2l24.2-16.3l28.7-9.7c0.9-0.3,1.4-1.3,1.1-2.2l-2.2-6.7l2.6-1.8C183.5,279.4,183.8,278.6,183.5,277.8z
		 M161.3,251l2.3,3.4l-14.7,5L161.3,251z M109.8,285.7l0.4-0.3l0.6,1.7L109.8,285.7z M127.9,312.6l-2.3-3.4l14.6-4.9L127.9,312.6z
		 M121.1,307.1l-10.5-31.2l57.5-19.4l10.5,31.2L121.1,307.1z M179.1,278.2l-0.6-1.7l1,1.4L179.1,278.2z"/>
</g>
<path class="st2" d="M584.2,158h-7.9l-3.8-17.7c-0.2-0.7-0.8-1.2-1.5-1.2H566l3.5-40l3.8-3.4c0.3-0.3,0.5-0.7,0.5-1
	c0.4-8.8,0.2-13-0.1-13.9c-0.7-2.2-2.3-3.6-2.9-4.1c-1-0.7-2.8-1.5-5.4-2.2l-0.5-0.2l-0.2-2l0.3-0.3c1-1.1,2.6-3.3,2.6-6.5
	c0-4.7-3.3-8.6-7.4-8.6s-7.4,3.9-7.4,8.6c0,2.3,0.9,4.6,2.6,6.5l0.3,0.3l-0.2,1.9l-0.6,0.1c-0.9,0.2-3.8,0.9-5.5,2.4
	c-1.4,1.2-2.4,2.6-2.8,4.1c-0.3,1.4-0.2,10.1-0.1,13.8c0,0.3,0.2,0.8,0.5,1l3.7,3.5l0,0.2l3.5,39.8H549c-0.7,0-1.4,0.6-1.5,1.2
	l-3.8,17.7h-6.7c-0.8,0-1.5,0.7-1.5,1.5s0.7,1.5,1.5,1.5h47.3c0.8,0,1.5-0.7,1.5-1.5S585.1,158,584.2,158z M553.6,98.2
	c0-0.4-0.2-0.7-0.5-1l-3.7-3.3l0-0.4c-0.2-7-0.2-11,0-11.9c0.3-1,0.9-1.8,1.9-2.7c1.3-1.1,4.5-1.8,5.6-2c0.7-0.1,1.2-0.6,1.3-1.3
	l0.6-3.9c0.1-0.5-0.1-1-0.5-1.3c-1-0.8-2.6-2.6-2.6-5c0-3,2-5.6,4.4-5.6c2.4,0,4.4,2.6,4.4,5.6c0,2.1-1.3,4.1-2.4,5.1
	c-0.4,0.3-0.6,0.8-0.5,1.2l0.5,3.9c0.1,0.6,0.6,1.1,1.1,1.3c2.1,0.5,5,1.4,5.9,2.2c0.6,0.4,1.4,1.4,1.8,2.5
	c0.3,1.2,0.2,6.1,0.1,11.9l0,0.4l-4,3.6c0,0,0,0,0,0c0,0.1-0.1,0.3-0.2,0.4c0,0,0,0,0,0v0.1l-3.4,40.9h-5.9L553.6,98.2z M546.9,158
	l3.4-15.9h19.6l3.4,15.9H546.9z"/>
<path class="st0" d="M439,201.8c3,0,5.8-1.2,7.9-3.3c4.4-4.4,4.4-11.4,0-15.8c-2.1-2.1-4.9-3.3-7.9-3.3c-1.9,0-3.8,0.5-5.5,1.4
	l-0.7,0.4l-30-30l18.1-18.1l0.7,0.4c1.7,0.9,3.6,1.4,5.5,1.4c3,0,5.8-1.2,7.9-3.3c4.4-4.4,4.4-11.4,0-15.8c-2.1-2.1-4.9-3.3-7.9-3.3
	c-3,0-5.8,1.2-7.9,3.3c-2.1,2.1-3.3,4.9-3.3,7.9c0,1.9,0.5,3.8,1.4,5.5l0.4,0.7l-35.9,35.9l-22.1-22.1c-0.9-0.9-2.4-0.9-3.2,0
	l-25.7,25.7l-0.7-0.4c-1.7-0.9-3.6-1.4-5.5-1.4c-3,0-5.8,1.2-7.9,3.3c-2.1,2.1-3.3,4.9-3.3,7.9c0,3,1.2,5.8,3.3,7.9
	c2.1,2.1,4.9,3.3,7.9,3.3c3,0,5.8-1.2,7.9-3.3c3.5-3.5,4.3-9,1.8-13.4l-0.4-0.7l24.1-24.1l22.1,22.1c0.4,0.4,1,0.7,1.6,0.7h0
	c0.6,0,1.2-0.2,1.6-0.7l16.1-16.1l30,30l-0.4,0.7c-0.9,1.7-1.4,3.6-1.4,5.5c0,3,1.2,5.8,3.3,7.9C433.2,200.6,436,201.8,439,201.8z
	 M434.3,186c1.2-1.2,2.9-1.9,4.7-1.9c1.8,0,3.4,0.7,4.7,1.9c2.6,2.6,2.6,6.8,0,9.3l0,0c-1.2,1.2-2.9,1.9-4.7,1.9
	c-1.8,0-3.4-0.7-4.7-1.9c-1.2-1.2-1.9-2.9-1.9-4.7C432.4,188.9,433.1,187.2,434.3,186z M422.5,119.1c1.2-1.2,2.9-1.9,4.7-1.9
	c1.8,0,3.4,0.7,4.7,1.9c2.6,2.6,2.6,6.8,0,9.3c-1.2,1.2-2.9,1.9-4.7,1.9c-1.7,0-3.4-0.7-4.6-1.9l-0.1-0.1c-1.2-1.3-1.9-2.9-1.9-4.6
	C420.5,122,421.2,120.4,422.5,119.1z M329.4,183.4c-1.2,1.2-2.9,1.9-4.7,1.9c-1.8,0-3.4-0.7-4.7-1.9c-1.2-1.2-1.9-2.9-1.9-4.7
	c0-1.8,0.7-3.4,1.9-4.7c1.2-1.2,2.9-1.9,4.7-1.9c1.7,0,3.3,0.6,4.6,1.8l0.2,0.2C332,176.8,332,180.9,329.4,183.4z"/>
<g>
	<path class="st2" d="M341.6,49.5C341.6,49.5,341.6,49.5,341.6,49.5c0.7,0,1.2-0.3,1.6-0.7c0.3-0.4,0.5-0.9,0.4-1.5L343.2,36
		c0-1.1-0.9-2-2.1-1.9c-1.1,0-2,0.9-1.9,2.1l0.4,11.5C339.6,48.7,340.5,49.5,341.6,49.5z"/>
	<path class="st1" d="M359.1,44.9C359.1,44.9,359.1,44.9,359.1,44.9c0.6,0,1.1-0.2,1.5-0.7c0.4-0.4,0.6-0.9,0.6-1.5
		c0-0.6-0.2-1-0.7-1.4l-0.1-0.1c-0.8-0.6-2-0.6-2.7,0.1l-0.1,0.1c-0.4,0.4-0.6,0.9-0.6,1.5c0,0.5,0.2,1,0.7,1.4
		C358.1,44.7,358.6,44.9,359.1,44.9z"/>
	<path class="st1" d="M353.9,48.5c0.3,0.3,0.9,0.5,1.4,0.5c0,0,0,0,0,0c0.6,0,1-0.2,1.4-0.7c0.4-0.4,0.6-0.9,0.6-1.4
		c0-0.5-0.2-1-0.6-1.4c-0.4-0.4-0.9-0.6-1.5-0.6c-0.5,0-1.1,0.2-1.4,0.7c-0.4,0.4-0.6,1-0.6,1.6C353.2,47.7,353.5,48.2,353.9,48.5z"
		/>
	<path class="st2" d="M352.9,59.9c-0.4,0.4-0.5,0.9-0.5,1.4s0.2,1,0.6,1.4c0.4,0.3,0.8,0.5,1.4,0.5c0,0,0,0,0.1,0l11.4-0.4
		c0.5,0,1-0.2,1.4-0.6c0.4-0.4,0.5-0.9,0.5-1.4c0-0.5-0.2-1-0.6-1.4c-0.4-0.4-0.9-0.6-1.4-0.5l-11.4,0.4
		C353.7,59.3,353.2,59.5,352.9,59.9z"/>
	<path class="st1" d="M351.4,53.2C351.4,53.2,351.4,53.2,351.4,53.2c0.5,0,1.1-0.2,1.5-0.7c0.4-0.4,0.5-0.9,0.5-1.4
		c0-0.6-0.2-1-0.7-1.4c-0.4-0.4-1-0.6-1.6-0.6c-0.5,0-1,0.3-1.3,0.7c-0.4,0.4-0.6,0.9-0.5,1.4c0,0.6,0.2,1,0.7,1.4
		C350.4,53,350.8,53.2,351.4,53.2z"/>
	<path class="st2" d="M318.4,64.4C318.4,64.4,318.5,64.4,318.4,64.4l11.5-0.4c1.1,0,2-0.9,1.9-2.1c0-0.5-0.2-1-0.6-1.4
		c-0.4-0.4-0.9-0.5-1.4-0.5l-11.4,0.4c-0.5,0-1,0.2-1.4,0.6c-0.4,0.4-0.5,0.9-0.5,1.4s0.2,1,0.6,1.4
		C317.4,64.2,317.9,64.4,318.4,64.4z"/>
	<path class="st1" d="M331,53C331,53,331,53,331,53c0.6,0,1.1-0.2,1.5-0.7c0.4-0.4,0.6-0.9,0.6-1.5c0-0.6-0.2-1-0.7-1.4
		c-0.4-0.4-1-0.6-1.6-0.6c-0.5,0-1,0.3-1.3,0.7c-0.4,0.4-0.6,0.9-0.5,1.4c0,0.5,0.2,1,0.6,1.4C329.9,52.8,330.4,53,331,53z M331,52
		L331,52L331,52L331,52z"/>
	<path class="st0" d="M368.1,77.6c-0.1-4.4-3.9-8-8.3-7.8L349,70.1l-0.2-7.5c-0.1-3.7-1.3-6.3-3.6-7.8c-3.2-2.2-7.4-1.2-8.3-0.8l0,0
		c-0.9,0.3-1.4,1.1-1.4,2l0.3,9.1c0.2,6.8-7.9,9.4-7.9,9.4c-0.1,0-0.3,0.1-0.4,0.1c-0.7-0.5-1.5-0.8-2.3-0.8l-8.1,0.3
		c-1,0-1.8,0.4-2.5,1.1c-0.7,0.7-1,1.6-1,2.6l0.8,24.5c0.1,2,1.7,3.5,3.7,3.5l8.1-0.3c1,0,1.9-0.5,2.5-1.1c1.4,1.1,3.1,1.7,4.9,1.7
		c0.1,0,0.2,0,0.3,0l22.5-0.7c5.3-0.2,8.7-3.2,9.2-8.1l2.5-19.4l0-0.1L368.1,77.6z M329.1,78.4c1.6-0.5,11.1-4.2,10.8-13.3l-0.2-7.5
		c1-0.1,2.4-0.1,3.4,0.6c1.1,0.7,1.7,2.3,1.8,4.7l0.3,9.6c0,0.5,0.2,1,0.6,1.4c0.4,0.4,0.9,0.5,1.4,0.5l1,0l0-0.2l11.6-0.4
		c2.2-0.1,4,1.6,4.1,3.8l-2.4,19.3c-0.1,1.1-0.4,4.3-5.3,4.4l-22.5,0.7c-2.2,0.1-4-1.7-4.1-3.9L329.1,78.4
		C329,78.4,329.1,78.4,329.1,78.4L329.1,78.4z M318.4,101.7l-0.7-23.5l7.2-0.2l0.7,23.5L318.4,101.7z"/>
	<path class="st1" d="M322.7,45.3C322.8,45.3,322.8,45.3,322.7,45.3l0.3,0l0.3-0.1c0.2-0.1,0.6-0.2,0.8-0.5l0,0
		c0.4-0.4,0.6-0.9,0.6-1.5c0-0.6-0.2-1-0.7-1.4c-0.4-0.4-1-0.6-1.6-0.6c-0.5,0-1,0.3-1.3,0.7c-0.4,0.4-0.6,0.9-0.5,1.4
		c0,0.6,0.2,1,0.7,1.4C321.7,45.1,322.2,45.3,322.7,45.3z"/>
	<path class="st1" d="M325.5,48.6c0.4,0.4,0.9,0.5,1.4,0.5c0,0,0,0,0.1,0c0.7,0,1.1-0.4,1.4-0.7l0,0c0.4-0.4,0.6-1,0.6-1.6
		c0-0.5-0.3-1-0.7-1.3c-0.4-0.4-1-0.6-1.5-0.5c-0.5,0-1,0.3-1.3,0.7c-0.4,0.4-0.6,1-0.5,1.5C324.8,47.8,325.1,48.3,325.5,48.6z"/>
</g>
<g>
	<polygon class="st2" points="228.3,223.8 224.9,223.8 224.9,231 228.3,231 	"/>
	<polygon class="st2" points="233.8,219.7 230.4,219.7 230.4,231 233.8,231 	"/>
	<polygon class="st2" points="239.4,215.1 236,215.1 236,231 239.4,231 	"/>
	<polygon class="st1" points="244.9,210.5 241.5,210.5 241.5,231 244.9,231 	"/>
	<polygon class="st2" points="250.5,207.4 247.1,207.4 247.1,231 250.5,231 	"/>
	<path class="st1" d="M274.2,216.2v14.4v3.5h3.5h14.4c-1.6,6.5-7.4,11.3-14.4,11.3c-8.2,0-14.8-6.6-14.8-14.8
		C262.9,223.6,267.7,217.7,274.2,216.2 M277.7,212.2c-10.1,0-18.3,8.2-18.3,18.3c0,10.1,8.2,18.3,18.3,18.3
		c10.1,0,18.3-8.2,18.3-18.3h-18.3V212.2L277.7,212.2z"/>
	<path class="st2" d="M284.5,212.9c2.6,0.6,5,2,7,3.9c1.9,1.9,3.3,4.3,3.9,7h-10.9L284.5,212.9 M281,208.9v18.3h18.3c0,0,0,0,0,0
		c0-5.1-2-9.6-5.4-13C290.6,211,286.1,208.9,281,208.9L281,208.9z"/>
	<polygon class="st0" points="224.5,253.4 221.8,251.1 232.5,238.3 241.3,247.7 248.4,239.2 251.1,241.5 241.4,253 232.7,243.6 	"/>
	<polygon class="st0" points="253.1,236.9 244.8,239.2 250.8,245.6 	"/>
	<path class="st0" d="M305.3,199.7v60.6h-88.8v-60.6H305.3 M306,196.2h-90.2c-1.6,0-2.8,1.3-2.8,2.8v64.8c0,0,95.6,0,95.8,0V199
		C308.8,197.4,307.5,196.2,306,196.2L306,196.2z M308.8,263.8L308.8,263.8L308.8,263.8L308.8,263.8z"/>
	<path class="st0" d="M317.3,269.1v-1.8h-46.9c-0.2,1-1.1,1.8-2.2,1.8h-14.6c-1.1,0-2-0.8-2.2-1.8h-46.9v1.8h0l5.6,3.5h101.5
		L317.3,269.1L317.3,269.1z"/>
</g>
<g>
	<path class="st0" d="M399.4,241.9c0.1-2.1-0.7-4.2-2.1-5.7c-1.4-1.5-3.4-2.4-5.5-2.5c-2.1-0.1-4.1,0.7-5.7,2.1s-2.4,3.4-2.5,5.5
		c-0.1,2.1,0.7,4.2,2.1,5.7c1.4,1.6,3.4,2.4,5.5,2.5c0.1,0,0.2,0,0.3,0c2,0,3.9-0.8,5.4-2.1C398.4,246,399.3,244,399.4,241.9z
		 M394.4,244.8c-0.8,0.8-2,1.2-3.1,1.2c-1.2,0-2.2-0.5-3-1.4c-1.6-1.7-1.5-4.5,0.2-6.1c0.8-0.8,1.9-1.2,2.9-1.2
		c1.2,0,2.3,0.5,3.2,1.4C396.2,240.4,396.1,243.2,394.4,244.8z"/>
	<path class="st0" d="M402.6,211.2c-0.9-0.3-2,0.1-2.3,1.1l-6,16.4c-0.2,0.5-0.1,1,0.1,1.4c0.2,0.4,0.6,0.8,1,0.9
		c3.4,1.2,6,4,6.9,7.4c0.1,0.3,0.2,0.5,0.4,0.7v0c0.1,0.1,0.3,0.3,0.4,0.4c0.3,0.2,0.6,0.2,0.9,0.2c0.2,0,0.3,0,0.5-0.1l16.7-4.8
		c1-0.3,1.5-1.3,1.2-2.2c-1.4-4.9-3.9-9.3-7.4-13.1C411.7,215.7,407.5,212.9,402.6,211.2z M418.6,231.9l-13.3,3.8
		c-1.3-3.2-3.8-5.9-6.9-7.4l4.7-13C410.3,218.4,415.9,224.4,418.6,231.9z"/>
	<path class="st0" d="M387.5,252.3c-3.4-1.2-6-4-6.9-7.4c-0.1-0.5-0.4-0.9-0.9-1.1c-0.4-0.2-0.9-0.3-1.4-0.2l-16.7,4.8
		c-1,0.3-1.5,1.3-1.2,2.2c1.4,4.9,3.9,9.3,7.4,13.1c3.5,3.8,7.7,6.6,12.6,8.3c0.2,0.1,0.4,0.1,0.6,0.1c0.7,0,1.4-0.5,1.7-1.2l6-16.4
		c0.2-0.5,0.1-1-0.1-1.4C388.3,252.8,388,252.5,387.5,252.3z M384.6,255l-4.7,13c-3.6-1.6-6.8-3.8-9.5-6.7c-2.7-2.9-4.7-6.2-6-9.9
		l13.3-3.8C379,250.8,381.5,253.5,384.6,255z"/>
	<path class="st0" d="M420.8,250.5l-16.4-6c-0.5-0.2-1-0.1-1.4,0.1c-0.4,0.2-0.8,0.6-0.9,1c-0.6,1.7-1.6,3.2-2.9,4.4
		c-1.3,1.2-2.9,2.1-4.6,2.6c-0.5,0.1-0.9,0.4-1.1,0.9c-0.2,0.4-0.3,0.9-0.2,1.4l4.8,16.7c0.1,0.3,0.2,0.5,0.4,0.7
		c0.4,0.4,0.8,0.6,1.3,0.6c0.2,0,0.3,0,0.5-0.1c4.9-1.4,9.3-3.9,13.1-7.4c3.8-3.5,6.6-7.7,8.3-12.6
		C422.3,251.9,421.8,250.8,420.8,250.5z M417.8,253.3c-1.6,3.6-3.8,6.8-6.7,9.5c-2.9,2.7-6.2,4.7-9.9,6l-3.8-13.3
		c1.6-0.7,3.1-1.6,4.3-2.8c1.3-1.2,2.3-2.6,3.1-4.1L417.8,253.3z"/>
	<path class="st0" d="M362.1,232.8l16.4,6c0.2,0.1,0.4,0.1,0.6,0.1c0.3,0,0.5-0.1,0.8-0.2c0.4-0.2,0.8-0.6,0.9-1
		c0.6-1.7,1.6-3.2,2.9-4.4c1.3-1.2,2.8-2.1,4.6-2.6c0.5-0.1,0.9-0.4,1.1-0.9c0.2-0.4,0.3-0.9,0.2-1.4l-4.8-16.7
		c-0.3-1-1.3-1.5-2.2-1.2c-4.9,1.4-9.3,3.9-13.1,7.4c-3.8,3.5-6.6,7.7-8.3,12.6c-0.2,0.6-0.1,1.4,0.4,1.9
		C361.6,232.5,361.8,232.7,362.1,232.8z M365.1,230c1.6-3.6,3.8-6.8,6.7-9.5c2.9-2.7,6.2-4.7,9.9-6l3.8,13.3c-1.6,0.7-3,1.6-4.3,2.8
		c-1.3,1.2-2.3,2.6-3.1,4.1L365.1,230z"/>
	<path class="st0" d="M443.7,242.1c-0.3-0.3-0.8-0.5-1.3-0.5c0,0,0,0,0,0c-0.5,0-0.9,0.2-1.3,0.5c-1.1,1.1-4.5,3.8-7.3,3.1
		c-2-0.5-3.5-2.7-4.7-6.5c-0.6-8.6-4.1-16.6-10.1-23c-6.9-7.4-16.3-11.6-26.4-12c-10.1-0.3-19.8,3.2-27.1,10.1
		c-15.3,14.2-16.1,38.3-1.9,53.5c7.4,8,17.6,12,27.7,12c9.3,0,18.5-3.4,25.8-10.2c6.6-6.1,10.6-14.2,11.7-23c0,0,0.1,0.1,0.1,0.2
		c1.1,1.2,2.4,2,3.8,2.3c0.6,0.2,1.2,0.2,1.8,0.2c4.7,0,8.8-4.1,8.9-4.3C444.4,244,444.4,242.8,443.7,242.1z M425.7,242.8
		c-0.3,9.1-4.2,17.6-10.8,23.8c-13.8,12.9-35.5,12.1-48.4-1.7c-12.9-13.8-12.1-35.5,1.7-48.4c6.6-6.1,15-9.2,23.3-9.2
		c9.2,0,18.3,3.6,25,10.9C422.7,225,426,233.7,425.7,242.8z"/>
</g>
<path class="st0" d="M293.2,145l2.1-13.5c0.1-0.5,0-0.9-0.3-1.3c-0.3-0.4-0.7-0.6-1.1-0.7l-4.4-0.7l0.2-1.3c0.2-1-0.5-1.9-1.5-2
	l-6.7-1.1l-0.1-0.1c-0.1-0.1-0.2-0.3-0.3-0.4l-9.4-13c-0.3-0.4-0.7-0.6-1.1-0.7l-33.4-5.3l0.3-1.7c0.2-1-0.5-1.9-1.5-2L209,96.9
	c-0.5-0.1-0.9,0-1.3,0.3c-0.4,0.3-0.6,0.7-0.7,1.1l-1.1,6.8c-0.2,1,0.5,1.9,1.5,2l26.9,4.3c0.5,0.1,0.9,0,1.3-0.3
	c0.4-0.3,0.6-0.7,0.7-1.1l0.3-1.7l2.8,0.4l7.4,10.2l-12.8-2c-0.5-0.1-0.9,0-1.3,0.3c-0.4,0.3-0.6,0.7-0.7,1.1l-1.7,10.7l-12-1.9
	l-0.1,0l-11.1-9c-0.5-0.4-1.1-0.5-1.7-0.3c-0.6,0.2-1,0.7-1.1,1.4l-4.8,30c-0.1,0.6,0.1,1.2,0.6,1.6c0.2,0.2,0.5,0.3,0.8,0.4
	c0.3,0.1,0.6,0,0.9-0.1l13.4-5.1l0.1,0l11.9,1.9l-1.8,11.1c-0.1,0.5,0,0.9,0.3,1.3c0.3,0.4,0.7,0.6,1.1,0.7l54.3,8.6
	c1,0.2,1.9-0.5,2-1.5l3.6-22.4l4.4,0.7C292.1,146.6,293,146,293.2,145z M233.1,107.7l-23.4-3.7l0.5-3.4l23.4,3.7L233.1,107.7z
	 M244.2,109.5l25.1,4l6.7,9.2l-25.1-4L244.2,109.5z M213.7,142.8l-10.4,4l3.8-24l8.6,7L213.7,142.8z M220.8,143.3l-3.5-0.6l1.9-11.9
	l3.5,0.6L220.8,143.3z M224.2,143.9l1.9-11.9l3.5,0.6l-1.9,11.9L224.2,143.9z M280,165.8l-50.9-8.1l5.9-37.1l50.9,8.1L280,165.8z
	 M290,142.7l-2.7-0.4l1.6-10l2.7,0.4L290,142.7z"/>
<path class="st2" d="M239.9,129.6l-2.4,15c-0.1,0.5,0,0.9,0.3,1.3c0.3,0.4,0.7,0.6,1.1,0.7l15,2.4c1,0.2,1.9-0.5,2-1.5l2.4-15
	c0.2-1-0.5-1.9-1.5-2l-15-2.4C240.9,128,240,128.7,239.9,129.6z M243.1,131.9l11.6,1.8l-1.8,11.6l-11.6-1.8L243.1,131.9z"/>
<path class="st1" d="M273.3,133.2c-0.3,0-0.6-0.1-0.9-0.1c-1.2,0-2.3,0.4-3.3,1.1c-1.2,0.9-2,2.2-2.2,3.6c-0.5,3,1.6,5.9,4.6,6.4
	c3,0.5,5.9-1.6,6.4-4.6c0.2-1.5-0.1-2.9-1-4.1C276.1,134.2,274.8,133.4,273.3,133.2z M274.5,139c-0.1,0.5-0.4,1-0.8,1.3
	c-0.4,0.3-0.8,0.4-1.2,0.4c-0.1,0-0.2,0-0.3,0c-0.5-0.1-1-0.4-1.3-0.8c-0.3-0.4-0.5-1-0.4-1.5c0.2-1.1,1.2-1.9,2.4-1.7
	C273.9,136.8,274.7,137.8,274.5,139z"/>
<path class="st1" d="M264.7,151.9c-0.5,3,1.6,5.9,4.6,6.4c1.5,0.2,2.9-0.1,4.1-1s2-2.2,2.2-3.6c0.5-3-1.6-5.9-4.6-6.4
	c-1.5-0.2-2.9,0.1-4.1,1C265.7,149.2,265,150.5,264.7,151.9z M268.2,152.5c0.2-1.1,1.2-1.9,2.4-1.7c1.1,0.2,1.9,1.2,1.7,2.4
	c-0.2,1-1,1.7-2,1.7c-0.1,0-0.2,0-0.3,0C268.8,154.6,268,153.6,268.2,152.5z"/>
<g>
	<path class="st0" d="M504.7,38.6C503.7,22.7,490.6,10,474.8,10c-9.6,0-18.9,4.7-24.6,12.4c-0.1-0.1-0.3-0.1-0.4-0.2
		c-0.4-0.2-0.7-0.3-1.1-0.5c-0.2-0.1-0.4-0.2-0.6-0.2c-0.4-0.1-0.7-0.2-1.1-0.3c-0.2-0.1-0.4-0.1-0.6-0.2c-0.4-0.1-0.8-0.2-1.2-0.2
		c-0.2,0-0.4-0.1-0.5-0.1c-0.6-0.1-1.2-0.1-1.8-0.1c-8.8,0-15.9,7.1-15.9,15.9c0,0.2,0,0.4,0,0.7c-7.4,4-12.4,12.4-12.4,20.8
		c0,12.5,10.2,22.7,22.7,22.7h9.1c1,0,1.8-0.8,1.8-1.8c0-1-0.8-1.8-1.8-1.8h-9.1c-10.6,0-19.2-8.6-19.2-19.2c0-7.3,4.8-15,11.4-18.1
		l1-0.5v-1.1c0-0.2,0-0.4,0-0.7l0-0.3l0-0.4c0-0.1,0-0.3,0-0.4c0-6.8,5.6-12.4,12.4-12.4c0.5,0,1.1,0.1,1.6,0.1c0.1,0,0.3,0,0.4,0.1
		c0.5,0.1,0.9,0.2,1.4,0.3c0.1,0,0.1,0,0.2,0.1c0.5,0.2,1,0.4,1.5,0.6c0.1,0.1,0.2,0.1,0.4,0.2c0.4,0.2,0.8,0.4,1.3,0.7
		c3.4,2.2,5.6,6,5.6,10.4c0,1,0.8,1.8,1.8,1.8c1,0,1.8-0.8,1.8-1.8c0-4.9-2.2-9.2-5.7-12.1c5.1-6.6,13.4-10.8,21.7-10.8
		c13.7,0,25.1,10.8,26.2,24.6c-1.8-0.1-4.5-0.2-7.2,0.2c-1,0.1-1.6,1-1.5,2c0.1,0.9,0.9,1.5,1.7,1.5c0.1,0,0.2,0,0.3,0
		c3.9-0.6,8,0,8.3,0c8.2,1.6,14.4,9.1,14.4,17.7c0,9.8-8,17.7-17.7,17.7h-7c-1,0-1.8,0.8-1.8,1.8c0,1,0.8,1.8,1.8,1.8h7
		c11.7,0,21.3-9.5,21.3-21.3C520.6,49.7,513.8,41,504.7,38.6z"/>
	<path class="st1" d="M482.2,64.3c0.4,0.3,0.8,0.5,1.3,0.5s0.9-0.2,1.3-0.5c0.7-0.7,0.7-1.8,0-2.5l-14.1-14.1
		c-0.2-0.2-0.4-0.3-0.6-0.4c-0.4-0.2-0.9-0.2-1.3,0c-0.2,0.1-0.4,0.2-0.6,0.4l-14.1,14.1c-0.7,0.7-0.7,1.8,0,2.5
		c0.4,0.3,0.8,0.5,1.3,0.5s0.9-0.2,1.3-0.5l11.1-11.1v44.5l-11.1-11.1c-0.7-0.7-1.8-0.7-2.5,0c-0.7,0.7-0.7,1.8,0,2.5l14.1,14.1
		c0.2,0.2,0.4,0.3,0.6,0.4c0.2,0.1,0.4,0.1,0.7,0.1c0.2,0,0.5-0.1,0.7-0.1c0.2-0.1,0.4-0.2,0.6-0.4L484.7,89c0.7-0.7,0.7-1.8,0-2.5
		c-0.7-0.7-1.8-0.7-2.5,0l-11.1,11.1V53.1L482.2,64.3z"/>
</g>
<g>
	<path class="st0" d="M648,321l80-6.7c0.8-0.1,1.4-0.8,1.4-1.6l-4.2-49.8c-0.1-0.8-0.8-1.4-1.6-1.4l-80,6.7
		c-0.8,0.1-1.4,0.8-1.4,1.6l4.2,49.8C646.5,320.5,647.2,321.1,648,321z M645.4,271.1l77-6.4l3.9,46.8l-77,6.4L645.4,271.1z"/>
	<path class="st1" d="M678.1,300.3c0.4,0.2,0.9,0.3,1.3,0.3s0.8-0.2,1.1-0.4l15.7-9.5c0.9-0.5,1.3-1.4,1.2-2.3
		c-0.1-0.9-0.6-1.8-1.6-2.1l-17-6.8c-0.8-0.3-1.7-0.2-2.4,0.3c-0.7,0.6-1.1,1.4-1,2.2l1.4,16.3C676.8,299.2,677.3,299.9,678.1,300.3
		z M678.4,282.5l15.4,6.1l-14.1,8.6L678.4,282.5z"/>
	<path class="st0" d="M717.4,304.7l-52.7,4.4c-0.7-1.4-2.2-2.3-3.9-2.2c-1.7,0.1-3,1.3-3.5,2.8l-0.3,0c-0.8,0.1-1.4,0.8-1.4,1.6
		c0.1,0.8,0.8,1.4,1.6,1.4l0.3,0c0.7,1.4,2.2,2.3,3.9,2.2c1.7-0.1,3-1.3,3.5-2.8l52.7-4.4c0.8-0.1,1.4-0.8,1.4-1.6
		C719,305.3,718.3,304.6,717.4,304.7z M661.2,311.9c-0.6,0-1-0.3-1.1-0.9s0.3-1,0.9-1.1c0.6,0,1,0.3,1.1,0.9
		C662.2,311.4,661.8,311.9,661.2,311.9z"/>
</g>
<g>
	<path class="st0" d="M636.5,138.5c0.1,0,0.1,0,0.2,0c1,0,1.8-0.8,1.8-1.8l0-29.6c0-1-0.8-1.8-1.8-1.8c-1,0-1.8,0.8-1.8,1.8l0,29.6
		C634.9,137.7,635.7,138.4,636.5,138.5z"/>
	<path class="st0" d="M650,139.7c0.1,0,0.1,0,0.2,0c0.9,0.1,1.7-0.6,1.9-1.4l5.2-29.2c0.2-1-0.5-1.9-1.4-2.1c-1-0.2-1.9,0.5-2.1,1.4
		l-5.2,29.2C648.4,138.6,649.1,139.5,650,139.7z"/>
	<path class="st2" d="M639.1,94.4c0.2,0.1,0.3,0.1,0.6,0.1c0.7,0.1,1.4-0.3,1.8-1c0.4-0.8,1.3-1.4,2.2-1.3c0.5,0,1,0.3,1.4,0.7
		c0.7,0.7,1.8,0.7,2.5,0c0.7-0.7,0.7-1.8,0-2.5c-1-0.9-2.2-1.4-3.5-1.6c-2.5-0.2-4.7,1.1-5.8,3.4C637.9,93,638.2,94,639.1,94.4z"/>
	<path class="st0" d="M680.1,95.4c0.7-8-5.2-15.1-13.3-15.8c-1.3-0.1-2.7-0.1-3.9,0.2c-1.4-6.2-6.9-10.8-13.3-11.4
		c-6.7-0.6-12.8,3.3-15.3,9.2c-1.4-0.7-2.9-1-4.4-1.1c-7.8-0.7-14.8,5.2-15.5,13c-0.4,4.1,1.1,8.1,3.8,11c0,0,0,0,0,0.1l3,43.8
		c0.1,0.9,0.7,1.6,1.6,1.7l39.6,3.5c0.9,0.1,1.6-0.5,1.9-1.3l10.5-42.6c0-0.1,0-0.1,0-0.2C677.9,102.8,679.8,99.3,680.1,95.4z
		 M617.9,89.7c0.5-5.9,5.8-10.3,11.7-9.8c1.3,0.1,2.6,0.5,3.8,1c0,0.4-0.1,0.7-0.2,1c-0.1,1.1-0.1,2.1,0.1,3.2
		c0.1,0.8,0.8,1.5,1.6,1.6c0.1,0,0.3,0,0.4,0c1-0.1,1.7-1,1.5-2c-0.1-0.8-0.1-1.6,0-2.5c0.6-6.3,6.2-11,12.5-10.4
		c5,0.4,9.1,4.2,10.3,9c-2.4,1-4.5,2.8-6,5c-0.5,0.8-0.3,1.9,0.5,2.4s1.9,0.3,2.4-0.5c2.2-3.3,6.1-5.1,10.1-4.7
		c6.1,0.5,10.6,5.9,10,12c-0.3,3.1-1.8,5.8-4.2,7.7c-0.1,0.1-0.2,0.2-0.3,0.3l-50.6-4.4l0,0C618.9,96.4,617.6,93.2,617.9,89.7z
		 M661.4,145.7l-36.6-3.2l-2.8-40.2l49.1,4.3L661.4,145.7z"/>
</g>
<g>
	<path class="st2" d="M540.1,307.1c-0.2-0.1-0.4-0.1-0.6-0.1l-8.3,0.6c-0.9,0.1-1.6,0.9-1.5,1.8c0.1,0.9,0.9,1.6,1.8,1.5l4.3-0.3
		l-8.1,9.4c-0.6,0.7-0.5,1.7,0.2,2.3c0.3,0.3,0.8,0.4,1.2,0.4c0.4,0,0.8-0.2,1.1-0.6l8.1-9.5l0.3,4.3c0.1,0.9,0.9,1.6,1.8,1.5
		c0.9-0.1,1.6-0.9,1.5-1.8l-0.6-8.3c0-0.2-0.1-0.4-0.2-0.6C540.8,307.5,540.5,307.2,540.1,307.1z"/>
	<path class="st0" d="M573.2,287.8l-8.5,0.7l-3.3,0.3l-8,0.6l-40,3.1l5.3,69.6l5-0.4l9.9-0.8l6.7-0.5l1.7-0.1l16.6-1.3l1.7-0.1
		l4.3-0.3l8-0.6l4.3-0.3l1.7-0.1l16.6-1.3l1.7-0.1l8.3-0.6l8.3-0.6l5-0.4l-5.3-69.6L573.2,287.8z M536.6,357.2l-9.9,0.8l-0.4-5
		l9.9-0.8L536.6,357.2z M536,348.9l-9.9,0.8l-0.4-5l9.9-0.8L536,348.9z M554.8,355.8l-9.9,0.8l-0.4-5l9.9-0.8L554.8,355.8z
		 M554.2,347.5l-9.9,0.8l-1.1-14.9l9.9-0.8L554.2,347.5z M573.1,354.4l-9.9,0.8l-0.4-5l9.9-0.8L573.1,354.4z M572.4,346.1l-9.9,0.8
		l-1.9-24.8l9.9-0.8L572.4,346.1z M591.3,353l-9.9,0.8l-0.4-5l9.9-0.8L591.3,353z M590.7,344.7l-9.9,0.8l-1-13.3l9.9-0.8
		L590.7,344.7z M609.5,351.6l-9.9,0.8l-0.4-5l9.9-0.8L609.5,351.6z M608.9,343.3l-9.9,0.8l-2.7-34.8l9.9-0.8L608.9,343.3z
		 M614.5,351.2l-1.7,0.1l-0.4-5l-0.3-3.3l-2.9-38.1l-16.6,1.3l2.9,38.1l0.3,3.3l0.4,5l-1.7,0.1l-0.4-5l-0.3-3.3l-1.3-16.6l-16.6,1.3
		l1.3,16.6l0.3,3.3l0.4,5l-1.7,0.1l-0.4-5l-0.3-3.3l-2.2-28.2L557,319l2.2,28.2l0.3,3.3l0.4,5l-1.7,0.1l-0.4-5l-0.3-3.3l-1.4-18.2
		l-16.6,1.3l1.4,18.2l0.3,3.3l0.4,5l-1.7,0.1l-0.4-5l-0.3-3.3l-0.6-8.3l-16.6,1.3l0.6,8.3l0.3,3.3l0.4,5l-1.7,0.1l-4.8-62.9
		l92.8-7.1L614.5,351.2z"/>
</g>
<g>
	<path class="st0" d="M777.5,69.8c-0.3,0-0.7,0-1,0.1c-1.4,0.3-2.6,1.4-3.4,3.1l0,0c-0.1,0.1-0.2,0.1-0.2,0.2
		c-3.5,4.4-15.9,19.2-30.3,22.7l-11,2.8c0,0-0.1,0-0.1,0c-3.4,0.9-6.3,3.1-8.2,6.1c-1.9,3.1-2.5,6.9-1.7,10.5
		c0.9,3.6,3.1,6.6,6.3,8.6c3.1,1.9,6.9,2.5,10.5,1.6l4.8-1.2l9,18.5c1.2,2.4,3.7,4,6.4,4c1.1,0,2.1-0.2,3.1-0.7c3.5-1.7,5-6,3.3-9.5
		l-7.2-14.7c13.1,0,26.4,6.2,29,7.4c1.5,1.1,3,1.5,4.4,1.2c3-0.7,4.7-4.7,5-11.4c0.2-5.9-0.7-13.5-2.6-21.3
		C790.4,84.4,783.9,69.8,777.5,69.8z M738.2,122.1l-0.6,0.2c-2.7,0.7-5.5,0.2-7.9-1.2c-2.4-1.4-4.1-3.7-4.7-6.4
		c-0.7-2.7-0.2-5.5,1.3-7.9c1.4-2.3,3.7-4,6.4-4.7l0.7-0.2L738.2,122.1z M772.1,91.8c0,0,0,0.1,0,0.2l0,0.1c0.4,3.5,1.1,7.1,2,10.6
		c0.9,3.6,2,7.3,3.2,10.7c0,0,0,0.1,0,0.2c0,0.2,0.1,0.4,0.3,0.6c1.4,3.7,2.9,6.9,4.4,9.5c-5.7-2.2-14.9-5.1-24.2-5.1
		c-3,0-6,0.3-8.9,1l-7.3,1.8l-4.9-20.2l6.7-1.6c11.9-2.9,22.6-13.1,28.2-19.3c0,0.4,0,0.8-0.1,1.1C771.4,84.4,771.6,87.9,772.1,91.8
		z M781.1,101.2c1.1,4.4,0.2,7.8-1.1,9.4c-1-2.8-1.8-5.7-2.5-8.7c-0.7-2.8-1.2-5.7-1.7-8.5C777.7,94.1,780,96.8,781.1,101.2z
		 M784.4,100.4c-1.4-5.9-5.2-10.2-9.1-10.6c-0.3-3.1-0.4-5.9-0.4-8.3c0.2-5.3,1.4-7.9,2.4-8.2c0.1,0,0.1,0,0.2,0
		c2.4,0,8.7,8.5,12.8,25.5c1.8,7.5,2.7,14.7,2.5,20.4c-0.2,5.3-1.4,7.9-2.4,8.2c-0.2,0.1-0.5,0-0.9-0.2c-0.1-0.2-0.3-0.3-0.5-0.4
		c-0.1,0-0.2-0.1-0.4-0.2c-2.3-1.9-5.1-6.6-7.4-12.6C784.5,111.8,785.8,106.2,784.4,100.4z M757.3,128.8l-6.7,3l-4-8.2l3.1-0.7
		c1.4-0.3,2.9-0.6,4.4-0.7L757.3,128.8z M760.2,143.1c-0.9,0.4-1.9,0.5-2.8,0.2c-0.9-0.3-1.7-1-2.1-1.9l-3.2-6.5l6.7-3l3.1,6.3
		C762.8,140,762,142.2,760.2,143.1z"/>
	<path class="st1" d="M814.4,95c0.4-0.1,0.8-0.4,1-0.8s0.3-0.8,0.2-1.3c-0.1-0.4-0.4-0.8-0.8-1.1c-0.4-0.2-0.8-0.3-1.3-0.2l-9.5,2.3
		c-0.4,0.1-0.8,0.4-1,0.8s-0.3,0.8-0.2,1.3c0.2,0.7,0.8,1.3,1.6,1.3c0,0,0,0,0,0c0.1,0,0.3,0,0.4,0L814.4,95z"/>
	<path class="st1" d="M807.6,72.6c0-0.5-0.1-0.9-0.4-1.2c-0.3-0.3-0.7-0.6-1.2-0.6c-0.5,0-0.9,0.1-1.2,0.4l-8.6,7.3
		c-0.3,0.3-0.6,0.7-0.6,1.2c0,0.5,0.1,0.9,0.4,1.2c0.3,0.4,0.8,0.6,1.2,0.6c0,0,0.1,0,0.1,0c0.4,0,0.8-0.1,1.1-0.4l8.6-7.3
		C807.4,73.5,807.6,73.1,807.6,72.6z"/>
	<path class="st1" d="M818.5,114.7c-0.2-0.4-0.6-0.7-1-0.8l-10.5-2.6c-0.4-0.1-0.9,0-1.3,0.2c-0.4,0.2-0.7,0.6-0.8,1.1
		c-0.1,0.4,0,0.9,0.2,1.3c0.2,0.4,0.6,0.7,1,0.8l10.5,2.6c0.1,0,0.3,0.1,0.4,0.1c0.1,0,0.2,0,0.3,0h0c0.7-0.1,1.2-0.6,1.4-1.3
		C818.8,115.6,818.7,115.1,818.5,114.7z"/>
</g>
<path class="st0" d="M756.5,209.1h-4.1v-8.1c0-2.2-1.8-4.1-4.1-4.1h-16.3v-2c0-1.5-1.2-2.7-2.7-2.7h-4.1v-2.7c0-2.2-1.8-4.1-4.1-4.1
	h-23.7v-5.4h4.1c1.5,0,2.7-1.2,2.7-2.7v-6.1c0-1.5-1.2-2.7-2.7-2.7h-10.9c-1.5,0-2.7,1.2-2.7,2.7v6.1c0,1.5,1.2,2.7,2.7,2.7h4.1v5.4
	H671c-2.2,0-4.1,1.8-4.1,4.1v2.7h-4.1c-1.5,0-2.7,1.2-2.7,2.7v6.1c0,1.5,1.2,2.7,2.7,2.7h3.4v5.4h-3.4c-1.5,0-2.7,1.2-2.7,2.7v6.1
	c0,1.5,1.2,2.7,2.7,2.7h10.9c1.5,0,2.7-1.2,2.7-2.7v-6.1c0-1.5-1.2-2.7-2.7-2.7H669v-5.4h4.7c1.5,0,2.7-1.2,2.7-2.7v-1.4h16.3
	c0.7,0,1.4,0.6,1.4,1.4v8.1H690c-1.5,0-2.7,1.2-2.7,2.7v6.1c0,1.5,1.2,2.7,2.7,2.7h10.9c1.5,0,2.7-1.2,2.7-2.7v-6.1
	c0-1.5-1.2-2.7-2.7-2.7h-4.1v-8.1c0-2.2-1.8-4.1-4.1-4.1h-16.3v-2c0-1.5-1.2-2.7-2.7-2.7h-4.1v-2.7c0-0.7,0.6-1.4,1.4-1.4h50.2
	c0.7,0,1.4,0.6,1.4,1.4v2.7h-4.1c-1.5,0-2.7,1.2-2.7,2.7v6.1c0,1.5,1.2,2.7,2.7,2.7h4.1v5.4h-4.1c-1.5,0-2.7,1.2-2.7,2.7v6.1
	c0,1.5,1.2,2.7,2.7,2.7h10.9c1.5,0,2.7-1.2,2.7-2.7v-6.1c0-1.5-1.2-2.7-2.7-2.7h-4.1v-5.4h4.1c1.5,0,2.7-1.2,2.7-2.7v-1.4h16.3
	c0.7,0,1.4,0.6,1.4,1.4v8.1h-4.1c-1.5,0-2.7,1.2-2.7,2.7v6.1c0,1.5,1.2,2.7,2.7,2.7h10.9c1.5,0,2.7-1.2,2.7-2.7v-6.1
	C759.2,210.3,758,209.1,756.5,209.1z M697.3,212.3L697.3,212.3l3.1,0v5.1h-9.9v-5.1h3.6H697.3z M673.2,212.3v5.1h-9.9v-5.1h2.4v0
	h3.2H673.2z M670.1,195.3h3.1v1.1h0v3.2v0.9h-3.8v0h-3.2h-2.9v-5.1h3.6H670.1z M694.3,176.7h-3.1v-5.1h9.9v5.1h-3.6H694.3z
	 M728.9,212.3v5.1H719v-5.1h3.1v0h3.2H728.9z M728.9,196.4v3.2v0.9h-3.1v0h-3.2H719v-5.1h3.6h3.2h3.1V196.4z M756,217.4h-9.9v-5.1
	h3.6h3.2v0h3.1V217.4z"/>
<g>
	<path class="st0" d="M47,221.8c5.2,0,9.4-4.2,9.4-9.4c0-5.2-4.2-9.4-9.4-9.4c-5.2,0-9.4,4.2-9.4,9.4
		C37.6,217.6,41.8,221.8,47,221.8z M41,212.4c0-3.3,2.7-6,6-6c3.3,0,6,2.7,6,6c0,3.3-2.7,6-6,6C43.7,218.3,41.1,215.7,41,212.4z"/>
	<path class="st1" d="M65.8,228.8c5.2,0,9.4-4.2,9.4-9.4c0-5.2-4.2-9.4-9.4-9.4c-5.2,0-9.4,4.2-9.4,9.4
		C56.4,224.6,60.6,228.8,65.8,228.8z M59.8,219.4c0-3.3,2.7-6,6-6c3.3,0,6,2.7,6,6c0,3.3-2.7,6-6,6
		C62.5,225.4,59.8,222.7,59.8,219.4z"/>
	<path class="st2" d="M75.5,227.2c-5.2,0-9.4,4.2-9.4,9.4c0,5.2,4.2,9.4,9.4,9.4c5.2,0,9.4-4.2,9.4-9.4
		C84.9,231.4,80.7,227.2,75.5,227.2z M81.5,236.6c0,3.3-2.7,6-6,6c-3.3,0-6-2.7-6-6c0-3.3,2.7-6,6-6
		C78.8,230.6,81.5,233.3,81.5,236.6z"/>
	<path class="st0" d="M72.4,246.9c-5.2,0-9.4,4.2-9.4,9.4c0,5.2,4.2,9.4,9.4,9.4s9.4-4.2,9.4-9.4C81.8,251.1,77.6,246.9,72.4,246.9z
		 M78.4,256.3c0,3.3-2.7,6-6,6c-3.3,0-6-2.7-6-6c0-3.3,2.7-6,6-6C75.7,250.3,78.4,253,78.4,256.3z"/>
	<path class="st1" d="M56.9,259.9c-5.2,0-9.4,4.2-9.4,9.4c0,5.2,4.2,9.4,9.4,9.4c5.2,0,9.4-4.2,9.4-9.4
		C66.3,264.1,62.1,259.9,56.9,259.9z M62.9,269.3c0,3.3-2.7,6-6,6c-3.3,0-6-2.7-6-6c0-3.3,2.7-6,6-6C60.2,263.3,62.9,266,62.9,269.3
		z"/>
	<path class="st2" d="M36.9,259.7c-5.2,0-9.4,4.2-9.4,9.4c0,5.2,4.2,9.4,9.4,9.4c5.2,0,9.4-4.2,9.4-9.4
		C46.3,264,42.1,259.7,36.9,259.7z M42.9,269.2c0,3.3-2.7,6-6,6c-3.3,0-6-2.7-6-6c0-3.3,2.7-6,6-6C40.2,263.2,42.9,265.9,42.9,269.2
		z"/>
	<path class="st0" d="M30.9,256.4c0-5.2-4.2-9.4-9.4-9.4c-5.2,0-9.4,4.2-9.4,9.4c0,5.2,4.2,9.4,9.4,9.4
		C26.7,265.8,30.9,261.6,30.9,256.4z M27.5,256.4c0,3.3-2.7,6-6,6c-3.3,0-6-2.7-6-6c0-3.3,2.7-6,6-6
		C24.8,250.4,27.5,253.1,27.5,256.4z"/>
	<path class="st1" d="M27.5,236.8c0-5.2-4.2-9.4-9.4-9.4c-5.2,0-9.4,4.2-9.4,9.4c0,5.2,4.2,9.4,9.4,9.4
		C23.2,246.2,27.4,242,27.5,236.8z M24,236.8c0,3.3-2.7,6-6,6c-3.3,0-6-2.7-6-6c0-3.3,2.7-6,6-6C21.3,230.8,24,233.5,24,236.8z"/>
	<path class="st2" d="M27.9,228.8c5.2,0,9.4-4.2,9.4-9.4s-4.2-9.4-9.4-9.4c-5.2,0-9.4,4.2-9.4,9.4S22.8,228.8,27.9,228.8z M22,219.4
		c0-3.3,2.7-6,6-6c3.3,0,6,2.7,6,6c0,3.3-2.7,6-6,6C24.7,225.4,22,222.7,22,219.4z"/>
	<polygon class="st0" points="49.4,229.8 49.4,226.5 51.2,226.5 47,222.2 42.7,226.5 44.5,226.5 44.5,229.8 	"/>
	<polygon class="st1" points="56.3,234.2 58.5,231.8 59.8,233.1 59.6,227 53.6,227.3 54.9,228.5 52.7,230.8 	"/>
	<polygon class="st2" points="60.9,234.9 61.3,236.7 58.1,237.2 59,242 62.1,241.5 62.5,243.3 66,238.3 	"/>
	<polygon class="st0" points="63.3,251.7 62.2,245.7 61.1,247.2 58.5,245.4 55.7,249.4 58.4,251.2 57.4,252.7 	"/>
	<polygon class="st1" points="53.5,259.9 56,254.4 54.3,255 53.2,252 48.7,253.6 49.7,256.7 48,257.3 	"/>
	<polygon class="st2" points="41.3,231 39.1,228.7 40.4,227.4 34.3,227.2 34.2,233.3 35.5,232 37.7,234.4 	"/>
	<polygon class="st0" points="32.7,246.9 31.8,245.3 30.2,251.1 36.1,252.6 35.2,251.1 38,249.4 35.5,245.2 	"/>
	<polygon class="st1" points="32.6,234.8 27.7,238.4 31.4,243.3 31.7,241.5 34.8,241.9 35.6,237.1 32.4,236.7 	"/>
	<polygon class="st2" points="40.6,251.8 39.5,254.8 37.8,254.2 40.5,259.7 45.9,257 44.2,256.4 45.2,253.3 	"/>
	<path class="st0" d="M57,241.5c0-5.5-4.5-10-10-10c-5.5,0-10,4.5-10,10c0,5.5,4.5,10,10,10C52.5,251.5,57,247,57,241.5z
		 M52.8,241.5c0,3.2-2.6,5.7-5.7,5.7c-3.2,0-5.7-2.6-5.7-5.7c0-3.2,2.6-5.7,5.7-5.7C50.2,235.8,52.8,238.4,52.8,241.5z"/>
</g>
<g>
	<polygon class="st0" points="799,199.7 799,143.8 796,143.8 796,202.6 872.5,202.6 872.5,199.7 	"/>
	<circle class="st2" cx="807.8" cy="190.8" r="2.9"/>
	<circle class="st1" cx="819.6" cy="185" r="2.9"/>
	<path class="st2" d="M818.1,176.1c2.4,0,4.4-2,4.4-4.4c0-2.4-2-4.4-4.4-4.4c-2.4,0-4.4,2-4.4,4.4
		C813.7,174.2,815.7,176.1,818.1,176.1z M818.1,170.3c0.8,0,1.5,0.7,1.5,1.5s-0.7,1.5-1.5,1.5c-0.8,0-1.5-0.7-1.5-1.5
		S817.3,170.3,818.1,170.3z"/>
	<path class="st2" d="M834.3,185c3.2,0,5.9-2.6,5.9-5.9c0-3.2-2.6-5.9-5.9-5.9s-5.9,2.6-5.9,5.9C828.4,182.3,831,185,834.3,185z
		 M834.3,176.1c1.6,0,2.9,1.3,2.9,2.9s-1.3,2.9-2.9,2.9s-2.9-1.3-2.9-2.9S832.7,176.1,834.3,176.1z"/>
	<circle class="st2" cx="837.2" cy="164.4" r="2.9"/>
	<circle class="st2" cx="854.9" cy="146.7" r="2.9"/>
	<path class="st2" d="M865.2,160c2.4,0,4.4-2,4.4-4.4c0-2.4-2-4.4-4.4-4.4c-2.4,0-4.4,2-4.4,4.4C860.7,158,862.7,160,865.2,160z
		 M865.2,154.1c0.8,0,1.5,0.7,1.5,1.5c0,0.8-0.7,1.5-1.5,1.5c-0.8,0-1.5-0.7-1.5-1.5C863.7,154.7,864.3,154.1,865.2,154.1z"/>
	<path class="st1" d="M841.6,155.2c2.2,0,4-1.8,4-4c0-2.2-1.8-4-4-4s-4,1.8-4,4C837.6,153.4,839.4,155.2,841.6,155.2z M841.6,150
		c0.6,0,1.1,0.5,1.1,1.1c0,0.6-0.5,1.1-1.1,1.1s-1.1-0.5-1.1-1.1C840.5,150.5,841,150,841.6,150z"/>
	<path class="st1" d="M854.9,179.1c4.9,0,8.8-4,8.8-8.8s-4-8.8-8.8-8.8s-8.8,4-8.8,8.8S850,179.1,854.9,179.1z M854.9,164.4
		c3.2,0,5.9,2.6,5.9,5.9s-2.6,5.9-5.9,5.9s-5.9-2.6-5.9-5.9S851.6,164.4,854.9,164.4z"/>
</g>
<path class="st0" d="M821.1,242.7c-3.6-3.8-8-6.5-12.6-8.1c-0.2-0.1-0.3-0.2-0.6-0.3c-0.2-0.1-0.4-0.1-0.6-0.1
	c-11.1-3.5-23.8-1-32.8,7.7c-0.5,0.6-0.5,1.4,0,2c0.3,0.3,0.7,0.6,1.1,0.6c0.4,0.1,0.9-0.1,1.3-0.4c5.5-5.2,12.6-8.2,20.2-8.3
	c0.1,0,0.2,0,0.3,0c2.7,0,5.4,0.4,7.9,1.1l-9.2,27.7l-25.7,12.9c-1.6-3.7-2.5-7.7-2.6-11.8c0-0.1,0-0.1,0-0.2c0-0.4-0.2-0.8-0.6-1.1
	c-0.3-0.3-0.8-0.4-1.2-0.4c-0.4,0-0.8,0.2-1.1,0.6c-0.3,0.3-0.4,0.8-0.4,1.2c0.1,14.1,9.2,26.5,22.6,30.9c3.4,1.1,6.9,1.7,10.3,1.7
	c4.9,0,9.8-1.1,14.2-3.3c0.1,0,0.2,0,0.3,0c0.3,0,0.6-0.1,0.8-0.2c0.3-0.2,0.5-0.4,0.7-0.7c2.4-1.4,4.7-3,6.8-5
	C833.2,276.6,833.6,255.7,821.1,242.7z M809.5,292.5c-3.7,1.6-7.7,2.5-11.8,2.6c-7.9,0-15.4-2.9-21-8.4c-1.9-1.8-3.5-3.9-4.8-6.1
	l25.1-12.7L809.5,292.5z M812.4,290.9l-13.1-25.8l9-27.1c3.6,1.4,6.8,3.6,9.7,6.3c5.6,5.5,8.8,12.9,8.9,20.8
	c0.1,7.9-2.9,15.4-8.4,21C816.7,288,814.6,289.6,812.4,290.9z"/>
<path class="st2" d="M798.7,264l-25.3-25.7c-0.6-0.7-1.7-0.7-2.3,0c-7.2,7.1-11.3,16.5-11.4,26.6c0,0.7,0.5,1.4,1.2,1.6
	c0.2,0,0.3,0.1,0.5,0.1l36.1,0.3c0,0,0,0,0,0c0.4,0,0.9-0.2,1.2-0.5C799.3,265.7,799.3,264.6,798.7,264z M793.5,263.5l-30.4-0.3
	c0.5-8,3.7-15.5,9.1-21.4L793.5,263.5z"/>
<g>
	<g>
		<path class="st0" d="M454.3,302.8c-0.6,0.2-1.2,0.6-1.6,1.2l-27.3,33c-0.7,0.8-1,1.8-0.9,2.8c0.1,1,0.6,2,1.4,2.6l16.5,13.7
			c1.1,0.9,2.5,1.1,3.8,0.6c0.6-0.2,1.2-0.6,1.6-1.2l27.3-33c0.7-0.8,1-1.8,0.9-2.8c-0.1-1-0.6-2-1.4-2.6l-16.5-13.7
			C457,302.5,455.6,302.3,454.3,302.8z M472.8,320.7l-27.3,33c-0.1,0.1-0.2,0.2-0.4,0.3c-0.3,0.1-0.7,0.1-0.9-0.2l-16.5-13.7
			c-0.4-0.3-0.5-0.9-0.1-1.3l27.3-33c0.1-0.1,0.2-0.2,0.4-0.3c0.3-0.1,0.7-0.1,0.9,0.2l16.5,13.7
			C473.1,319.7,473.2,320.3,472.8,320.7z"/>
		<path class="st0" d="M444.8,357.1c-0.9,0-1.9-0.3-2.6-0.9l-16.5-13.7c-0.8-0.7-1.4-1.7-1.5-2.8c-0.1-1.1,0.2-2.2,0.9-3l27.3-33
			c0.5-0.6,1.1-1,1.7-1.2c1.4-0.5,2.9-0.2,4.1,0.7l16.5,13.7c0.8,0.7,1.4,1.7,1.5,2.8c0.1,1.1-0.2,2.2-0.9,3l-27.3,33
			c-0.5,0.6-1.1,1-1.7,1.2C445.8,357.1,445.3,357.1,444.8,357.1z M455.6,302.8c-0.4,0-0.8,0.1-1.3,0.2l0,0c-0.6,0.2-1.1,0.6-1.5,1.1
			l-27.3,33c-0.6,0.7-0.9,1.7-0.8,2.6c0.1,1,0.6,1.8,1.3,2.4l16.5,13.7c1,0.8,2.4,1.1,3.6,0.6c0.6-0.2,1.1-0.6,1.5-1.1l27.3-33
			c0.6-0.7,0.9-1.7,0.8-2.6c-0.1-1-0.6-1.8-1.3-2.4l-16.5-13.7C457.3,303.1,456.4,302.8,455.6,302.8z M444.8,354.2
			c-0.3,0-0.5-0.1-0.8-0.3l-16.5-13.7c-0.5-0.4-0.6-1.2-0.2-1.7l27.3-33c0.1-0.2,0.3-0.3,0.5-0.4c0.4-0.2,0.9-0.1,1.2,0.2l16.5,13.7
			c0.5,0.4,0.6,1.2,0.2,1.7l-27.3,33c-0.1,0.2-0.3,0.3-0.5,0.4C445.1,354.2,445,354.2,444.8,354.2z M455.6,305.7c-0.1,0-0.2,0-0.2,0
			c-0.1,0-0.2,0.1-0.3,0.2l-27.3,33c-0.2,0.3-0.2,0.7,0.1,1l16.5,13.7c0.2,0.2,0.5,0.2,0.7,0.1c0.1,0,0.2-0.1,0.3-0.2l27.3-33
			c0.2-0.3,0.2-0.7-0.1-1l-16.5-13.7C455.9,305.8,455.8,305.7,455.6,305.7z"/>
	</g>
	<g>
		<path class="st2" d="M457,323.7l-5.4,1.1c-0.2,0-0.4-0.1-0.6-0.2l-3.1-4.5c-0.2-0.3-0.6-0.3-0.8-0.2c-0.1,0-0.2,0.1-0.3,0.2
			c-0.1,0.1-0.1,0.2-0.2,0.3l-0.6,5.5c0,0.1-0.1,0.2-0.1,0.3c-0.1,0.1-0.2,0.1-0.3,0.2l-5.3,1.6c-0.1,0.1-0.2,0.1-0.3,0.2
			c-0.3,0.3-0.2,0.9,0.2,1.1l5,2.2c0.2,0.1,0.3,0.3,0.3,0.5l-0.1,5.6c0,0.5,0.6,0.8,1,0.6c0.1,0,0.2-0.1,0.2-0.1l3.6-4.2
			c0.1-0.1,0.1-0.1,0.2-0.1c0.1,0,0.3-0.1,0.4,0l5.3,1.9c0.2,0,0.3,0,0.4,0c0.1,0,0.2-0.1,0.3-0.2c0.2-0.2,0.2-0.5,0.1-0.8l-2.8-4.8
			c-0.1-0.2-0.1-0.4,0-0.6l3.4-4.3C458.1,324.3,457.6,323.6,457,323.7z"/>
		<path class="st2" d="M446.3,338.5c-0.2,0-0.4-0.1-0.5-0.2c-0.3-0.2-0.4-0.4-0.5-0.8l0.1-5.6c0-0.1-0.1-0.2-0.2-0.3l-5-2.2
			c-0.3-0.2-0.5-0.4-0.5-0.7c-0.1-0.3,0-0.6,0.2-0.8c0.1-0.1,0.2-0.2,0.4-0.3l5.3-1.6c0,0,0.1-0.1,0.1-0.1s0.1-0.1,0.1-0.2l0.6-5.4
			c0-0.2,0.1-0.3,0.2-0.5c0.1-0.1,0.3-0.2,0.4-0.3c0.4-0.1,0.8,0,1.1,0.3l3.1,4.5c0.1,0.1,0.2,0.1,0.3,0.1l5.4-1.1
			c0.4,0,0.7,0.1,1,0.5c0.2,0.3,0.2,0.7,0,1.1l-3.4,4.4c-0.1,0.1-0.1,0.2,0,0.4l2.8,4.8c0.2,0.4,0.1,0.8-0.1,1.1
			c-0.1,0.1-0.3,0.2-0.4,0.3c-0.2,0.1-0.4,0.1-0.6,0l-5.3-1.9c-0.1,0-0.1,0-0.2,0c0,0-0.1,0-0.1,0.1l-3.6,4.1
			c-0.1,0.1-0.2,0.2-0.3,0.2C446.5,338.4,446.4,338.5,446.3,338.5z M447.4,320c-0.1,0-0.1,0-0.2,0c-0.1,0-0.2,0.1-0.2,0.1
			c0,0.1-0.1,0.1-0.1,0.2l-0.6,5.4c0,0.2-0.1,0.3-0.2,0.4c-0.1,0.1-0.2,0.2-0.3,0.3l-5.3,1.6c-0.1,0-0.1,0.1-0.2,0.1
			c-0.1,0.1-0.1,0.3-0.1,0.4c0,0.1,0.1,0.3,0.2,0.3l5,2.2c0.3,0.2,0.5,0.4,0.5,0.7l-0.1,5.6c0,0.2,0.1,0.3,0.2,0.4
			c0.1,0.1,0.3,0.1,0.4,0.1c0.1,0,0.1-0.1,0.2-0.1l3.6-4.1c0.1-0.1,0.2-0.2,0.3-0.2c0.2-0.1,0.4-0.1,0.5,0l5.3,1.9
			c0.1,0,0.2,0,0.3,0c0.1,0,0.2-0.1,0.2-0.2c0.1-0.2,0.2-0.3,0.1-0.5l-2.8-4.8c-0.1-0.3-0.1-0.6,0-0.9l3.4-4.4
			c0.1-0.1,0.1-0.3,0-0.5c-0.1-0.2-0.3-0.2-0.5-0.2l-5.4,1.1c-0.3,0-0.6-0.1-0.8-0.3l-3.1-4.5C447.6,320.1,447.5,320,447.4,320z"/>
	</g>
	<g>
		<path class="st0" d="M400.6,326.1l10.2,18.9c0.6,1.1,1.7,1.8,2.9,1.8c0.6,0,1.2-0.1,1.7-0.4c0.7-0.4,1.4-0.6,2.2-0.6
			c-0.1,1-0.5,1.9-1.2,2.6c-1.2,1.4-1,3.6,0.5,4.8l16.5,13.6c0.9,0.8,2.2,1,3.4,0.6c0.6-0.2,1.1-0.6,1.4-1c0.6-0.7,1.4-1.3,2.2-1.6
			c1.8-0.7,3.8-0.3,5.3,0.9c0.9,0.8,2.2,1,3.4,0.6c0.6-0.2,1.1-0.6,1.4-1l34.7-41.9c1.2-1.4,1-3.6-0.5-4.8c-1.1-0.9-1.8-2.2-1.9-3.6
			c-0.1-1.4,0.3-2.8,1.2-3.9c1.2-1.4,1-3.6-0.5-4.8l-6.8-5.7l-6.4-12c-0.6-1.1-1.7-1.8-2.9-1.8c-0.6,0-1.2,0.1-1.7,0.4
			c-0.8,0.4-1.8,0.7-2.7,0.6c-1.9-0.1-3.7-1.1-4.6-2.8c-0.6-1.1-1.7-1.8-2.9-1.8c-0.6,0-1.2,0.1-1.7,0.4l-48.2,25.9
			c-1.7,0.9-2.3,3-1.4,4.6c0.7,1.3,0.8,2.7,0.4,4.1c-0.4,1.4-1.3,2.5-2.6,3.2C400.3,322.4,399.7,324.4,400.6,326.1z M481.8,309.1
			c-1.4,1.7-2.1,3.8-1.9,6c0.2,2.2,1.3,4.2,3,5.6c0.2,0.2,0.2,0.5,0.1,0.7l-34.7,41.9c-0.2,0.2-0.5,0.2-0.7,0.1
			c-2.3-1.9-5.4-2.4-8.2-1.4c-1.4,0.5-2.6,1.4-3.5,2.5c-0.2,0.2-0.5,0.2-0.7,0.1L418.7,351c-0.2-0.2-0.2-0.5-0.1-0.7
			c1.4-1.7,2.1-3.8,1.9-6c-0.2-2.2-1.3-4.2-3-5.6c-0.2-0.2-0.2-0.5-0.1-0.7l34.7-41.9c0.2-0.2,0.5-0.2,0.7-0.1
			c2.3,1.9,5.4,2.4,8.2,1.4c1.4-0.5,2.6-1.4,3.5-2.5c0.2-0.2,0.5-0.2,0.7-0.1l16.5,13.6C481.9,308.6,481.9,308.9,481.8,309.1z
			 M415.7,318c-0.3-0.5-0.1-1,0.4-1.3l27.6-14.9l-22.2,26.9L415.7,318z M403.4,324c2-1.1,3.4-2.8,4-4.9c0.6-2.1,0.4-4.4-0.6-6.3
			c-0.1-0.2,0-0.5,0.2-0.7l48.2-25.9c0.2-0.1,0.5,0,0.7,0.2c1.4,2.6,4.1,4.3,7.1,4.4c1.4,0,2.9-0.3,4.2-1c0.2-0.1,0.5,0,0.7,0.2
			l3,5.6l-3.6-3c-0.9-0.8-2.2-1-3.4-0.6c-0.6,0.2-1.1,0.6-1.4,1c-0.6,0.7-1.4,1.3-2.2,1.6c-1.8,0.7-3.8,0.3-5.3-0.9
			c-0.9-0.8-2.2-1-3.4-0.6c-0.6,0.2-1.1,0.6-1.4,1l-1.3,1.6l-34,18.3c-0.9,0.5-1.6,1.3-1.9,2.3c-0.3,1-0.2,2,0.3,3l6.3,11.8l-4.1,5
			c-1.2,1.4-1,3.6,0.5,4.8c0.7,0.5,1.1,1.2,1.5,2c-1.1,0.1-2.2,0.4-3.1,0.9c-0.2,0.1-0.5,0-0.7-0.2l-10.2-18.9
			C403.1,324.5,403.2,324.2,403.4,324z"/>
		<path class="st0" d="M435.5,367.9c-0.8,0-1.7-0.3-2.3-0.8l-16.5-13.6c-1.6-1.3-1.8-3.6-0.5-5.1c0.5-0.6,0.9-1.4,1-2.2
			c-0.6,0.1-1.2,0.3-1.7,0.6c-0.6,0.3-1.2,0.5-1.8,0.4c-1.3,0-2.5-0.8-3.1-1.9l-10.2-18.9c-0.5-0.9-0.6-1.9-0.3-2.8
			c0.3-0.9,0.9-1.7,1.8-2.2c1.2-0.6,2.1-1.7,2.5-3c0.4-1.3,0.3-2.7-0.4-3.9c-1-1.8-0.3-4,1.5-5l48.2-25.9c0.6-0.3,1.2-0.5,1.8-0.4
			c1.3,0,2.5,0.8,3.1,1.9c0.9,1.6,2.5,2.6,4.4,2.7c0.9,0,1.8-0.2,2.6-0.6c0.6-0.3,1.2-0.5,1.8-0.4c1.3,0,2.5,0.8,3.1,1.9l6.4,11.9
			l6.8,5.6c0.8,0.6,1.2,1.5,1.3,2.5s-0.2,1.9-0.8,2.7c-0.9,1-1.3,2.4-1.1,3.7c0.1,1.4,0.8,2.6,1.8,3.4c1.6,1.3,1.8,3.6,0.5,5.1
			l-34.7,41.9c-0.4,0.5-0.9,0.9-1.5,1.1c-1.2,0.5-2.6,0.2-3.6-0.6c-1.4-1.2-3.3-1.5-5-0.8c-0.8,0.3-1.6,0.8-2.1,1.5
			c-0.4,0.5-0.9,0.9-1.5,1.1C436.4,367.8,436,367.9,435.5,367.9z M417.9,345.5l0,0.3c-0.1,1-0.6,2-1.2,2.8c-1.1,1.3-0.9,3.3,0.4,4.4
			l16.5,13.6c0.9,0.7,2.1,0.9,3.1,0.5c0.5-0.2,1-0.5,1.3-0.9c0.6-0.8,1.4-1.3,2.4-1.7c1.9-0.7,4-0.3,5.5,0.9
			c0.9,0.7,2.1,0.9,3.1,0.5c0.5-0.2,1-0.5,1.3-0.9l34.7-41.9c1.1-1.3,0.9-3.3-0.4-4.4c-1.2-1-1.9-2.3-2-3.8
			c-0.1-1.5,0.3-2.9,1.3-4.1c0.5-0.6,0.8-1.5,0.7-2.3s-0.5-1.6-1.1-2.1l-6.9-5.7l-6.4-12c-0.5-1-1.6-1.6-2.7-1.7
			c-0.5,0-1.1,0.1-1.6,0.4c-0.9,0.5-1.9,0.7-2.8,0.7c-2-0.1-3.8-1.2-4.8-3c-0.5-1-1.6-1.6-2.7-1.7c-0.5,0-1.1,0.1-1.6,0.4
			l-48.2,25.9c-1.5,0.8-2.1,2.8-1.3,4.3c0.7,1.3,0.9,2.8,0.4,4.3c-0.4,1.4-1.4,2.6-2.7,3.3c-0.7,0.4-1.3,1.1-1.5,1.9
			c-0.2,0.8-0.2,1.7,0.2,2.4l10.2,18.9c0.5,1,1.6,1.6,2.7,1.7c0.6,0,1.1-0.1,1.6-0.4c0.7-0.4,1.4-0.6,2.3-0.6L417.9,345.5z
			 M435.5,365c-0.2,0-0.3-0.1-0.5-0.2l-16.5-13.6c-0.3-0.3-0.4-0.7-0.1-1c1.4-1.6,2-3.7,1.8-5.9c-0.2-2.1-1.2-4.1-2.9-5.4
			c-0.2-0.1-0.2-0.3-0.3-0.5c0-0.2,0-0.4,0.2-0.5l34.7-41.9c0.1-0.1,0.3-0.2,0.5-0.3c0.2,0,0.4,0,0.5,0.2c2.2,1.8,5.2,2.3,7.9,1.3
			c1.3-0.5,2.5-1.3,3.4-2.4c0.1-0.1,0.3-0.2,0.5-0.3c0.2,0,0.4,0,0.5,0.2l16.5,13.6c0.3,0.3,0.4,0.7,0.1,1c-1.4,1.6-2,3.7-1.8,5.9
			c0.2,2.1,1.2,4.1,2.9,5.4c0.2,0.1,0.2,0.3,0.3,0.5c0,0.2,0,0.4-0.2,0.5l-34.7,41.9c-0.3,0.3-0.7,0.4-1,0.1
			c-2.2-1.8-5.2-2.3-7.9-1.3c-1.3,0.5-2.5,1.3-3.4,2.4C436,364.9,435.7,365,435.5,365z M452.6,296.1
			C452.6,296.1,452.6,296.1,452.6,296.1c-0.1,0-0.1,0-0.2,0.1l-34.7,41.9c0,0-0.1,0.1-0.1,0.2c0,0.1,0,0.1,0.1,0.2
			c1.8,1.4,2.8,3.5,3,5.8c0.2,2.3-0.5,4.5-1.9,6.2c-0.1,0.1-0.1,0.2,0,0.3l16.5,13.6c0.1,0.1,0.3,0.1,0.3,0c1-1.2,2.2-2,3.6-2.6
			c2.8-1.1,6.1-0.5,8.4,1.4c0.1,0.1,0.3,0.1,0.3,0l34.7-41.9c0,0,0.1-0.1,0.1-0.2s0-0.1-0.1-0.2c-1.8-1.5-2.8-3.5-3-5.8
			c-0.2-2.3,0.5-4.5,1.9-6.2l0,0c0.1-0.1,0.1-0.2,0-0.3L465.1,295c0,0-0.1-0.1-0.2,0c-0.1,0-0.1,0-0.2,0.1c-1,1.2-2.2,2-3.6,2.6
			c-2.8,1.1-6.1,0.5-8.4-1.4C452.7,296.1,452.6,296.1,452.6,296.1z M413.8,344.1c-0.3,0-0.5-0.1-0.7-0.4L403,324.8
			c-0.2-0.4-0.1-0.8,0.3-1h0c1.9-1,3.3-2.7,3.9-4.8c0.6-2.1,0.4-4.2-0.6-6.1c-0.1-0.2-0.1-0.4-0.1-0.6c0.1-0.2,0.2-0.3,0.4-0.4
			L455,286c0.2-0.1,0.4-0.1,0.6-0.1c0.2,0.1,0.3,0.2,0.4,0.4c1.4,2.5,4,4.1,6.9,4.2c1.4,0,2.8-0.3,4-1c0.2-0.1,0.4-0.1,0.6-0.1
			c0.2,0.1,0.4,0.2,0.4,0.4l3.6,6.7l-4.6-3.8c-0.9-0.7-2.1-0.9-3.1-0.5c-0.5,0.2-1,0.5-1.3,0.9c-0.6,0.8-1.4,1.3-2.4,1.7
			c-1.9,0.7-4,0.3-5.5-0.9c-0.9-0.7-2.1-0.9-3.1-0.5c-0.5,0.2-1,0.5-1.3,0.9l-1.4,1.7l-34,18.3c-0.9,0.5-1.5,1.2-1.8,2.2
			c-0.3,0.9-0.2,1.9,0.3,2.8l6.4,11.9l-4.2,5.1c-1.1,1.3-0.9,3.3,0.4,4.4c0.7,0.5,1.2,1.2,1.5,2.1l0.1,0.3l-0.3,0
			c-1.1,0.1-2.1,0.4-3.1,0.9C414.1,344.1,413.9,344.1,413.8,344.1z M403.5,324.3c-0.1,0.1-0.2,0.2-0.1,0.3l10.2,18.9
			c0.1,0.1,0.2,0.2,0.3,0.1c0.9-0.5,1.9-0.8,2.9-0.9c-0.3-0.6-0.7-1.1-1.2-1.6c-1.6-1.3-1.8-3.6-0.5-5.1l4-4.9l-6.2-11.6
			c-0.5-1-0.6-2.1-0.3-3.1c0.3-1.1,1-1.9,2-2.5l33.9-18.3l1.3-1.6c0.4-0.5,0.9-0.9,1.5-1.1c1.2-0.5,2.6-0.2,3.6,0.6
			c1.4,1.2,3.3,1.5,5,0.8c0.8-0.3,1.6-0.8,2.1-1.5c0.4-0.5,0.9-0.9,1.5-1.1c1.2-0.5,2.6-0.2,3.6,0.6l2.6,2.2l-2.4-4.5
			c0-0.1-0.1-0.1-0.1-0.1c-0.1,0-0.1,0-0.2,0c-1.3,0.7-2.8,1.1-4.3,1c-3-0.1-5.8-1.8-7.3-4.5c0-0.1-0.1-0.1-0.1-0.1s-0.1,0-0.2,0
			l-48.2,25.9c-0.1,0-0.1,0.1-0.1,0.1s0,0.1,0,0.2c1.1,2,1.3,4.3,0.7,6.5C407,321.4,405.5,323.2,403.5,324.3L403.5,324.3z
			 M421.4,329.1l-5.9-11c-0.3-0.6-0.1-1.3,0.5-1.6l28.7-15.5L421.4,329.1z M415.9,317.9l5.6,10.4l21.2-25.6l-26.5,14.3
			C415.8,317.1,415.7,317.5,415.9,317.9L415.9,317.9z"/>
	</g>
</g>
<g>
	<g>
		<g>
			<rect x="293.9" y="308.4" class="st0" width="3.2" height="46.4"/>
			<path class="st0" d="M295.5,310.2c-3.4,0-6.1-2.7-6.1-6.1s2.7-6.1,6.1-6.1s6.1,2.7,6.1,6.1S298.8,310.2,295.5,310.2z
				 M295.5,301.2c-1.6,0-2.9,1.3-2.9,2.9s1.3,2.9,2.9,2.9c1.6,0,2.9-1.3,2.9-2.9S297.1,301.2,295.5,301.2z"/>
		</g>
		<g>
			<rect x="358.7" y="308.4" class="st0" width="3.2" height="46.4"/>
			<path class="st0" d="M360.4,310.2c-3.4,0-6.1-2.7-6.1-6.1s2.7-6.1,6.1-6.1s6.1,2.7,6.1,6.1S363.7,310.2,360.4,310.2z
				 M360.4,301.2c-1.6,0-2.9,1.3-2.9,2.9s1.3,2.9,2.9,2.9c1.6,0,2.9-1.3,2.9-2.9S362,301.2,360.4,301.2z"/>
		</g>
		<path class="st0" d="M328.2,328.2c-19.8,0-33.7-14.5-33.9-14.6l2.4-2.2c1.1,1.3,29.4,30.4,62.6-0.2l2.2,2.4
			C349.6,324.5,338.2,328.2,328.2,328.2z"/>
	</g>
	<g>
		<rect x="311.7" y="314.2" class="st0" width="3.2" height="20.9"/>
		<path class="st0" d="M313.3,315.8c-2.1,0-3.7-1.6-3.7-3.7c0-2.1,1.6-3.7,3.7-3.7c2.1,0,3.7,1.6,3.7,3.7
			C317,314.2,315.4,315.8,313.3,315.8z M313.3,311.7c-0.3,0-0.5,0.2-0.5,0.5s0.2,0.5,0.5,0.5s0.5-0.2,0.5-0.5
			S313.6,311.7,313.3,311.7z"/>
		<rect x="340.9" y="314.2" class="st0" width="3.2" height="20.9"/>
		<path class="st0" d="M342.5,315.8c-2.1,0-3.7-1.6-3.7-3.7c0-2.1,1.6-3.7,3.7-3.7c2.1,0,3.7,1.6,3.7,3.7
			C346.2,314.2,344.6,315.8,342.5,315.8z M342.5,311.7c-0.3,0-0.5,0.2-0.5,0.5s0.2,0.5,0.5,0.5s0.5-0.2,0.5-0.5
			S342.8,311.7,342.5,311.7z"/>
		<path class="st0" d="M327.9,323.9c-9.3,0-15.7-6.7-15.9-6.9l2.4-2.2l-1.1,1.3l1.1-1.1c0.5,0.5,12.7,13,26.8,0l2.2,2.4
			C337.9,322.3,332.6,323.9,327.9,323.9z"/>
	</g>
	<path class="st1" d="M359.5,352.8h-63.4l26.7-19h11.6L359.5,352.8z M306.1,349.6h43.8L333.2,337h-9.3L306.1,349.6z"/>
</g>
<path class="st2" d="M251.5,320.5c-0.2-0.6-0.8-1.1-1.5-1.1h-23.7l-7.4-22.5c-0.2-0.6-0.8-1.1-1.5-1.1l0,0c-0.7,0-1.2,0.5-1.5,1.1
	l-7.4,22.5H185c-0.7,0-1.2,0.5-1.5,1.1c-0.2,0.6,0,1.3,0.5,1.7l19.1,13.9l-7.4,22.5c-0.2,0.6,0,1.3,0.5,1.7c0.3,0.2,0.6,0.3,0.9,0.3
	s0.6-0.1,0.9-0.3l19.2-13.9l19.2,14c0.5,0.4,1.2,0.4,1.9,0c0.5-0.4,0.8-1.1,0.5-1.7l-7.4-22.5l19.2-13.9
	C251.5,321.8,251.8,321.1,251.5,320.5z M229,334.2c-0.5,0.4-0.8,1.1-0.5,1.7l6.2,19.1l-16.2-11.8c-0.5-0.4-1.2-0.4-1.8,0l-16.3,11.8
	l6.2-19.1c0.2-0.6,0-1.3-0.5-1.7l-16.3-11.8h20c0.7,0,1.2-0.5,1.5-1.1l6.3-19.1l6.2,19.1c0.2,0.6,0.8,1.1,1.5,1.1h20.1L229,334.2z"
	/>
<g>
	<g>
		<path class="st0" d="M939.2,210.1c-3.5,0-6.3,2.8-6.3,6.3c0,0.7,0.2,1.4,0.4,2.1c-0.2,0.2-0.5,0.5-0.7,0.7
			c-1.4,1.4-3.5,3.5-4.4,3.5c-0.9,0-2.4-1.5-3.6-2.7c-1.8-1.8-3.6-3.6-5.8-3.6c-2.6,0-3.9,3.6-6.2,10.5c-0.8,2.4-2,6-2.9,7.7
			c-0.8-2.4-1.7-8.2-2.4-12.6c-2.3-14.7-3.7-21.1-7.2-21.1c-3.6,0-4.9,7.2-7.2,24.8c-0.8,5.7-1.8,13.3-2.6,15.7
			c-0.9-0.7-2.2-2.7-2.9-3.7c-1.8-2.8-3.6-5.4-6-5.4c-2.6,0-3.7,3.7-6.2,15.3c-1,4.3-2.3,10.5-3.4,12.5c-0.9-1.2-2.2-4.4-3-6.5
			c-2-5.1-3.5-8.8-6.1-8.8c-2.2,0-4,1.8-5.8,3.6c-1.2,1.2-2.7,2.7-3.6,2.7v3.1c2.2,0,4-1.8,5.8-3.6c1.1-1.1,2.5-2.5,3.5-2.7
			c0.9,0.7,2.4,4.5,3.4,6.8c2,5.1,3.5,8.8,6.1,8.8c2.6,0,3.7-3.7,6.2-15.3c1-4.5,2.5-11,3.5-12.7c0.8,0.5,2.3,2.7,3.1,3.9
			c1.8,2.8,3.6,5.4,6,5.4c2.5,0,3.2-3.3,5.2-18.6c1-7.3,2.6-19.3,4.2-21.8c1.6,2.2,3.1,12.1,4.1,18.2c1.9,12.1,2.6,15.9,5.2,15.9
			c2.6,0,3.9-3.6,6.2-10.5c0.9-2.8,2.5-7.4,3.4-8.3c0.9,0.2,2.3,1.5,3.4,2.6c1.8,1.8,3.6,3.6,5.8,3.6s4.3-2.1,6.6-4.4
			c0.1-0.1,0.2-0.2,0.3-0.3c1.1,0.9,2.5,1.5,4.1,1.5c3.5,0,6.3-2.8,6.3-6.3S942.6,210.1,939.2,210.1z"/>
	</g>
	<circle class="st1" cx="939.7" cy="216.3" r="6.8"/>
</g>
<g>
	<path class="st2" d="M427.1,117.2c3.6,0,6.6,3,6.6,6.6c0,3.6-3,6.6-6.6,6.6s-6.6-3-6.6-6.6C420.5,120.1,423.5,117.2,427.1,117.2
		 M427.1,112.2c-6.4,0-11.6,5.2-11.6,11.6c0,6.4,5.2,11.6,11.6,11.6s11.6-5.2,11.6-11.6C438.7,117.4,433.5,112.2,427.1,112.2
		L427.1,112.2z"/>
</g>
<g>
	<path class="st2" d="M438.7,184c3.6,0,6.6,3,6.6,6.6s-3,6.6-6.6,6.6s-6.6-3-6.6-6.6S435.1,184,438.7,184 M438.7,179
		c-6.4,0-11.6,5.2-11.6,11.6s5.2,11.6,11.6,11.6s11.6-5.2,11.6-11.6S445.1,179,438.7,179L438.7,179z"/>
</g>
<g>
	<path class="st1" d="M324.8,172.2c3.6,0,6.6,3,6.6,6.6s-3,6.6-6.6,6.6s-6.6-3-6.6-6.6S321.2,172.2,324.8,172.2 M324.8,167.2
		c-6.4,0-11.6,5.2-11.6,11.6s5.2,11.6,11.6,11.6s11.6-5.2,11.6-11.6S331.2,167.2,324.8,167.2L324.8,167.2z"/>
</g>
</svg>
