<?xml version="1.0" encoding="utf-8"?>
<!-- Generator: Adobe Illustrator 19.2.1, SVG Export Plug-In . SVG Version: 6.00 Build 0)  -->
<svg version="1.1"
	 id="Layer_1" xmlns:cc="http://creativecommons.org/ns#" xmlns:dc="http://purl.org/dc/elements/1.1/" xmlns:inkscape="http://www.inkscape.org/namespaces/inkscape" xmlns:rdf="http://www.w3.org/1999/02/22-rdf-syntax-ns#" xmlns:sodipodi="http://sodipodi.sourceforge.net/DTD/sodipodi-0.dtd" xmlns:svg="http://www.w3.org/2000/svg"
	 xmlns="http://www.w3.org/2000/svg" xmlns:xlink="http://www.w3.org/1999/xlink" x="0px" y="0px" viewBox="0 0 99.2 99.2"
	 style="enable-background:new 0 0 99.2 99.2;" xml:space="preserve">
<style type="text/css">
	.st0{fill:#EEEEEE;}
</style>
<g transform="translate(0,-952.36218)">
	<path class="st0" d="M90.6,970.4c-0.7,0-1.5,0.3-2,0.7l-8,7c-1.2,1-1.3,3-0.3,4.2s3,1.3,4.2,0.3l8-7c1-0.8,1.3-2.2,0.8-3.4
		C92.9,971.1,91.8,970.4,90.6,970.4z M68.5,970.7L31,986.4H14.6c-5.5,0-10,4.5-10,10v8c0,5.2,4,9.5,9,10l-6.9,24.2
		c-0.5,1.8,1,3.8,2.9,3.8h14c1.3,0,2.5-0.9,2.9-2.2l7.1-24.7l34.9,14.7c1.8,0.8,4.1-0.8,4.2-2.8v-17h3c2.7,0,5-2.3,5-5v-10
		c0-2.7-2.3-5-5-5h-3v-17c0-1.6-1.5-3-3-3C69.2,970.4,68.8,970.5,68.5,970.7z M66.6,977.9v15.3c0,0.1,0,0.1,0,0.2v14
		c0,0.1,0,0.2,0,0.3v15.2l-32-13.5v-18L66.6,977.9z M14.6,992.4h14v16h-14c-2.3,0-4-1.7-4-4v-8C10.6,994.2,12.3,992.4,14.6,992.4z
		 M72.6,996.4h2v8h-2V996.4z M82.6,1000.4c0,1.4,1.4,3,3,3h6c1.6,0,3-1.6,3-3s-1.4-3-3-3c-1.4,0-4,0-6,0
		C83.9,997.4,82.6,999,82.6,1000.4z M19.9,1014.4h7.8l-6.3,22h-7.8L19.9,1014.4z M82.4,1017.4c-1.2,0.1-2.3,0.9-2.7,2.1
		c-0.4,1.1,0,2.5,0.9,3.2l8,7c1.2,1,3.2,0.9,4.2-0.3c1-1.2,0.9-3.2-0.3-4.2l-8-7C84,1017.6,83.2,1017.3,82.4,1017.4L82.4,1017.4z"/>
</g>
</svg>
