<?xml version="1.0" encoding="utf-8"?>
<!-- Generator: Adobe Illustrator 19.2.1, SVG Export Plug-In . SVG Version: 6.00 Build 0)  -->
<svg version="1.1"
	 id="Layer_1" xmlns:cc="http://creativecommons.org/ns#" xmlns:dc="http://purl.org/dc/elements/1.1/" xmlns:inkscape="http://www.inkscape.org/namespaces/inkscape" xmlns:rdf="http://www.w3.org/1999/02/22-rdf-syntax-ns#" xmlns:sodipodi="http://sodipodi.sourceforge.net/DTD/sodipodi-0.dtd" xmlns:svg="http://www.w3.org/2000/svg"
	 xmlns="http://www.w3.org/2000/svg" xmlns:xlink="http://www.w3.org/1999/xlink" x="0px" y="0px" viewBox="0 0 99.2 99.2"
	 style="enable-background:new 0 0 99.2 99.2;" xml:space="preserve">
<style type="text/css">
	.st0{fill:#EEEEEE;}
</style>
<g transform="translate(0,-952.36218)">
	<path class="st0" d="M78.5,957.4l-9.1,9.1c-6.4-3.8-13.8-6-21.8-6c-11.9,0-22.6,4.8-30.4,12.6s-12.6,18.5-12.6,30.4
		c0,23.7,19.3,43,43,43c23.7,0,43-19.3,43-43c0-8-2.2-15.4-6-21.8l9.1-9.1c0.5-0.5,0.9-1.3,0.9-2.1c0-0.4-0.1-0.8-0.3-1.2
		c-0.4-1.1-1.6-1.8-2.7-1.8h-8v-8c0-1.6-1.5-3-3-3C79.8,956.5,79,956.9,78.5,957.4z M47.6,966.5c7.4,0,14.2,2.1,20,5.8v5
		c-5.6-4.3-12.5-6.8-20-6.8c-18.2,0-33,14.8-33,33c0,18.2,14.8,33,33,33s33-14.8,33-33c0-7.5-2.5-14.4-6.8-20h4.9
		c3.7,5.8,5.9,12.6,5.9,20c0,20.5-16.5,37-37,37c-20.5,0-37-16.5-37-37C10.6,983.1,27.1,966.5,47.6,966.5z M77.6,966.7v2.5l-4,4
		v-2.5L77.6,966.7z M81.8,973.5h2.5l-4,4h-2.5L81.8,973.5z M47.6,976.5c6.4,0,12.2,2.2,16.8,5.9l-2.9,2.9c-3.9-3-8.7-4.8-14-4.8
		c-12.7,0-23,10.3-23,23c0,12.7,10.3,23,23,23c12.7,0,23-10.3,23-23c0-5.3-1.8-10.1-4.8-14l2.9-2.9c3.7,4.6,5.9,10.5,5.9,16.8
		c0,14.9-12.1,27-27,27c-14.9,0-27-12.1-27-27C20.6,988.6,32.7,976.5,47.6,976.5z M47.6,986.5c3.6,0,6.9,1.1,9.7,3l-6.6,6.6
		c-1-0.4-2-0.7-3.1-0.7c-4.4,0-8,3.6-8,8c0,4.4,3.6,8,8,8s8-3.6,8-8c0-1.1-0.2-2.2-0.6-3.1l6.6-6.6c1.9,2.8,3.1,6.1,3.1,9.7
		c0,9.4-7.6,17-17,17c-9.4,0-17-7.6-17-17C30.6,994.1,38.2,986.5,47.6,986.5z M47.6,1001.5c1.1,0,2,0.9,2,2c0,1.1-0.9,2-2,2
		c-1.1,0-2-0.9-2-2C45.6,1002.4,46.5,1001.5,47.6,1001.5z"/>
</g>
</svg>
