<?xml version="1.0" encoding="utf-8"?>
<!-- Generator: Adobe Illustrator 19.2.1, SVG Export Plug-In . SVG Version: 6.00 Build 0)  -->
<svg version="1.1"
	 id="Layer_1" xmlns:cc="http://creativecommons.org/ns#" xmlns:dc="http://purl.org/dc/elements/1.1/" xmlns:inkscape="http://www.inkscape.org/namespaces/inkscape" xmlns:rdf="http://www.w3.org/1999/02/22-rdf-syntax-ns#" xmlns:sodipodi="http://sodipodi.sourceforge.net/DTD/sodipodi-0.dtd" xmlns:svg="http://www.w3.org/2000/svg"
	 xmlns="http://www.w3.org/2000/svg" xmlns:xlink="http://www.w3.org/1999/xlink" x="0px" y="0px" viewBox="0 0 99.2 99.2"
	 style="enable-background:new 0 0 99.2 99.2;" xml:space="preserve">
<style type="text/css">
	.st0{fill:#FEAC09;}
	.st1{fill:#259DFF;}
	.st2{fill:#EEEEEE;}
</style>
<path class="st0" d="M90.6,18c-0.7,0-1.5,0.3-2,0.7l-8,7c-1.2,1-1.3,3-0.3,4.2s3,1.3,4.2,0.3l8-7c1-0.8,1.3-2.2,0.8-3.4
	C92.9,18.7,91.8,18,90.6,18z"/>
<path class="st1" d="M86.2,48c0,1.4,1.4,3,3,3h6c1.6,0,3-1.6,3-3s-1.4-3-3-3c-1.4,0-4,0-6,0C87.5,45,86.2,46.6,86.2,48z"/>
<path class="st2" d="M75.7,38h-3V21c0-1.6-1.5-3-3-3c-0.5,0-0.9,0.1-1.2,0.3L31,34H14.6c-5.5,0-10,4.5-10,10v8c0,5.2,4,9.5,9,10
	L6.7,86.2C6.2,88,7.7,90,9.6,90h14c1.3,0,2.5-0.9,2.9-2.2l7.1-24.7l34.9,14.7c1.8,0.8,4.1-0.8,4.2-2.8V58h3c2.7,0,5-2.3,5-5V43
	C80.7,40.3,78.4,38,75.7,38z M21.4,84h-7.8l6.3-22h7.8L21.4,84z M28.6,56h-14c-2.3,0-4-1.7-4-4v-8c0-2.2,1.7-4,4-4h14V56z
	 M66.6,40.8c0,0.1,0,0.1,0,0.2v14c0,0.1,0,0.2,0,0.3v15.2L34.6,57V39l32-13.5V40.8z M74.6,52h-2v-8h2V52z"/>
<path class="st0" d="M82.4,65c-1.2,0.1-2.3,0.9-2.7,2.1c-0.4,1.1,0,2.5,0.9,3.2l8,7c1.2,1,3.2,0.9,4.2-0.3c1-1.2,0.9-3.2-0.3-4.2
	l-8-7C84,65.2,83.2,64.9,82.4,65L82.4,65z"/>
</svg>
