<?xml version="1.0" encoding="utf-8"?>
<!-- Generator: Adobe Illustrator 19.2.1, SVG Export Plug-In . SVG Version: 6.00 Build 0)  -->
<svg version="1.1"
	 id="Layer_1" xmlns:cc="http://creativecommons.org/ns#" xmlns:dc="http://purl.org/dc/elements/1.1/" xmlns:inkscape="http://www.inkscape.org/namespaces/inkscape" xmlns:rdf="http://www.w3.org/1999/02/22-rdf-syntax-ns#" xmlns:sodipodi="http://sodipodi.sourceforge.net/DTD/sodipodi-0.dtd" xmlns:svg="http://www.w3.org/2000/svg"
	 xmlns="http://www.w3.org/2000/svg" xmlns:xlink="http://www.w3.org/1999/xlink" x="0px" y="0px" viewBox="0 0 99.2 99.2"
	 style="enable-background:new 0 0 99.2 99.2;" xml:space="preserve">
<style type="text/css">
	.st0{fill:#EEEEEE;}
	.st1{fill:#FEAC09;}
</style>
<g>
	<path class="st0" d="M48,93c-24,0-43.4-19.5-43.4-43.4S24.1,6.2,48,6.2s43.4,19.5,43.4,43.4S72,93,48,93z M48,11
		C26.8,11,9.4,28.3,9.4,49.6S26.8,88.2,48,88.2s38.6-17.3,38.6-38.6S69.3,11,48,11z"/>
	<path class="st0" d="M48,83.4c-18.6,0-33.8-15.2-33.8-33.8S29.4,15.8,48,15.8S81.8,31,81.8,49.6S66.7,83.4,48,83.4z M48,20.6
		c-16,0-29,13-29,29s13,29,29,29s29-13,29-29S64,20.6,48,20.6z"/>
	<path class="st0" d="M48,73.7c-13.3,0-24.1-10.8-24.1-24.1S34.7,25.5,48,25.5s24.1,10.8,24.1,24.1S61.4,73.7,48,73.7z M48,30.3
		c-10.6,0-19.3,8.7-19.3,19.3S37.4,68.9,48,68.9s19.3-8.7,19.3-19.3C67.4,39,58.7,30.3,48,30.3z"/>
	<path class="st0" d="M48,64.1c-8,0-14.5-6.5-14.5-14.5S40.1,35.1,48,35.1s14.5,6.5,14.5,14.5S56,64.1,48,64.1z M48,39.9
		c-5.3,0-9.7,4.3-9.7,9.7s4.3,9.7,9.7,9.7s9.7-4.3,9.7-9.7S53.4,39.9,48,39.9z"/>
	<path class="st0" d="M48,54.4c-2.7,0-4.8-2.2-4.8-4.8s2.2-4.8,4.8-4.8c2.7,0,4.8,2.2,4.8,4.8S50.7,54.4,48,54.4z"/>
</g>
<path class="st1" d="M51,43.2c-0.8-0.4-1.7-0.6-2.5-0.6c-3.6,0-6.5,2.9-6.5,6.5c0,3.6,2.9,6.5,6.5,6.5c3.6,0,6.5-2.9,6.5-6.5
	c0-0.9-0.2-1.7-0.5-2.5L79,21.9l6.5-0.7l9.3-9.4l-7.8-1.1l-1.2-8l-9.3,9.3l-0.7,6.5L51,43.2z"/>
</svg>
