<?xml version="1.0" encoding="utf-8"?>
<!-- Generator: Adobe Illustrator 19.2.1, SVG Export Plug-In . SVG Version: 6.00 Build 0)  -->
<svg version="1.1"
	 id="Layer_1" xmlns:cc="http://creativecommons.org/ns#" xmlns:dc="http://purl.org/dc/elements/1.1/" xmlns:inkscape="http://www.inkscape.org/namespaces/inkscape" xmlns:rdf="http://www.w3.org/1999/02/22-rdf-syntax-ns#" xmlns:sodipodi="http://sodipodi.sourceforge.net/DTD/sodipodi-0.dtd" xmlns:svg="http://www.w3.org/2000/svg"
	 xmlns="http://www.w3.org/2000/svg" xmlns:xlink="http://www.w3.org/1999/xlink" x="0px" y="0px" viewBox="0 0 99.2 99.2"
	 style="enable-background:new 0 0 99.2 99.2;" xml:space="preserve">
<style type="text/css">
	.st0{fill:#EEEEEE;}
	.st1{fill:#FEAC09;}
	.st2{fill:#259DFF;}
	.st3{display:none;fill:#555555;}
</style>
<g>
	<polygon class="st0" points="26.1,68.6 31.2,68.6 35.4,54.1 30.3,54.1 	"/>
	<path class="st0" d="M24.1,42.2v5.3c0,1.5,1.1,2.6,2.6,2.6H36V39.5h-9.3C25.2,39.5,24.1,40.7,24.1,42.2z"/>
	<path class="st0" d="M40,50.8l21.2,8.9V49.6c0-0.1,0-0.1,0-0.2v-9.3c0-0.1,0-0.1,0-0.1V29.9L40,38.9V50.8z"/>
	<path class="st0" d="M49.6,0C22.2,0,0,22.2,0,49.6s22.2,49.6,49.6,49.6C77,99.2,99.2,77,99.2,49.6S77,0,49.6,0z M70.5,48.1
		c0,1.8-1.5,3.3-3.3,3.3h-2v11.2c-0.1,1.3-1.6,2.4-2.8,1.9l-23.1-9.7l-4.7,16.3c-0.3,0.9-1.1,1.5-1.9,1.5h-9.3
		c-1.3,0-2.2-1.3-1.9-2.5l4.6-16c-3.3-0.3-6-3.2-6-6.6v-5.3c0-3.6,3-6.6,6.6-6.6h10.8l24.8-10.4c0.2-0.1,0.5-0.2,0.8-0.2
		c1,0,2,0.9,2,2v11.2h2c1.8,0,3.3,1.5,3.3,3.3V48.1z"/>
	<rect x="65.1" y="42.2" class="st0" width="1.3" height="5.3"/>
</g>
<path class="st1" d="M77,25c-0.5,0-1,0.2-1.3,0.5l-5.3,4.6c-0.8,0.7-0.9,2-0.2,2.8s2,0.9,2.8,0.2l5.3-4.6c0.7-0.5,0.9-1.5,0.5-2.2
	C78.5,25.4,77.8,25,77,25z"/>
<path class="st2" d="M74.1,44.8c0,0.9,0.9,2,2,2h4c1.1,0,2-1.1,2-2c0-0.9-0.9-2-2-2c-0.9,0-2.6,0-4,0C75,42.8,74.1,43.9,74.1,44.8z"
	/>
<path class="st3" d="M67.2,38.2h-2V27c0-1.1-1-2-2-2c-0.3,0-0.6,0.1-0.8,0.2L37.6,35.6H26.7c-3.6,0-6.6,3-6.6,6.6v5.3
	c0,3.4,2.6,6.3,6,6.6l-4.6,16c-0.3,1.2,0.7,2.5,1.9,2.5h9.3c0.9,0,1.7-0.6,1.9-1.5l4.7-16.3l23.1,9.7c1.2,0.5,2.7-0.5,2.8-1.9V51.4
	h2c1.8,0,3.3-1.5,3.3-3.3v-6.6C70.5,39.7,68.9,38.2,67.2,38.2z M31.2,68.6h-5.2l4.2-14.5h5.2L31.2,68.6z M36,50.1h-9.3
	c-1.5,0-2.6-1.1-2.6-2.6v-5.3c0-1.5,1.1-2.6,2.6-2.6H36V50.1z M61.1,40.1c0,0.1,0,0.1,0,0.1v9.3c0,0.1,0,0.1,0,0.2v10.1L40,50.8
	V38.9l21.2-8.9V40.1z M66.4,47.5h-1.3v-5.3h1.3V47.5z"/>
<path class="st1" d="M71.6,56.1c-0.8,0.1-1.5,0.6-1.8,1.4c-0.3,0.7,0,1.7,0.6,2.1l5.3,4.6c0.8,0.7,2.1,0.6,2.8-0.2
	c0.7-0.8,0.6-2.1-0.2-2.8L73,56.6C72.6,56.2,72.1,56,71.6,56.1L71.6,56.1z"/>
</svg>
