<?xml version="1.0" encoding="utf-8"?>
<!-- Generator: Adobe Illustrator 19.2.1, SVG Export Plug-In . SVG Version: 6.00 Build 0)  -->
<svg version="1.1"
	 id="Layer_1" xmlns:cc="http://creativecommons.org/ns#" xmlns:dc="http://purl.org/dc/elements/1.1/" xmlns:inkscape="http://www.inkscape.org/namespaces/inkscape" xmlns:rdf="http://www.w3.org/1999/02/22-rdf-syntax-ns#" xmlns:sodipodi="http://sodipodi.sourceforge.net/DTD/sodipodi-0.dtd" xmlns:svg="http://www.w3.org/2000/svg"
	 xmlns="http://www.w3.org/2000/svg" xmlns:xlink="http://www.w3.org/1999/xlink" x="0px" y="0px" viewBox="0 0 99.2 99.2"
	 style="enable-background:new 0 0 99.2 99.2;" xml:space="preserve">
<style type="text/css">
	.st0{display:none;}
	.st1{display:inline;fill:#555555;}
	.st2{fill:#EEEEEE;}
	.st3{fill:#FEAC09;}
</style>
<g class="st0">
	<path class="st1" d="M48.9,83.3c-18.5,0-33.4-15-33.4-33.4s15-33.4,33.4-33.4s33.4,15,33.4,33.4S67.4,83.3,48.9,83.3z M48.9,20.2
		c-16.3,0-29.7,13.3-29.7,29.7s13.4,29.7,29.7,29.7s29.7-13.3,29.7-29.7S65.3,20.2,48.9,20.2z"/>
	<path class="st1" d="M48.9,75.9c-14.3,0-26-11.7-26-26s11.7-26,26-26s26,11.7,26,26S63.3,75.9,48.9,75.9z M48.9,27.6
		c-12.3,0-22.3,10-22.3,22.3s10,22.3,22.3,22.3s22.3-10,22.3-22.3S61.2,27.6,48.9,27.6z"/>
	<path class="st1" d="M48.9,68.4c-10.2,0-18.5-8.3-18.5-18.5s8.3-18.5,18.5-18.5s18.5,8.3,18.5,18.5S59.2,68.4,48.9,68.4z M48.9,35
		c-8.2,0-14.9,6.7-14.9,14.9s6.7,14.9,14.9,14.9S63.8,58,63.8,49.9C63.8,41.7,57.1,35,48.9,35z"/>
	<path class="st1" d="M48.9,61c-6.2,0-11.2-5-11.2-11.2s5.1-11.2,11.2-11.2s11.2,5,11.2,11.2S55.1,61,48.9,61z M48.9,42.4
		c-4.1,0-7.5,3.3-7.5,7.5s3.3,7.5,7.5,7.5s7.5-3.3,7.5-7.5S53.1,42.4,48.9,42.4z"/>
	<path class="st1" d="M48.9,53.6c-2.1,0-3.7-1.7-3.7-3.7s1.7-3.7,3.7-3.7c2.1,0,3.7,1.7,3.7,3.7S51,53.6,48.9,53.6z"/>
</g>
<g>
	<path class="st2" d="M49.6,0C22.2,0,0,22.2,0,49.6s22.2,49.6,49.6,49.6C77,99.2,99.2,77,99.2,49.6S77,0,49.6,0z M48.9,83.3
		c-18.5,0-33.4-15-33.4-33.4s15-33.4,33.4-33.4s33.4,15,33.4,33.4S67.4,83.3,48.9,83.3z"/>
	<path class="st2" d="M48.9,35c-8.2,0-14.9,6.7-14.9,14.9s6.7,14.9,14.9,14.9S63.8,58,63.8,49.9C63.8,41.7,57.1,35,48.9,35z
		 M48.9,61c-6.2,0-11.2-5-11.2-11.2s5.1-11.2,11.2-11.2s11.2,5,11.2,11.2S55.1,61,48.9,61z"/>
	<path class="st2" d="M48.9,27.6c-12.3,0-22.3,10-22.3,22.3c0,12.3,10,22.3,22.3,22.3c12.3,0,22.3-10,22.3-22.3
		C71.2,37.6,61.2,27.6,48.9,27.6z M48.9,68.4c-10.2,0-18.5-8.3-18.5-18.5s8.3-18.5,18.5-18.5s18.5,8.3,18.5,18.5
		S59.2,68.4,48.9,68.4z"/>
	<path class="st2" d="M48.9,42.4c-4.1,0-7.5,3.3-7.5,7.5s3.3,7.5,7.5,7.5s7.5-3.3,7.5-7.5S53.1,42.4,48.9,42.4z M48.9,53.6
		c-2.1,0-3.7-1.7-3.7-3.7s1.7-3.7,3.7-3.7c2.1,0,3.7,1.7,3.7,3.7S51,53.6,48.9,53.6z"/>
	<path class="st2" d="M48.9,20.2c-16.3,0-29.7,13.3-29.7,29.7s13.4,29.7,29.7,29.7s29.7-13.3,29.7-29.7S65.3,20.2,48.9,20.2z
		 M48.9,75.9c-14.3,0-26-11.7-26-26c0-14.3,11.7-26,26-26s26,11.7,26,26S63.3,75.9,48.9,75.9z"/>
</g>
<path class="st3" d="M50.8,45.4c-0.6-0.3-1.3-0.5-1.9-0.5c-2.8,0-5,2.2-5,5c0,2.8,2.2,5,5,5c2.8,0,5-2.2,5-5c0-0.7-0.2-1.3-0.4-1.9
	l18.9-19l5-0.5l7.2-7.2l-6-0.8l-0.9-6.2l-7.2,7.2l-0.5,5L50.8,45.4z"/>
</svg>
